<?xml version="1.0" encoding="UTF-8" standalone="no"?>
<svg
   width="447"
   height="474"
   viewBox="0 0 447 474"
   version="1.1"
   id="svg23"
   sodipodi:docname="f-logo.svg"
   inkscape:version="1.4.2 (ebf0e940d0, 2025-05-08)"
   xmlns:inkscape="http://www.inkscape.org/namespaces/inkscape"
   xmlns:sodipodi="http://sodipodi.sourceforge.net/DTD/sodipodi-0.dtd"
   xmlns="http://www.w3.org/2000/svg"
   xmlns:svg="http://www.w3.org/2000/svg">
  <defs
     id="defs23" />
  <sodipodi:namedview
     id="namedview23"
     pagecolor="#ffffff"
     bordercolor="#000000"
     borderopacity="0.25"
     inkscape:showpageshadow="2"
     inkscape:pageopacity="0.0"
     inkscape:pagecheckerboard="0"
     inkscape:deskcolor="#d1d1d1"
     inkscape:zoom="3.9514768"
     inkscape:cx="223.46076"
     inkscape:cy="237"
     inkscape:window-width="3840"
     inkscape:window-height="2091"
     inkscape:window-x="26"
     inkscape:window-y="23"
     inkscape:window-maximized="0"
     inkscape:current-layer="layer1" />
  <path
     d="m 162.767,24.7253 c 3.587,0.5472 8.802,0.8841 12.499,1.2131 l 23.832,2.0598 122.085,10.552 36.173,3.1565 c 3.401,0.2865 22.596,1.5105 24.444,2.6744 2.209,3.1404 4.179,8.5378 5.772,12.2323 l 11.346,26.9635 23.567,54.0251 c 2.168,4.947 4.291,9.915 6.368,14.901 2.148,5.034 3.758,7.379 4.777,12.896 -2.945,6.012 -6.156,11.831 -9.221,17.777 -4.875,9.457 -9.406,19.416 -14.546,28.708 -1.909,3.451 -5.884,12.091 -8.095,14.647 -2.479,-0.298 -5.108,-0.47 -7.607,-0.65 -15.918,-1.148 -31.907,-3.086 -47.816,-4.111 1.567,3.569 3.152,7.884 4.746,11.616 l 12.041,27.781 c 2.878,6.765 6.078,13.575 8.676,20.457 0.322,0.854 0.523,2.364 0.246,3.229 -1.622,5.059 -5.366,10.888 -7.678,15.537 -2.94,5.911 -6.094,11.395 -8.973,17.18 l -8.727,17.527 c -1.535,3.037 -3.518,6.137 -4.533,9.261 -0.154,0.474 -0.065,0.439 -0.425,0.87 -3.985,0.541 -16.922,-0.81 -21.541,-1.241 l -24.88,-2.171 -92.986,-8.014 c -2.036,-0.175 -4.076,-0.288 -6.119,-0.34 -3.09,7.007 -8.619,16.099 -12.177,23.239 l -34.142,67.196 c -4.938,9.547 -9.84,18.324 -14.627,28.065 -5.074,0.633 -13.189,-0.666 -18.498,-1.12 l -45.479,-3.936 c -2.4067,-0.22 -10.175,-0.418 -11.846,-1.152 -0.5023,-1.785 -3.4747,-8.261 -4.3642,-10.334 L 43.9915,409.904 20.0823,354.35 c -4.1672,-9.608 -8.5004,-20.327 -12.97955,-29.728 3.64595,-3.75 16.83195,-32.276 20.25805,-38.415 6.9129,-12.386 14.0647,-27.27 20.582,-40.047 L 71.6198,200.016 126.94,92.9622 150.029,47.9964 c 3.548,-6.8955 6.864,-13.9334 10.444,-20.8121 0.349,-0.6696 1.702,-1.9026 2.294,-2.459 z"
     id="path2"
     style="display:inline"
     inkscape:label="outline" />
  <g
     inkscape:groupmode="layer"
     id="layer3"
     inkscape:label="blue"
     style="display:inline">
    <path
       fill="#0046a3"
       d="m 179.748,296.081 c 1.645,-0.605 25.234,1.762 29.111,2.091 l 65.169,5.616 31.346,2.741 c 4.27,0.373 12.561,0.82 16.492,1.652 l 7.925,18.259 c 2.363,5.542 4.531,11.031 7.283,16.391 -9.884,-0.232 -20.879,-1.521 -30.822,-2.376 l -51.72,-4.451 -41.227,-3.558 c -4.944,-0.47 -9.89,-0.881 -14.834,-1.343 -1.113,-0.104 -2.697,-0.547 -3.71,-0.564 -0.765,-1.499 -1.34,-3.041 -1.988,-4.59 -4.189,-10.016 -8.722,-19.911 -13.025,-29.868 z"
       id="path4"
       inkscape:label="b" />
    <path
       fill="#4888da"
       d="m 179.748,296.081 c 4.303,9.957 8.836,19.852 13.025,29.868 0.648,1.549 1.223,3.091 1.988,4.59 l -36.413,71.662 c -7.7,14.968 -16.329,30.304 -23.276,45.669 -2.094,-6.175 -5.833,-13.959 -8.396,-20.111 -1.575,-3.781 -4.705,-11.513 -6.586,-14.885 1.513,-3.82 4.1,-8.327 5.9,-12.109 5.036,-10.578 11.024,-20.847 16.275,-31.276 l 22.81,-44.419 8.982,-17.971 c 1.721,-3.453 3.744,-7.768 5.691,-11.018 z"
       id="path8"
       inkscape:label="b" />
    <path
       fill="#0046a3"
       d="m 46.0994,408.55 c 7.8974,1.093 19.0208,1.722 27.1941,2.403 14.1142,1.144 28.2205,2.378 42.3195,3.701 2.11,3.835 5.569,12.679 7.481,17.118 1.86,4.321 6.278,13.654 7.633,17.762 -6.603,0.008 -19.737,-1.374 -26.895,-2.039 -13.9469,-1.297 -29.1499,-2.159 -42.9044,-3.81 -3.1753,-8.929 -7.9058,-18.171 -11.4065,-27.043 -0.5582,-1.414 -3.1957,-7.099 -3.4217,-8.092 z"
       id="path13"
       inkscape:label="b" />
    <path
       fill="#4888da"
       d="m 416.092,129.629 c 1.1,0.596 14.057,31.546 15.387,34.953 -7.162,13.418 -13.561,27.353 -21.063,40.639 -2.781,4.925 -5.14,10.577 -7.819,15.661 l -0.322,0.038 c -0.682,-0.96 -4.445,-9.854 -5.164,-11.521 l -5.143,-11.918 c -1.785,-4.072 -3.234,-6.963 -4.513,-11.224 7.592,-15.175 15.699,-30.018 23.242,-45.209 1.831,-3.688 3.956,-7.588 5.395,-11.419 z"
       id="path16"
       inkscape:label="b" />
    <path
       fill="#4888da"
       d="m 354.868,249.166 c 1.453,1.366 13.958,30.509 15.475,34.433 -0.606,1.471 -2.12,3.976 -2.931,5.459 -1.296,2.404 -2.545,4.834 -3.744,7.288 -5.595,11.225 -11.105,22.424 -17.117,33.437 -1.84,3.369 -3.591,6.773 -5.343,10.188 l -0.348,-0.067 -0.353,-1.014 c -0.457,-1.336 -1.279,-2.723 -1.933,-4 -4.503,-8.787 -7.744,-20.502 -12.736,-28.85 1.022,-2.432 2.642,-5.05 3.9,-7.418 l 6.094,-11.596 c 5.538,-10.494 10.376,-21.35 16.167,-31.702 1.127,-2.015 2.053,-3.997 2.869,-6.158 z"
       id="path17"
       inkscape:label="b" />
    <path
       fill="#0046a3"
       d="m 329.898,184.158 c 17.37,1.493 35.67,3.38 52.985,4.437 2.188,4.468 4.307,9.873 6.319,14.496 2.979,6.847 6.13,13.816 8.611,20.841 -3.248,0.026 -11.947,-1.068 -15.658,-1.387 l -37.26,-3.243 c -0.582,-1.89 -1.344,-3.768 -2.161,-5.571 -4.394,-9.705 -8.386,-19.92 -12.836,-29.573 z"
       id="path22"
       inkscape:label="b" />
  </g>
  <g
     inkscape:groupmode="layer"
     id="layer2"
     inkscape:label="yellow"
     style="display:inline">
    <path
       fill="#9e7501"
       d="m 162.093,256.668 c 0.247,-0.801 0.128,-0.902 0.666,-1.355 4.632,0.551 9.987,0.843 14.715,1.236 l 24.953,2.148 65.7,5.735 22.699,1.945 c 4.268,0.354 9.545,0.625 13.711,1.254 1.246,3.454 3.271,7.886 4.727,11.327 l 10.103,23.851 c -2.015,-0.657 -8.918,-0.983 -11.534,-1.197 l -18.987,-1.643 -74.427,-6.419 -22.075,-1.929 c -4.811,-0.397 -10.555,-0.703 -15.248,-1.467 -0.017,-1.631 -13.341,-31.877 -15.003,-33.486 z"
       id="path5"
       inkscape:label="y" />
    <path
       fill="#dab937"
       d="m 162.093,256.668 c 1.662,1.609 14.986,31.855 15.003,33.486 -1.194,4.123 -4.524,9.281 -6.518,13.186 -5.439,10.651 -10.564,21.419 -16.309,31.902 -2.393,4.366 -4.847,9.269 -7.125,13.705 l -29.612,57.87 -10.761,-25.264 c -1.073,-2.456 -3.048,-7.538 -4.133,-9.516 4.602,-9.926 10.428,-20.151 15.504,-29.907 l 21.748,-42.382 c 5.373,-10.301 10.204,-20.882 15.793,-31.066 2.197,-4.002 4.013,-8.104 6.41,-12.014 z"
       id="path9"
       inkscape:label="y" />
    <path
       fill="#9e7501"
       d="m 223.952,136.055 c 6.875,0.995 17.599,1.547 24.77,2.175 l 53.542,4.606 40.711,3.55 c 6.23,0.546 16.243,1.746 22.123,1.686 5.747,11.097 10.334,24.008 15.736,35.448 -4.598,-0.761 -10.924,-0.98 -15.726,-1.464 -12.27,-1.236 -24.911,-1.92 -37.156,-3.06 -1.706,-2.827 -6.37,-15.553 -7.823,-15.914 -1.959,-0.485 -10.701,-1.096 -13.489,-1.337 l -34.387,-2.962 -25.844,-2.198 c -3.785,-0.347 -11.035,-1.221 -14.405,-1.307 -5.732,-0.448 -11.461,-0.933 -17.187,-1.454 1.125,-2.914 7.424,-15.278 9.135,-17.769 z"
       id="path11"
       inkscape:label="y" />
    <path
       fill="#9e7501"
       d="m 29.0073,368.038 c 1.7869,0.349 5.6029,0.653 7.5506,0.837 l 15.4754,1.332 46.3511,3.992 c 3.6386,8.211 7.0936,16.784 10.7796,25.006 1.511,3.371 2.712,6.994 4.443,10.222 -3.122,-0.69 -13.9827,-1.298 -17.6546,-1.618 l -32.8595,-2.868 c -5.9239,-0.506 -13.5407,-0.933 -19.2454,-1.763 -2.1742,-3.689 -14.363,-31.972 -14.8402,-35.14 z"
       id="path14"
       inkscape:label="y" />
    <path
       fill="#dab937"
       d="m 337.894,208.692 c 0.534,0.539 14.058,32.43 14.976,34.866 -0.791,1.699 -2.112,3.883 -3.023,5.599 l -6.991,13.181 c -4.43,8.446 -8.53,17.277 -12.921,25.758 -2.182,4.212 -4.444,8.031 -6.329,12.42 -0.748,-1.555 -1.712,-4.551 -2.525,-6.446 -2.964,-7.005 -5.998,-13.981 -9.104,-20.924 -0.986,-2.199 -2.279,-5.878 -3.505,-7.736 7.246,-12.779 13.214,-26.079 20.141,-39.021 3.131,-5.85 6.294,-11.776 9.281,-17.697 z"
       id="path18"
       inkscape:label="y" />
    <path
       fill="#dab937"
       d="m 399.005,88.8747 c 0.273,0.5104 0.117,0.1671 0.266,0.6044 0.835,2.4633 2.116,4.9179 3.158,7.3477 2.271,5.4332 4.587,10.8482 6.948,16.2422 1.299,2.967 3.739,8.101 4.613,10.965 -1.143,2.952 -5.252,9.884 -6.905,13.349 -6.989,14.653 -14.841,28.883 -22.245,43.316 -0.46,-1.451 -2.164,-4.753 -2.871,-6.443 -2.691,-6.44 -5.441,-12.855 -8.252,-19.243 -1.15,-2.607 -3.294,-6.871 -3.734,-9.485 0.961,-2.006 2.343,-4.192 3.416,-6.197 l 6.602,-12.588 c 4.473,-8.569 8.746,-17.426 13.039,-26.091 1.614,-3.2585 5.248,-8.6701 5.965,-11.7773 z"
       id="path19"
       inkscape:label="y" />
    <path
       fill="#dab937"
       d="m 223.952,136.055 c 1.481,4.253 5.762,15.683 8.052,19.223 -5.732,-0.448 -11.461,-0.933 -17.187,-1.454 1.125,-2.914 7.424,-15.278 9.135,-17.769 z"
       id="path12"
       inkscape:label="y" />
  </g>
  <g
     inkscape:groupmode="layer"
     id="layer1"
     inkscape:label="red"
     style="display:inline">
    <path
       fill="#e84845"
       d="m 163.321,27.4531 c 4.646,-0.1464 15.045,1.144 20.125,1.5767 l 43.488,3.722 150.852,13.034 c -1.357,3.0674 -2.9,6.1449 -4.496,9.0899 -7.471,13.7924 -14.497,27.7841 -21.442,41.8473 -1.192,2.4143 -2.255,4.723 -4.117,6.701 -2.933,-0.925 -10.394,-1.225 -13.979,-1.562 L 295.875,98.5739 238.167,93.587 216.724,91.6992 c -4.282,-0.373 -9.256,-0.9188 -13.514,-1.0172 -1,3.4642 -2.677,6.136 -4.373,9.2901 l -5.791,10.9139 c -7.082,13.306 -13.286,27.14 -20.705,40.292 -0.362,0.641 -0.632,1.614 -0.583,2.352 0.74,0.418 2.345,-0.721 4.475,-0.564 7.289,0.535 14.568,1.155 21.837,1.837 l 87.794,7.624 20.951,1.793 c 2.403,0.211 7.332,0.894 9.495,0.687 -0.145,1.122 -3.594,7.721 -4.349,9.228 -4.289,8.617 -8.708,17.168 -13.256,25.652 -2.836,5.302 -8.966,16.684 -11.169,22.198 l -0.136,0.345 c -6.623,-0.487 -13.825,-1.143 -20.434,-1.771 l -84.526,-7.336 -22.438,-1.903 c -3.739,-0.317 -13.314,-0.775 -16.308,-1.998 -0.87,0.832 -2.135,2.016 -2.654,3.069 -5.5,11.17 -11.388,22.124 -17.194,33.135 -4.46,8.457 -8.395,17.341 -12.921,25.75 -7.642,14.197 -14.9483,28.512 -22.0423,42.988 -1.9942,4.073 -6.2754,10.826 -7.504,14.933 -4.6727,-0.892 -14.6008,-1.442 -19.7144,-1.888 l -31.6661,-2.747 c -5.985,-0.51 -12.6172,-0.929 -18.5163,-1.642 3.9211,-9.664 12.053,-23.319 16.9359,-32.977 L 72.7598,203.649 140.11,72.5193 c 7.796,-14.8958 14.796,-30.3975 23.211,-45.0662 z"
       id="path3"
       style="display:inline"
       inkscape:label="front-face" />
    <path
       fill="#9e0b1b"
       d="m 144.865,215.204 c 1.798,-0.273 9.836,0.514 11.947,0.693 l 26.233,2.291 87.486,7.556 c 5.446,0.489 11.09,0.736 16.452,1.249 0.67,2.739 3.814,9.055 5.101,12.062 l 6.462,14.993 c 1.125,2.648 2.177,5.482 3.39,8.061 L 184.288,252.03 c -2.502,-0.207 -23.188,-2.339 -24.372,-2.049 -0.778,-2.63 -4.47,-10.659 -5.844,-13.671 -3.042,-6.665 -6.028,-14.65 -9.207,-21.106 z"
       id="path6"
       inkscape:label="r" />
    <path
       fill="#9e0b1b"
       d="m 205.944,96.7423 c 0.403,-0.5329 0.526,-0.9181 1.297,-0.9131 3.182,0.0206 6.592,0.5664 9.763,0.8419 l 23.405,1.9574 72.678,6.3075 20.467,1.748 c 4.198,0.377 10.174,1.013 14.302,1.105 2.655,4.86 5.521,12.132 7.768,17.364 2.228,5.19 5.73,12.684 7.394,17.923 -2.983,-0.586 -9.021,-0.922 -12.212,-1.189 l -22.33,-1.91 -77.62,-6.706 -17.725,-1.498 c -3.18,-0.279 -8.909,-0.56 -11.716,-1.569 -3.274,-5.319 -13.303,-31.5745 -15.471,-33.4617 z"
       id="path7"
       inkscape:label="r" />
    <path
       fill="#e84845"
       d="m 144.865,215.204 c 3.179,6.456 6.165,14.441 9.207,21.106 1.374,3.012 5.066,11.041 5.844,13.671 -1.285,3.375 -4.099,8.072 -5.741,11.348 -2.681,5.348 -5.83,10.724 -8.494,16.045 l -34.236,67.3 c -3.675,7.129 -7.746,14.331 -11.326,21.487 -1.537,-4.315 -4.5928,-10.538 -6.4468,-14.826 -2.8141,-6.508 -5.6009,-13.58 -8.7892,-19.862 1.9662,-2.64 4.1991,-7.558 5.8173,-10.497 5.6512,-10.263 10.5517,-20.955 15.9037,-31.364 l 22.885,-44.481 c 4.923,-9.402 11.175,-20.345 15.376,-29.927 z"
       id="path10"
       inkscape:label="r" />
    <path
       fill="#9e0b1b"
       d="m 11.1175,327.521 c 2.8214,0.775 16.1565,1.658 19.7067,1.961 l 32.759,2.852 c 5.4981,0.466 11.6932,0.815 17.0881,1.404 l 11.2962,25.829 c 0.7641,1.766 3.6432,7.717 3.8058,9.204 -2.9682,0.038 -12.4445,-1.015 -15.9226,-1.304 l -35.4672,-3.096 c -5.4394,-0.468 -12.6276,-1.285 -17.8738,-1.398 l -11.5946,-26.45 c -0.6495,-1.492 -3.6492,-8.077 -3.7976,-9.002 z"
       id="path15"
       inkscape:label="r" />
    <path
       fill="#e84845"
       d="m 381.55,49.1658 c 1.285,1.5388 14.26,32.1784 15.169,34.9221 -10.582,18.3071 -18.93,37.9861 -29.174,55.9981 -0.177,-0.116 -0.355,-0.231 -0.532,-0.347 -4.28,-9.653 -10.333,-25.014 -14.511,-33.981 1.668,-3.946 4.373,-7.9234 6.187,-11.8905 6.917,-15.1303 15.789,-29.7219 22.861,-44.7017 z"
       id="path20"
       inkscape:label="r" />
    <path
       fill="#e84845"
       d="m 320.062,167.907 c 0.708,0.625 14.052,31.959 15.393,34.918 -1.293,2.453 -2.5,4.936 -3.757,7.405 -7.122,13.992 -14.729,27.715 -21.568,41.856 -1.167,2.413 -2.488,4.819 -3.435,7.327 -0.692,-0.463 -1.447,-1.845 -1.789,-2.635 -3.207,-7.406 -6.289,-14.88 -9.513,-22.281 -1.476,-3.39 -2.885,-6.362 -3.98,-9.901 3.989,-7.08 7.53,-15.168 11.375,-22.417 4.402,-8.297 8.944,-16.605 13.093,-25.019 1.138,-2.309 3.616,-6.923 4.181,-9.253 z"
       id="path21"
       inkscape:label="r" />
    <path
       fill="#e84845"
       d="m 205.944,96.7423 c 2.168,1.8872 12.197,28.1427 15.471,33.4617 -3.096,6.245 -9.585,17.37 -11.698,23.092 -3.761,-0.101 -9.106,-0.72 -12.985,-1.066 l -18.611,-1.573 c 7.701,-14.788 15.201,-29.65 22.851,-44.46 1.627,-3.149 3.133,-6.4315 4.972,-9.4547 z"
       id="path23"
       inkscape:label="r" />
  </g>
</svg>
