<?xml version="1.0" encoding="utf-8" ?><svg xmlns="http://www.w3.org/2000/svg" xmlns:xlink="http://www.w3.org/1999/xlink" width="447" height="474" viewBox="0 0 447 474"><path fill="white" d="M0 0L447 0L447 474L0 474L0 0Z"/><path d="M162.767 24.7253C166.354 25.2725 171.569 25.6094 175.266 25.9384L199.098 27.9982L321.183 38.5502L357.356 41.7067C360.757 41.9932 379.952 43.2172 381.8 44.3811C384.009 47.5215 385.979 52.9189 387.572 56.6134L398.918 83.5769L422.485 137.602C424.653 142.549 426.776 147.517 428.853 152.503C431.001 157.537 432.611 159.882 433.63 165.399C430.685 171.411 427.474 177.23 424.409 183.176C419.534 192.633 415.003 202.592 409.863 211.884C407.954 215.335 403.979 223.975 401.768 226.531C399.289 226.233 396.66 226.061 394.161 225.881C378.243 224.733 362.254 222.795 346.345 221.77C347.912 225.339 349.497 229.654 351.091 233.386L363.132 261.167C366.01 267.932 369.21 274.742 371.808 281.624C372.13 282.478 372.331 283.988 372.054 284.853C370.432 289.912 366.688 295.741 364.376 300.39C361.436 306.301 358.282 311.785 355.403 317.57L346.676 335.097C345.141 338.134 343.158 341.234 342.143 344.358C341.989 344.832 342.078 344.797 341.718 345.228C337.733 345.769 324.796 344.418 320.177 343.987L295.297 341.816L202.311 333.802C200.275 333.627 198.235 333.514 196.192 333.462C193.102 340.469 187.573 349.561 184.015 356.701L149.873 423.897C144.935 433.444 140.033 442.221 135.246 451.962C130.172 452.595 122.057 451.296 116.748 450.842L71.269 446.906C68.8623 446.686 61.094 446.488 59.423 445.754C58.9207 443.969 55.9483 437.493 55.0588 435.42L43.9915 409.904L20.0823 354.35C15.9151 344.742 11.5819 334.023 7.10275 324.622C10.7487 320.872 23.9347 292.346 27.3608 286.207C34.2737 273.821 41.4255 258.937 47.9428 246.16L71.6198 200.016L126.94 92.9622L150.029 47.9964C153.577 41.1009 156.893 34.063 160.473 27.1843C160.822 26.5147 162.175 25.2817 162.767 24.7253Z"/><path fill="#E84845" d="M163.321 27.4531C167.967 27.3067 178.366 28.5971 183.446 29.0298L226.934 32.7518L377.786 45.7858C376.429 48.8532 374.886 51.9307 373.29 54.8757C365.819 68.6681 358.793 82.6598 351.848 96.723C350.656 99.1373 349.593 101.446 347.731 103.424C344.798 102.499 337.337 102.199 333.752 101.862L295.875 98.5739L238.167 93.587L216.724 91.6992C212.442 91.3262 207.468 90.7804 203.21 90.682C202.21 94.1462 200.533 96.818 198.837 99.9721L193.046 110.886C185.964 124.192 179.76 138.026 172.341 151.178C171.979 151.819 171.709 152.792 171.758 153.53C172.498 153.948 174.103 152.809 176.233 152.966C183.522 153.501 190.801 154.121 198.07 154.803L285.864 162.427L306.815 164.22C309.218 164.431 314.147 165.114 316.31 164.907C316.165 166.029 312.716 172.628 311.961 174.135C307.672 182.752 303.253 191.303 298.705 199.787C295.869 205.089 289.739 216.471 287.536 221.985L287.4 222.33C280.777 221.843 273.575 221.187 266.966 220.559L182.44 213.223L160.002 211.32C156.263 211.003 146.688 210.545 143.694 209.322C142.824 210.154 141.559 211.338 141.04 212.391C135.54 223.561 129.652 234.515 123.846 245.526C119.386 253.983 115.451 262.867 110.925 271.276C103.283 285.473 95.9767 299.788 88.8827 314.264C86.8885 318.337 82.6073 325.09 81.3787 329.197C76.706 328.305 66.7779 327.755 61.6643 327.309L29.9982 324.562C24.0132 324.052 17.381 323.633 11.4819 322.92C15.403 313.256 23.5349 299.601 28.4178 289.943L72.7598 203.649L140.11 72.5193C147.906 57.6235 154.906 42.1218 163.321 27.4531Z"/><path fill="#0046A3" d="M179.748 296.081C181.393 295.476 204.982 297.843 208.859 298.172L274.028 303.788L305.374 306.529C309.644 306.902 317.935 307.349 321.866 308.181L329.791 326.44C332.154 331.982 334.322 337.471 337.074 342.831C327.19 342.599 316.195 341.31 306.252 340.455L254.532 336.004L213.305 332.446C208.361 331.976 203.415 331.565 198.471 331.103C197.358 330.999 195.774 330.556 194.761 330.539C193.996 329.04 193.421 327.498 192.773 325.949C188.584 315.933 184.051 306.038 179.748 296.081Z"/><path fill="#9E7501" d="M162.093 256.668C162.34 255.867 162.221 255.766 162.759 255.313C167.391 255.864 172.746 256.156 177.474 256.549L202.427 258.697L268.127 264.432L290.826 266.377C295.094 266.731 300.371 267.002 304.537 267.631C305.783 271.085 307.808 275.517 309.264 278.958L319.367 302.809C317.352 302.152 310.449 301.826 307.833 301.612L288.846 299.969L214.419 293.55L192.344 291.621C187.533 291.224 181.789 290.918 177.096 290.154C177.079 288.523 163.755 258.277 162.093 256.668Z"/><path fill="#9E0B1B" d="M144.865 215.204C146.663 214.931 154.701 215.718 156.812 215.897L183.045 218.188L270.531 225.744C275.977 226.233 281.621 226.48 286.983 226.993C287.653 229.732 290.797 236.048 292.084 239.055L298.546 254.048C299.671 256.696 300.723 259.53 301.936 262.109L184.288 252.03C181.786 251.823 161.1 249.691 159.916 249.981C159.138 247.351 155.446 239.322 154.072 236.31C151.03 229.645 148.044 221.66 144.865 215.204Z"/><path fill="#9E0B1B" d="M205.944 96.7423C206.347 96.2094 206.47 95.8242 207.241 95.8292C210.423 95.8498 213.833 96.3956 217.004 96.6711L240.409 98.6285L313.087 104.936L333.554 106.684C337.752 107.061 343.728 107.697 347.856 107.789C350.511 112.649 353.377 119.921 355.624 125.153C357.852 130.343 361.354 137.837 363.018 143.076C360.035 142.49 353.997 142.154 350.806 141.887L328.476 139.977L250.856 133.271L233.131 131.773C229.951 131.494 224.222 131.213 221.415 130.204C218.141 124.885 208.112 98.6295 205.944 96.7423Z"/><path fill="#4888DA" d="M179.748 296.081C184.051 306.038 188.584 315.933 192.773 325.949C193.421 327.498 193.996 329.04 194.761 330.539L158.348 402.201C150.648 417.169 142.019 432.505 135.072 447.87C132.978 441.695 129.239 433.911 126.676 427.759C125.101 423.978 121.971 416.246 120.09 412.874C121.603 409.054 124.19 404.547 125.99 400.765C131.026 390.187 137.014 379.918 142.265 369.489L165.075 325.07L174.057 307.099C175.778 303.646 177.801 299.331 179.748 296.081Z"/><path fill="#DAB937" d="M162.093 256.668C163.755 258.277 177.079 288.523 177.096 290.154C175.902 294.277 172.572 299.435 170.578 303.34C165.139 313.991 160.014 324.759 154.269 335.242C151.876 339.608 149.422 344.511 147.144 348.947L117.532 406.817L106.771 381.553C105.698 379.097 103.723 374.015 102.638 372.037C107.24 362.111 113.066 351.886 118.142 342.13L139.89 299.748C145.263 289.447 150.094 278.866 155.683 268.682C157.88 264.68 159.696 260.578 162.093 256.668Z"/><path fill="#E84845" d="M144.865 215.204C148.044 221.66 151.03 229.645 154.072 236.31C155.446 239.322 159.138 247.351 159.916 249.981C158.631 253.356 155.817 258.053 154.175 261.329C151.494 266.677 148.345 272.053 145.681 277.374L111.445 344.674C107.77 351.803 103.699 359.005 100.119 366.161C98.582 361.846 95.5262 355.623 93.6722 351.335C90.8581 344.827 88.0713 337.755 84.883 331.473C86.8492 328.833 89.0821 323.915 90.7003 320.976C96.3515 310.713 101.252 300.021 106.604 289.612L129.489 245.131C134.412 235.729 140.664 224.786 144.865 215.204Z"/><path fill="#9E7501" d="M223.952 136.055C230.827 137.05 241.551 137.602 248.722 138.23L302.264 142.836L342.975 146.386C349.205 146.932 359.218 148.132 365.098 148.072C370.845 159.169 375.432 172.08 380.834 183.52C376.236 182.759 369.91 182.54 365.108 182.056C352.838 180.82 340.197 180.136 327.952 178.996C326.246 176.169 321.582 163.443 320.129 163.082C318.17 162.597 309.428 161.986 306.64 161.745L272.253 158.783L246.409 156.585C242.624 156.238 235.374 155.364 232.004 155.278C226.272 154.83 220.543 154.345 214.817 153.824C215.942 150.91 222.241 138.546 223.952 136.055Z"/><path fill="#DAB937" d="M223.952 136.055C225.433 140.308 229.714 151.738 232.004 155.278C226.272 154.83 220.543 154.345 214.817 153.824C215.942 150.91 222.241 138.546 223.952 136.055Z"/><path fill="#0046A3" d="M46.0994 408.55C53.9968 409.643 65.1202 410.272 73.2935 410.953C87.4077 412.097 101.514 413.331 115.613 414.654C117.723 418.489 121.182 427.333 123.094 431.772C124.954 436.093 129.372 445.426 130.727 449.534C124.124 449.542 110.99 448.16 103.832 447.495C89.8851 446.198 74.6821 445.336 60.9276 443.685C57.7523 434.756 53.0218 425.514 49.5211 416.642C48.9629 415.228 46.3254 409.543 46.0994 408.55Z"/><path fill="#9E7501" d="M29.0073 368.038C30.7942 368.387 34.6102 368.691 36.5579 368.875L52.0333 370.207L98.3844 374.199C102.023 382.41 105.478 390.983 109.164 399.205C110.675 402.576 111.876 406.199 113.607 409.427C110.485 408.737 99.6243 408.129 95.9524 407.809L63.0929 404.941C57.169 404.435 49.5522 404.008 43.8475 403.178C41.6733 399.489 29.4845 371.206 29.0073 368.038Z"/><path fill="#9E0B1B" d="M11.1175 327.521C13.9389 328.296 27.274 329.179 30.8242 329.482L63.5832 332.334C69.0813 332.8 75.2764 333.149 80.6713 333.738L91.9675 359.567C92.7316 361.333 95.6107 367.284 95.7733 368.771C92.8051 368.809 83.3288 367.756 79.8507 367.467L44.3835 364.371C38.9441 363.903 31.7559 363.086 26.5097 362.973L14.9151 336.523C14.2656 335.031 11.2659 328.446 11.1175 327.521Z"/><path fill="#4888DA" d="M416.092 129.629C417.192 130.225 430.149 161.175 431.479 164.582C424.317 178 417.918 191.935 410.416 205.221C407.635 210.146 405.276 215.798 402.597 220.882L402.275 220.92C401.593 219.96 397.83 211.066 397.111 209.399L391.968 197.481C390.183 193.409 388.734 190.518 387.455 186.257C395.047 171.082 403.154 156.239 410.697 141.048C412.528 137.36 414.653 133.46 416.092 129.629Z"/><path fill="#4888DA" d="M354.868 249.166C356.321 250.532 368.826 279.675 370.343 283.599C369.737 285.07 368.223 287.575 367.412 289.058C366.116 291.462 364.867 293.892 363.668 296.346C358.073 307.571 352.563 318.77 346.551 329.783C344.711 333.152 342.96 336.556 341.208 339.971L340.86 339.904L340.507 338.89C340.05 337.554 339.228 336.167 338.574 334.89C334.071 326.103 330.83 314.388 325.838 306.04C326.86 303.608 328.48 300.99 329.738 298.622L335.832 287.026C341.37 276.532 346.208 265.676 351.999 255.324C353.126 253.309 354.052 251.327 354.868 249.166Z"/><path fill="#DAB937" d="M337.894 208.692C338.428 209.231 351.952 241.122 352.87 243.558C352.079 245.257 350.758 247.441 349.847 249.157L342.856 262.338C338.426 270.784 334.326 279.615 329.935 288.096C327.753 292.308 325.491 296.127 323.606 300.516C322.858 298.961 321.894 295.965 321.081 294.07C318.117 287.065 315.083 280.089 311.977 273.146C310.991 270.947 309.698 267.268 308.472 265.41C315.718 252.631 321.686 239.331 328.613 226.389C331.744 220.539 334.907 214.613 337.894 208.692Z"/><path fill="#DAB937" d="M399.005 88.8747C399.278 89.3851 399.122 89.0418 399.271 89.4791C400.106 91.9424 401.387 94.397 402.429 96.8268C404.7 102.26 407.016 107.675 409.377 113.069C410.676 116.036 413.116 121.17 413.99 124.034C412.847 126.986 408.738 133.918 407.085 137.383C400.096 152.036 392.244 166.266 384.84 180.699C384.38 179.248 382.676 175.946 381.969 174.256C379.278 167.816 376.528 161.401 373.717 155.013C372.567 152.406 370.423 148.142 369.983 145.528C370.944 143.522 372.326 141.336 373.399 139.331L380.001 126.743C384.474 118.174 388.747 109.317 393.04 100.652C394.654 97.3935 398.288 91.9819 399.005 88.8747Z"/><path fill="#E84845" d="M381.55 49.1658C382.835 50.7046 395.81 81.3442 396.719 84.0879C386.137 102.395 377.789 122.074 367.545 140.086C367.368 139.97 367.19 139.855 367.013 139.739C362.733 130.086 356.68 114.725 352.502 105.758C354.17 101.812 356.875 97.8346 358.689 93.8675C365.606 78.7372 374.478 64.1456 381.55 49.1658Z"/><path fill="#E84845" d="M320.062 167.907C320.77 168.532 334.114 199.866 335.455 202.825C334.162 205.278 332.955 207.761 331.698 210.23C324.576 224.222 316.969 237.945 310.13 252.086C308.963 254.499 307.642 256.905 306.695 259.413C306.003 258.95 305.248 257.568 304.906 256.778C301.699 249.372 298.617 241.898 295.393 234.497C293.917 231.107 292.508 228.135 291.413 224.596C295.402 217.516 298.943 209.428 302.788 202.179C307.19 193.882 311.732 185.574 315.881 177.16C317.019 174.851 319.497 170.237 320.062 167.907Z"/><path fill="#0046A3" d="M329.898 184.158C347.268 185.651 365.568 187.538 382.883 188.595C385.071 193.063 387.19 198.468 389.202 203.091C392.181 209.938 395.332 216.907 397.813 223.932C394.565 223.958 385.866 222.864 382.155 222.545L344.895 219.302C344.313 217.412 343.551 215.534 342.734 213.731C338.34 204.026 334.348 193.811 329.898 184.158Z"/><path fill="#E84845" d="M205.944 96.7423C208.112 98.6295 218.141 124.885 221.415 130.204C218.319 136.449 211.83 147.574 209.717 153.296C205.956 153.195 200.611 152.576 196.732 152.23L178.121 150.657C185.822 135.869 193.322 121.007 200.972 106.197C202.599 103.048 204.105 99.7655 205.944 96.7423Z"/></svg>
