<?xml version="1.0" encoding="utf-8" ?><svg xmlns="http://www.w3.org/2000/svg" xmlns:xlink="http://www.w3.org/1999/xlink" width="896" height="1200" viewBox="0 0 896 1200"><path fill="#51a2ff" d="M498.218 166.975L498.434 165.016C501.414 163.882 513.566 169.165 516.859 170.641C558.619 189.363 558.625 227.037 584.753 240.685C614.112 256.02 650.122 214.583 698.232 242.596C708.552 248.605 717.447 258.058 721.643 269.34C727.025 283.812 726.969 300.443 720.387 314.54C710.591 335.521 688.201 347.305 668.977 358.148C660.615 362.865 652.179 367.485 645.477 374.51C636.261 384.17 633.273 397.319 629.33 409.65C619.033 441.852 596.165 464.806 564.256 476.085C544.015 483.24 522.698 485.871 501.279 485.529C470.554 485.037 437.733 479.622 407.655 487.931C399.767 490.111 392.346 493.341 386.006 498.585C376.315 506.598 370.353 517.124 363.918 527.672C348.788 552.472 331.541 574.847 302.072 583.032C286.73 587.294 269.559 587.218 254.071 583.697C236.468 579.694 217.912 570.896 199.598 574.44C190.494 576.202 182.302 580.599 178.097 589.173C175.251 594.975 174.589 601.517 176.729 607.645C184.872 630.966 228.035 643.705 247.86 655.965C262.859 665.241 276.344 677.771 284.248 693.74C291.437 708.265 293.469 724.231 291.166 740.185C286.131 775.071 266.31 801.728 309.026 821.722C333.644 833.245 370.393 839.356 381.182 868.39C384.738 877.961 384.14 888.35 379.837 897.552C373.822 910.412 362.354 919.455 350.278 926.361C342.42 930.855 333.952 934.671 325.558 938.045C313.761 942.787 263.704 957.961 269.682 975.156C271.609 980.697 277.236 984.267 282.334 986.492C304.722 996.265 342.951 998.889 367.317 997.957C372.759 997.749 407.227 994.346 409.253 995.482L409.498 996.655L409.473 1024.9C409.429 1025.39 409.209 1026.12 409.081 1026.63C405.111 1028.81 367.2 1030.7 359.957 1030.56C321.949 1029.42 266.85 1026.79 237.386 999.381C212.31 976.055 231.517 944.787 256.221 931.606C272.401 922.974 285.819 917.125 303.043 910.998C315.111 906.714 342.119 896.144 340.556 880.158C338.899 863.201 297.061 854.826 283.855 849.221C275.434 845.743 267.645 840.898 260.804 834.881C235.954 813.343 234.482 785.981 242.685 756.257C245.034 745.693 248.785 734.63 247.978 723.705C246.776 707.434 236.089 697.65 222.903 689.76C211.697 683.054 200.118 678.46 188.45 672.892C162.174 660.354 133.811 636.985 131.807 605.765C130.643 588.148 136.533 570.79 148.178 557.519C156.85 547.788 167.01 541.747 178.996 537.58C205.147 527.568 232.111 535.674 257.798 542.928C294.874 553.399 311.378 535.387 327.814 504.327C331.756 496.878 339.977 486.055 345.707 479.356C376.16 443.745 422.939 442.244 466.337 444.364C482.11 444.974 495.404 447.141 511.287 445.968C551.522 442.996 579.712 433.599 594.596 392.59C601.018 374.898 605.773 362.361 619.58 348.657C637.736 330.366 664.665 324.811 682.209 306.042C690.803 296.847 690.365 281.616 680.216 273.787C664.411 261.595 644.435 270.729 627.707 275.177C621.036 276.937 614.234 278.155 607.368 278.821C576.695 281.719 551.5 266.785 534.803 241.584C527.09 229.942 521.751 215.799 509.914 207.699C506.246 205.19 501.328 202.8 498.096 199.985C498.522 196.087 498.065 188.615 498.398 183.706L498.802 182.157C497.784 179.791 498.191 170.125 498.218 166.975Z"/><path fill="#252E31" d="M498.096 199.985C501.076 198.99 503.241 200.263 506.111 201.732C523.136 210.446 529.746 229.351 540.032 243.915C545.335 251.582 551.978 258.231 559.64 263.542C567.462 268.973 575.548 272.548 584.878 274.508C595 276.634 605.367 276.562 615.535 274.797C635.977 271.248 663.745 256.115 682.218 271.808C685.836 274.882 688.766 278.61 690.265 283.16C692.397 289.629 691.304 296.727 688.159 302.672C679.288 319.445 655.284 327.787 639.792 337.123C633.195 341.099 626.651 346.167 621.057 351.471C588.855 382.005 604.991 426.002 546.696 443.437C520.494 451.274 494.34 448.569 467.519 447.242C439.274 445.844 407.387 445.834 381.052 457.185C363.745 464.645 349.367 478.058 338.622 493.376C325.409 512.214 315.974 539.69 291.782 546.978C254.406 558.237 220.785 519.679 170.735 544.22C159.034 549.957 148.991 559.02 142.807 570.552C135.018 585.078 132.406 601.152 137.236 617.097C144.817 642.131 165.699 657.374 187.744 668.986C209.803 680.605 241.652 688.895 249.806 715.712C258.418 744.038 230.952 773.446 245.727 809.949C251.804 824.965 264.454 835.828 278.39 843.414C283.531 846.187 288.911 848.49 294.465 850.294C307.823 854.753 338.457 861.023 342.887 876.702C344.151 881.177 343.499 886.826 341.138 890.821C325.765 916.838 255.02 919.22 233.567 956.833C229.583 963.818 227.802 971.539 229.552 979.481C232.059 990.861 240.716 999.611 250.299 1005.64C281.27 1025.14 338.724 1029.28 374.771 1027.49C380.008 1027.23 406.217 1023.44 409.473 1024.9C409.429 1025.39 409.209 1026.12 409.081 1026.63C405.111 1028.81 367.2 1030.7 359.957 1030.56C321.949 1029.42 266.85 1026.79 237.386 999.381C212.31 976.055 231.517 944.787 256.221 931.606C272.401 922.974 285.819 917.125 303.043 910.998C315.111 906.714 342.119 896.144 340.556 880.158C338.899 863.201 297.061 854.826 283.855 849.221C275.434 845.743 267.645 840.898 260.804 834.881C235.954 813.343 234.482 785.981 242.685 756.257C245.034 745.693 248.785 734.63 247.978 723.705C246.776 707.434 236.089 697.65 222.903 689.76C211.697 683.054 200.118 678.46 188.45 672.892C162.174 660.354 133.811 636.985 131.807 605.765C130.643 588.148 136.533 570.79 148.178 557.519C156.85 547.788 167.01 541.747 178.996 537.58C205.147 527.568 232.111 535.674 257.798 542.928C294.874 553.399 311.378 535.387 327.814 504.327C331.756 496.878 339.977 486.055 345.707 479.356C376.16 443.745 422.939 442.244 466.337 444.364C482.11 444.974 495.404 447.141 511.287 445.968C551.522 442.996 579.712 433.599 594.596 392.59C601.018 374.898 605.773 362.361 619.58 348.657C637.736 330.366 664.665 324.811 682.209 306.042C690.803 296.847 690.365 281.616 680.216 273.787C664.411 261.595 644.435 270.729 627.707 275.177C621.036 276.937 614.234 278.155 607.368 278.821C576.695 281.719 551.5 266.785 534.803 241.584C527.09 229.942 521.751 215.799 509.914 207.699C506.246 205.19 501.328 202.8 498.096 199.985Z"/><path fill="#252E31" d="M498.218 166.975L498.434 165.016C501.414 163.882 513.566 169.165 516.859 170.641C558.619 189.363 558.625 227.037 584.753 240.685C614.112 256.02 650.122 214.583 698.232 242.596C708.552 248.605 717.447 258.058 721.643 269.34C727.025 283.812 726.969 300.443 720.387 314.54C710.591 335.521 688.201 347.305 668.977 358.148C660.615 362.865 652.179 367.485 645.477 374.51C636.261 384.17 633.273 397.319 629.33 409.65C619.033 441.852 596.165 464.806 564.256 476.085C544.015 483.24 522.698 485.871 501.279 485.529C470.554 485.037 437.733 479.622 407.655 487.931C399.767 490.111 392.346 493.341 386.006 498.585C376.315 506.598 370.353 517.124 363.918 527.672C348.788 552.472 331.541 574.847 302.072 583.032C286.73 587.294 269.559 587.218 254.071 583.697C236.468 579.694 217.912 570.896 199.598 574.44C190.494 576.202 182.302 580.599 178.097 589.173C175.251 594.975 174.589 601.517 176.729 607.645C184.872 630.966 228.035 643.705 247.86 655.965C262.859 665.241 276.344 677.771 284.248 693.74C291.437 708.265 293.469 724.231 291.166 740.185C286.131 775.071 266.31 801.728 309.026 821.722C333.644 833.245 370.393 839.356 381.182 868.39C384.738 877.961 384.14 888.35 379.837 897.552C373.822 910.412 362.354 919.455 350.278 926.361C342.42 930.855 333.952 934.671 325.558 938.045C313.761 942.787 263.704 957.961 269.682 975.156C271.609 980.697 277.236 984.267 282.334 986.492C304.722 996.265 342.951 998.889 367.317 997.957C372.759 997.749 407.227 994.346 409.253 995.482L409.498 996.655C406.71 998.24 395.255 998.963 391.223 999.284C354.47 1002.21 313.69 1002.02 278.99 988.281C274.052 986.327 268.025 980.378 266.724 975.073C262.114 955.396 305.234 943.605 318.181 937.882C328.476 933.4 339.99 928.999 349.581 923.434C395.124 897.007 388.774 857.437 342.005 837.885C327.936 831.503 312.852 828.107 299.365 820.34C265.043 800.575 284.521 767.2 288.325 738.605C289.696 728.252 289 717.73 286.274 707.649C268.967 644.544 184.218 647.434 173.458 606.462C171.694 599.508 172.809 592.135 176.55 586.013C179.193 581.647 183.676 577.571 188.167 575.222C211.594 562.967 237.816 578.046 262.335 582.098C273.886 584.002 285.694 583.707 297.136 581.228C320.139 576.37 338.138 560.495 351.246 541.776C363.096 524.854 374.8 498.081 394.605 489.473C427.51 475.171 467.818 482.229 502.701 482.755C553.442 483.251 607.681 465.013 625.191 412.587C630.095 397.903 632.981 382.825 644.35 371.523C650.336 365.477 658.214 360.623 665.825 356.714C697.943 340.22 731.993 317.357 720.813 275.512C717.049 261.423 707.732 251.494 695.408 244.418C670.235 229.964 644.961 235.471 619.073 244.139C567.179 259.144 565.425 214.181 537.612 187.7C529.6 180.387 520.735 174.974 510.422 171.512C507.032 170.374 501.006 168.688 498.218 166.975Z"/><path fill="#DEF9FA" d="M498.802 182.157C501.44 182.527 506.248 183.163 508.042 185.45C506.094 186.246 501.898 184.059 498.398 183.706L498.802 182.157Z"/><path fill="#DEF9FA" d="M322.928 545.855C324.066 546.047 323.689 545.998 324.739 546.723L324.59 548.02C322.555 550.745 318.953 553.27 316.202 555.413C314.919 555.179 315.51 555.44 314.555 554.323C315.371 552.056 320.92 547.628 322.928 545.855Z"/><path fill="#DEF9FA" d="M153.373 592.525C156.889 594.495 155.783 603.515 154.476 606.566C151.137 603.958 152.272 596.101 153.373 592.525Z"/><path fill="#DEF9FA" d="M287.354 933.373C288.125 933.645 288.046 933.843 288.741 934.649L288.451 935.699C286.123 937.571 281.651 939.27 278.779 940.514L277.75 940.24L277.195 939.237C278.266 937.307 285.09 934.454 287.354 933.373Z"/><path fill="#DEF9FA" d="M302.769 559.601C303.396 559.503 303.371 559.617 304.074 559.852L304.524 560.918C302.812 563.356 297.174 564.434 294.007 565.339L292.77 565.003L292.443 564.012C293.904 562.276 300.387 560.399 302.769 559.601Z"/><path fill="#DEF9FA" d="M365.57 487.363L366.437 488.28C366.234 491.247 360.877 495.948 358.541 498.319C357.583 497.947 358.032 498.22 357.376 497.182C358.037 494.001 363.087 489.72 365.57 487.363Z"/><path fill="#DEF9FA" d="M349.989 506.649L351.29 507.955C351.756 511.119 348.016 514.794 345.87 518.322L344.734 517.577C344.144 514.616 348.201 509.347 349.989 506.649Z"/><path fill="#DEF9FA" d="M385.582 473.46L386.054 474.308C384.917 476.705 378.416 480.069 375.856 481.486C373.752 477.185 382.412 474.652 385.582 473.46Z"/><path fill="#DEF9FA" d="M213.015 660.372C216.413 660.468 224.01 663.738 225.418 666.991C222.092 666.979 213.631 663.876 213.015 660.372Z"/><path fill="#DEF9FA" d="M170.674 636.121L172.532 636.281C175.602 638.249 180.202 641.01 181.354 644.306C177.731 644.374 171.164 639.725 170.674 636.121Z"/><path fill="#DEF9FA" d="M242.597 558.974C245.936 558.899 253.716 560.885 256.053 563.567C251.645 564.161 244.949 563.191 242.597 558.974Z"/><path fill="#DEF9FA" d="M162.44 571.55C163.44 571.854 163.059 571.683 163.857 572.492C163.741 574.481 159.97 580.292 158.78 582.321C157.652 582.221 158.204 582.381 157.221 581.498C156.984 578.253 160.507 574.191 162.44 571.55Z"/><path fill="#DEF9FA" d="M267.05 564.378C270.105 564.178 276.422 564.016 279.159 565.354L279.524 566.937C275.583 567.136 268.953 568.358 267.05 564.378Z"/><path fill="#DEF9FA" d="M266.633 708.691C267.77 708.906 267.744 709.053 268.623 709.858C270.396 713.945 270.93 717.218 270.852 721.675C269.699 721.287 270.002 721.378 268.973 720.656C267.613 716.764 267.158 712.774 266.633 708.691Z"/><path fill="#DEF9FA" d="M337.717 527.065L338.882 527.7L339.087 529.042C337.897 532.191 334.969 535.753 332.902 538.544L332.163 537.939C331.773 534.77 335.741 530.003 337.717 527.065Z"/><path fill="#DEF9FA" d="M423.525 463.117C426.62 462.919 431.694 462.442 434.443 463.904L434.235 464.815L432.618 465.124C429.84 465.282 424.12 465.849 421.709 464.832L421.799 463.907L423.525 463.117Z"/><path fill="#DEF9FA" d="M497.379 464.307C500.423 464.157 506.323 463.484 508.341 465.809L507.872 466.892C505.224 467.001 498.283 467.626 496.609 465.584L497.379 464.307Z"/><path fill="#DEF9FA" d="M578.445 445.875L579.394 446.593L579.378 447.602C577.041 450.183 572.963 451.75 569.752 452.95L568.867 452.313L569.072 451.32C571.253 449.378 575.715 447.291 578.445 445.875Z"/><path fill="#DEF9FA" d="M157.047 615.733C159.494 617.093 162.841 624.815 163.006 627.712C159.345 625.463 155.955 620.135 157.047 615.733Z"/><path fill="#DEF9FA" d="M260.114 792.5C260.817 792.889 261.097 793.224 261.711 793.764C263.271 797.797 263.707 800.741 263.704 805.068C259.664 802.759 259.641 796.675 260.114 792.5Z"/><path fill="#DEF9FA" d="M219.101 553.194C222.359 552.771 230.991 553.398 231.123 557.718C227.671 556.899 220.742 556.103 219.101 553.194Z"/><path fill="#DEF9FA" d="M190.51 649.751C193.054 649.854 201.579 653.957 202.8 656.15C199.545 657.738 191.957 652.653 190.51 649.751Z"/><path fill="#DEF9FA" d="M361.104 878.641C362.222 879.113 362.18 879.301 362.902 880.327C363.596 883.825 362.853 886.859 362.084 890.306C360.937 890.151 360.91 890.254 360.059 889.509C359.729 885.748 360.393 882.333 361.104 878.641Z"/><path fill="#DEF9FA" d="M198.258 552.205C201.001 551.91 204.575 551.236 206.792 553.013L206.196 554.027L204.03 554.184C201.612 554.574 197.265 555.483 195.353 553.596C196.376 552.311 196.235 552.699 198.258 552.205Z"/><path fill="#DEF9FA" d="M352.463 901.003C353.463 901.324 353.088 901.012 353.583 901.948C352.178 905.121 348.34 907.839 345.62 909.96C344.956 909.779 345.165 909.757 344.551 909.084C345.33 906.191 350.096 902.86 352.463 901.003Z"/><path fill="#DEF9FA" d="M596.007 429.838L596.86 430.293C596.737 433.434 592.471 437.216 590.138 439.717C589.149 439.287 589.613 439.56 588.89 438.564C589.733 435.475 593.696 432.055 596.007 429.838Z"/><path fill="#DEF9FA" d="M265.026 997.328C267.971 996.96 275.822 999.348 276.653 1002.53L274.837 1002.99C271.831 1001.89 266.801 999.93 265.026 997.328Z"/><path fill="#DEF9FA" d="M470.912 463.753C474.102 463.315 478.989 462.925 482.186 463.53C483.951 463.863 483.664 464.05 484.588 465.584C480.585 466.061 474.107 466.398 470.912 463.753Z"/><path fill="#DEF9FA" d="M311.881 1009.73C315.165 1009.71 322.381 1010.32 324.635 1012.91C320.803 1013.89 314.021 1013.59 311.881 1009.73Z"/><path fill="#DEF9FA" d="M182.079 556.54L183.029 557.418L182.949 558.539C180.842 560.566 176.771 562.382 174.034 563.769C173.615 563.528 173.409 563.175 173.065 562.766C173.855 560.474 179.748 557.774 182.079 556.54Z"/><path fill="#DEF9FA" d="M703.997 275.658C707.21 277.648 708.517 283.693 707.79 287.204C704.861 285.321 703.111 278.887 703.997 275.658Z"/><path fill="#DEF9FA" d="M249.39 981.792C251.168 982.894 255.155 988.877 257.403 990.435C257.417 990.885 257.43 991.335 257.443 991.785C253.364 992.07 249.091 985.746 249.39 981.792Z"/><path fill="#DEF9FA" d="M235.086 672.619C239.006 672.297 244.626 676.465 246.161 679.834C242.789 679.712 236.864 675.32 235.086 672.619Z"/><path fill="#DEF9FA" d="M269.189 732.663C270.404 733.264 269.843 732.913 270.723 734.182C271.132 738.343 270.456 740.986 269.251 744.973L268.208 744.54C266.887 742.351 268.636 735.426 269.189 732.663Z"/><path fill="#DEF9FA" d="M309.764 925.126C310.893 925.224 310.344 925.077 311.328 925.852C310.198 928.15 304.608 929.604 301.921 930.547L300.349 930.214L300.461 929.245C302.697 927.64 307.042 926.172 309.764 925.126Z"/><path fill="#DEF9FA" d="M404.944 466.001C406.275 465.91 407.047 466.037 408.348 466.185L408.628 466.813C406.257 468.223 403.087 468.832 400.373 469.529C400.07 469.65 398.381 469.993 397.95 470.088L397.679 469.324L397.293 469.735L397.215 469.22C399.778 466.678 401.461 466.638 404.944 466.001Z"/><path fill="#DEF9FA" d="M268.871 813.786C271.121 815.425 276.179 820.748 276.602 823.492C272.717 822.938 268.374 817.632 268.871 813.786Z"/><path fill="#DEF9FA" d="M261.432 769.588C264.362 771.651 261.923 778.283 261.142 781.463C259.941 780.953 260.362 781.238 259.536 780.143C259.135 776.38 260.272 773.122 261.432 769.588Z"/><path fill="#DEF9FA" d="M454.508 462.571C456.433 462.514 456.742 462.379 458.359 463.258L458.349 463.993C456.48 465.434 455.107 465.096 452.674 465.043C449.114 464.773 447.162 464.332 443.648 463.54C447.84 462.83 450.224 462.718 454.508 462.571Z"/><path fill="#DEF9FA" d="M329.194 846.789C333.089 847.117 339.758 848.688 341.268 852.602C337.942 852.111 331.055 849.739 329.194 846.789Z"/><path fill="#DEF9FA" d="M332.251 915.142C333.542 915.116 333.052 915.052 334.273 915.582L334.087 916.369C331.712 918.298 328.254 919.623 325.399 920.881C324.187 921.255 324.786 921.209 323.58 920.844L323.881 919.887C326.779 917.61 328.909 916.733 332.251 915.142Z"/><path fill="#DEF9FA" d="M306.412 839.107C309.816 838.668 317.227 841.051 319.393 843.699C315.823 844.316 308.792 841.904 306.412 839.107Z"/><path fill="#DEF9FA" d="M249.467 961.135C250.583 961.643 250.074 961.301 250.819 962.418C250.359 965.573 248.682 969.545 247.522 972.626C244.326 970.668 248.089 963.7 249.467 961.135Z"/><path fill="#DEF9FA" d="M265.428 944.232L266.731 945.014L266.813 946.005C265.268 948.289 261.71 950.746 259.409 952.52C259.002 952.486 258.658 952.183 258.24 951.927C259.252 949.18 263.171 946.119 265.428 944.232Z"/><path fill="#DEF9FA" d="M387.401 1011.49C390.126 1011.41 395.463 1010.88 397.692 1011.65L397.7 1012.42L396.004 1013.33C393.614 1013.64 388.29 1014.9 386.591 1013.14L387.401 1011.49Z"/><path fill="#DEF9FA" d="M692.299 259.417C695.793 259.732 700.33 264.731 700.099 268.534C697.712 267.358 692.661 262.158 692.299 259.417Z"/><path fill="#DEF9FA" d="M287.596 1005.56C290.558 1005.12 297.993 1006.51 299.7 1009.14C296.348 1009.86 289.588 1008.61 287.596 1005.56Z"/><path fill="#DEF9FA" d="M361.343 1012.74C364.229 1012.58 370.406 1011.96 372.875 1013.19L373.05 1014.3C369.457 1014.79 362.953 1016.65 361.343 1012.74Z"/><path fill="#DEF9FA" d="M527.07 463.077C529.254 462.724 529.865 462.455 531.913 463.048L532.117 463.78C530.66 465.132 529.148 465.077 527.103 465.375C524.775 465.71 523.927 465.934 521.593 465.425L521.204 464.75C523.051 463.294 524.683 463.373 527.07 463.077Z"/><path fill="#DEF9FA" d="M554.668 457.044C556.02 456.849 556.026 456.716 557.218 457.305L556.854 458.206C553.952 459.971 551.895 460.374 548.629 461.27C547.459 461.608 547.539 461.572 546.35 461.266L546.623 460.357C549.392 458.488 551.483 458.022 554.668 457.044Z"/><path fill="#DEF9FA" d="M254.308 688.083C258.273 689.203 261.342 694.531 262.565 698.265L261.228 698.004C257.598 694.819 256.43 692.426 254.308 688.083Z"/><path fill="#DEF9FA" d="M705.565 296.068C706.589 296.486 706.547 296.59 707.282 297.449C707.451 300.928 706.226 303.631 704.996 306.842L703.703 306.237C702.902 303.994 704.846 298.562 705.565 296.068Z"/><path fill="#DEF9FA" d="M350.823 858.949C354.486 859.893 358.488 864.772 359.029 868.459C356.005 866.702 351.353 862.54 350.823 858.949Z"/><path fill="#DEF9FA" d="M608.165 409.292C608.453 409.451 608.888 409.925 609.152 410.18C608.603 413.847 606.577 417.256 604.697 420.396C603.803 419.861 604.104 420.085 603.438 419.252C604.22 415.551 606.19 412.484 608.165 409.292Z"/><path fill="#DEF9FA" d="M284.699 829.612C287.96 829.658 294.416 832.969 296.398 835.557C292.771 835.845 286.534 832.767 284.699 829.612Z"/><path fill="#DEF9FA" d="M657.442 342.7L658.094 343.641C657.019 346.072 651.92 348.611 649.586 349.907L648.873 348.914C649.772 346.357 655.014 343.981 657.442 342.7Z"/><path fill="#DEF9FA" d="M335.996 1012.76C339.109 1012.49 345.496 1011.49 347.861 1013.14L347.941 1014.49C344.799 1014.64 339.628 1014.7 336.653 1013.91L335.996 1012.76Z"/><path fill="#DEF9FA" d="M266.481 747.878C267.584 748.442 267.523 748.377 268.125 749.459C268.203 752.263 266.755 755.763 265.823 758.494L264.794 757.58C263.921 754.535 265.459 750.829 266.481 747.878Z"/><path fill="#DEF9FA" d="M615.683 388.955L616.067 389.35C617.097 391.989 614.372 397.878 613.332 400.507C610.649 398.286 614.193 391.336 615.683 388.955Z"/><path fill="#DEF9FA" d="M517.153 189.886C519.923 190.741 525.048 194.269 526.33 196.946C523.173 196.905 517.416 193.235 517.153 189.886Z"/><path fill="#DEF9FA" d="M675.577 332.766L676.24 333.477L675.971 334.675C673.941 336.67 670.324 338.304 667.705 339.656C667.168 338.624 667.33 339.185 667.526 337.886C669.408 335.886 673.064 334.137 675.577 332.766Z"/><path fill="#DEF9FA" d="M543.724 220.171C546.142 221.36 549.397 227.277 550.829 229.883L549.713 230.005C546.922 228.943 543.725 223.16 543.724 220.171Z"/><path fill="#DEF9FA" d="M641.398 252.031C642.026 252.124 642.208 252.343 642.817 252.7L642.452 253.529C639.938 254.873 636.976 255.395 634.181 256.057L632.642 255.679L632.904 254.77C635.54 253.324 638.47 252.766 641.398 252.031Z"/><path fill="#DEF9FA" d="M673.749 250.864C677.368 250.481 682.695 251.763 684.261 255.344C681.348 255.555 675.741 252.922 673.749 250.864Z"/><path fill="#DEF9FA" d="M570.936 252.511C573.807 253.096 579.187 255.62 580.327 258.451C577.449 258.355 571.261 255.935 570.936 252.511Z"/><path fill="#DEF9FA" d="M531.772 203.642C535.488 204.36 538.26 209.304 539.98 212.407C536.05 211.923 533.508 206.831 531.772 203.642Z"/><path fill="#DEF9FA" d="M623.711 369.927L625.246 370.417C625.37 372.241 622.179 377.374 621.156 379.21L620.224 379.42C619.555 376.713 622.326 372.496 623.711 369.927Z"/><path fill="#DEF9FA" d="M618.977 257.876C620.387 257.623 620.285 257.633 621.66 258.052L621.556 258.75C619.105 260.342 617.184 260.601 614.341 261.254C613.854 261.319 612.734 261.24 612.188 261.22L612.074 260.46C614.448 258.868 616.216 258.583 618.977 257.876Z"/><path fill="#DEF9FA" d="M697.122 315.581L698.363 316.565C698.015 318.898 694.707 321.347 692.813 323.055L691.948 322.843L691.627 322.03C692.863 319.546 695.126 317.596 697.122 315.581Z"/><path fill="#DEF9FA" d="M639.226 354.434C639.719 355.246 639.511 354.847 639.509 356C637.655 358.616 634.601 360.885 632.081 362.958C631.433 362.044 631.642 362.56 631.724 361.301C633.596 358.785 636.739 356.457 639.226 354.434Z"/><path fill="#DEF9FA" d="M555.253 238.391C558.238 239.093 562.31 244.059 562.755 247.091C559.919 245.342 555.917 241.726 555.253 238.391Z"/><path fill="#DEF9FA" d="M590.262 260.431C591.61 260.358 592.958 260.293 594.306 260.238C597.266 260.121 598.816 259.792 600.871 261.692C597.886 262.149 593.412 262.7 590.632 261.557L590.262 260.431Z"/><path fill="#DEF9FA" d="M656.557 249.22C658.785 249.019 660.765 248.66 662.604 250.074C661.597 251.117 661.604 250.776 659.695 250.965C657.538 251.241 655.314 251.696 653.535 250.379C654.728 249.259 654.638 249.589 656.557 249.22Z"/><defs><linearGradient id="gradient_0" gradientUnits="userSpaceOnUse" x1="272.13876" y1="376.30765" x2="593.34436" y2="715.24408"><stop offset="0" stop-color="#111517"/><stop offset="1" stop-color="#232E32"/></linearGradient></defs><path fill="url(#gradient_0)" d="M273.976 966.944L274.469 966.3C291.626 944.107 353.113 941.385 378.353 905.928C384.748 896.945 387.52 888.279 386.143 877.277C384.403 863.371 377.216 853.323 366.239 844.928C356.449 837.439 345.247 832.734 333.844 828.287C314.872 820.89 288.373 814.747 285.204 790.739C283.752 779.741 288.296 767.895 290.772 757.285C292.787 748.652 294.949 739.605 295.314 730.744C296.393 704.559 283.727 679.073 263.162 663.074C256.411 657.822 248.72 652.379 241.172 648.379C223.194 638.85 181.635 624.886 178.962 602.193C178.298 596.558 180.038 591.287 183.591 586.907C188.787 580.502 196.731 577.397 204.776 576.631C218.74 575.301 233.616 581.446 246.973 585.045C286.586 595.717 322.692 586.388 349.558 554.483C378.365 520.273 374.964 492.031 428.61 487.271C451.786 485.215 474.352 487.996 497.464 488.284C538.189 488.793 584.812 480.417 612.397 447.396C622.308 435.532 628.01 422.311 632.688 407.746C635.777 398.126 638.336 387.866 644.478 379.643C651.929 369.667 663.865 364.074 674.481 358.136C703.559 341.871 731.73 321.567 728.208 283.997C726.784 268.81 719.15 255.491 707.36 245.929C691.493 233.06 671.17 228.439 651.094 230.69C628.581 233.215 601.138 250.871 580.754 234.921C570.804 227.135 565.845 215.675 559.178 205.321C553.785 196.946 547.117 188.614 539.588 182.099C531.963 175.502 523.326 169.947 513.821 166.491C509.188 164.807 502.776 163.739 498.751 161.019L498.735 160.298C506.556 158.783 525.414 168.488 531.798 172.816C542.222 179.883 552.784 190.824 559.561 201.243C573.424 222.553 579.976 244.361 610.783 238.004C619.518 236.201 628.339 232.801 636.997 230.628C659.807 224.904 683.725 226.623 703.685 239.951C717.69 249.162 727.376 263.645 730.539 280.105C734.169 298.968 730.755 318.704 719.998 334.765C702.988 360.735 671.183 367.541 649.719 387.617C641.555 395.253 637.478 413.705 634.079 424.15C613.788 486.497 551.157 503.82 491.86 500.774C461.316 499.205 423.858 494.681 395.812 509.145C380.583 517.193 370.433 539.542 361.301 553.731C346.032 577.459 324.081 595.896 295.661 600.893C281.372 603.448 272.004 602.358 257.242 600.066C235.196 596.644 202.82 578.326 185.165 599.535C184.176 600.723 183.003 603.394 182.388 604.828C197.438 639.345 265.244 638.344 290.49 692.898C299.682 712.762 300.773 737.793 296.336 759.053C294.126 769.639 287.017 787.159 290.029 797.333C293.146 807.864 306.13 814.859 315.575 818.567C341.036 828.562 373.605 837.091 385.848 864.43C390.972 875.871 390.807 895.323 386.185 906.965C377.25 929.473 353.167 941.819 332.105 950.688C313.924 958.344 291.626 963.884 276.498 976.973L275.865 976.283L274.309 978.214C271.45 973.454 271.494 971.904 273.976 966.944Z"/><path fill="#386678" d="M275.076 971.331C280.705 960.911 295.005 955.947 305.515 951.661C329.744 941.779 357.748 933.458 375.887 913.534C379.133 909.968 382.132 905.771 384.952 901.878C373.798 935.426 333.82 946.504 304.639 958.239C297.649 961.05 281.438 968.586 275.788 973.463L275.202 973.092L275.076 971.331Z"/><defs><linearGradient id="gradient_1" gradientUnits="userSpaceOnUse" x1="273.07043" y1="972.66187" x2="275.41806" y2="972.64697"><stop offset="0" stop-color="#1E2122"/><stop offset="1" stop-color="#494E4F"/></linearGradient></defs><path fill="url(#gradient_1)" d="M273.976 966.944C274.29 968.614 274.425 969.77 275.076 971.331L275.202 973.092L275.788 973.463L275.865 976.283L274.309 978.214C271.45 973.454 271.494 971.904 273.976 966.944Z"/><path fill="#386678" d="M621.319 440.218C622.044 440.589 622.768 440.903 623.409 441.388C599.473 486.243 548.999 498.931 501.563 498.179C468.451 497.655 428.06 490.771 396.747 505.495C376.626 515.443 367.93 539.684 355.854 557.012C331.288 592.265 294.335 607.228 252.45 596.391C232.544 591.24 206.601 580.313 187.688 593.074C185.782 594.36 184.864 595.982 182.524 597.03C182.291 595.651 183.58 592.929 184.364 591.694C198.963 568.43 231.789 584.988 252.612 589.569C298.323 599.626 337.706 581.826 362.293 542.328C372.911 526.35 382.81 503.033 402.252 496.022C431.397 485.512 466.9 490.58 497.463 491.19C539.155 492.023 584.99 483.461 613.516 450.344C616.136 447.303 619.525 443.731 621.319 440.218Z"/><path fill="#386678" d="M723.479 323.238C723.419 324.59 719.462 330.343 718.57 331.578C708.497 345.519 695.847 355.659 680.743 363.738C671.221 368.832 662.119 373.495 653.601 380.246C648.326 384.428 645.149 389.21 641.156 394.524C643.58 372.388 679.457 361.207 696.002 348.641C708.465 339.175 710.508 337.885 720.773 325.031C721.988 324.716 722.533 324.069 723.479 323.238Z"/><path fill="#3D5661" d="M621.319 440.218C622.405 437.645 624.278 435.646 625.952 433.363L627.198 433.804L625.951 433.289L626.826 432.602L627.11 433.09C626.131 436.33 624.968 438.376 623.409 441.388C622.768 440.903 622.044 440.589 621.319 440.218Z"/><path fill="#386678" d="M498.41 204.101C527.489 211.412 529.12 264.734 579.302 278.576C591.632 281.978 605.126 281.857 617.683 279.647C635.86 276.448 669.851 259.319 682.679 280.459C685.462 285.125 686.234 290.719 684.818 295.964C684.689 296.383 684.56 296.802 684.432 297.222C675.883 316.871 643.237 325.589 627.191 338.875C617.112 347.22 608.319 354.636 602.358 366.809C587.717 396.707 586.768 421.624 551.065 435.585C544.165 438.209 536.974 439.992 529.647 440.896L528.956 440.24C529.965 438.242 532.099 439.834 535.278 437.21C599.183 424.046 579.436 377.862 617.006 343.962C622.364 339.129 628.164 334.81 634.329 331.06C648.265 322.562 670.468 313.008 680.298 300.326C681.408 298.873 682.793 295.17 681.977 293.352C671.983 271.103 637.252 286.84 622.355 290.193C596.061 296.11 577.069 292.605 555.099 278.88C548.923 274.704 543.948 269.49 539.102 263.908C535.441 260.815 516.754 230.236 512.048 223.771C508.152 220.065 499.733 215.721 498.385 213.215C498.666 211.388 498.287 206.672 498.41 204.101Z"/><defs><linearGradient id="gradient_2" gradientUnits="userSpaceOnUse" x1="618.85986" y1="377.50311" x2="542.20789" y2="296.58063"><stop offset="0" stop-color="#070503"/><stop offset="1" stop-color="#1F323F"/></linearGradient></defs><path fill="url(#gradient_2)" d="M558.041 277.252C579.526 290.42 599.577 293.045 623.903 286.962C641.348 282.599 668.872 270.438 682.395 288.708L682.793 289.985C683.962 289.539 683.429 289.858 684.241 288.787C684.224 291.42 684.098 294.684 684.432 297.222C675.883 316.871 643.237 325.589 627.191 338.875C617.112 347.22 608.319 354.636 602.358 366.809C587.717 396.707 586.768 421.624 551.065 435.585C544.165 438.209 536.974 439.992 529.647 440.896L528.956 440.24C529.965 438.242 532.099 439.834 535.278 437.21C599.183 424.046 579.436 377.862 617.006 343.962C622.364 339.129 628.164 334.81 634.329 331.06C648.265 322.562 670.468 313.008 680.298 300.326C681.408 298.873 682.793 295.17 681.977 293.352C671.983 271.103 637.252 286.84 622.355 290.193C596.061 296.11 577.069 292.605 555.099 278.88L558.041 277.252Z"/><path fill="#252E31" d="M498.41 204.101C527.489 211.412 529.12 264.734 579.302 278.576C591.632 281.978 605.126 281.857 617.683 279.647C635.86 276.448 669.851 259.319 682.679 280.459C685.462 285.125 686.234 290.719 684.818 295.964C684.689 296.383 684.56 296.802 684.432 297.222C684.098 294.684 684.224 291.42 684.241 288.787C683.429 289.858 683.962 289.539 682.793 289.985L682.395 288.708C682.32 283.703 678.591 278.587 674.323 276.311C659.522 268.418 640.824 276.982 625.975 280.806C590.906 289.837 556.085 280.439 534.922 249.842C526.922 238.887 520.006 224.088 510.702 214.616C509.65 213.545 500.984 208.321 499.087 207.163L498.41 204.101Z"/><path fill="#252E31" d="M539.102 263.908C542.629 264.903 551.658 273.434 558.041 277.252L555.099 278.88C548.923 274.704 543.948 269.49 539.102 263.908Z"/><path fill="#252E31" d="M498.385 213.215C503.387 212.319 511.924 218.436 512.048 223.771C508.152 220.065 499.733 215.721 498.385 213.215Z"/><path fill="#386678" d="M225.372 986.473C234.273 1003.15 245.6 1011.54 263.224 1017.98C309.06 1034.75 361.836 1035.21 409.765 1029.54C409.521 1032.57 409.243 1038.8 409.845 1041.73C406.561 1042.68 390.339 1043.92 386.791 1044.09C349.712 1045.83 310.209 1045.09 274.464 1034.36C253.624 1028.1 234.755 1019.15 224.101 999.231C223.642 998.294 223.191 997.12 222.78 996.141C225.377 994.564 221.319 991.148 225.372 986.473Z"/><defs><linearGradient id="gradient_3" gradientUnits="userSpaceOnUse" x1="315.07608" y1="1033.0554" x2="317.02008" y2="994.22351"><stop offset="0" stop-color="#282C2D"/><stop offset="1" stop-color="#31444A"/></linearGradient></defs><path fill="url(#gradient_3)" d="M225.372 986.473C234.273 1003.15 245.6 1011.54 263.224 1017.98C309.06 1034.75 361.836 1035.21 409.765 1029.54L408.928 1032.15C406.383 1033.88 398.899 1034.11 395.779 1034.32C348.329 1037.56 298.298 1036.47 253.875 1017.73C248.072 1015.28 241.251 1010.32 235.779 1006.67L236.086 1007.29L235.768 1007.47C234.372 1006.58 233.992 1006.17 232.787 1005.01C229.383 1002.38 227.748 1000.28 225.752 996.513L225.341 995.73C225.219 997.455 225.064 997.794 224.101 999.231C223.642 998.294 223.191 997.12 222.78 996.141C225.377 994.564 221.319 991.148 225.372 986.473Z"/><defs><linearGradient id="gradient_4" gradientUnits="userSpaceOnUse" x1="315.62939" y1="1042.2046" x2="317.08072" y2="1001.7155"><stop offset="0" stop-color="#121E21"/><stop offset="1" stop-color="#2C4554"/></linearGradient></defs><path fill="url(#gradient_4)" d="M224.101 999.231C225.064 997.794 225.219 997.455 225.341 995.73L225.752 996.513C227.748 1000.28 229.383 1002.38 232.787 1005.01C233.592 1012.77 238.5 1012.7 244.109 1016.59C247.642 1019.04 251.064 1021.71 254.945 1023.61C295.135 1042.17 346.148 1043.57 389.912 1040.88C394.728 1040.59 403.611 1039.3 408.607 1039.49C409.1 1039.51 409.565 1041.06 409.845 1041.73C406.561 1042.68 390.339 1043.92 386.791 1044.09C349.712 1045.83 310.209 1045.09 274.464 1034.36C253.624 1028.1 234.755 1019.15 224.101 999.231Z"/><path fill="#386678" d="M126.249 618.192C127.245 617.112 127.192 616.586 127.426 615.135L127.502 614.633L128.216 614.224L129.101 616.419L129.824 615.386C132.125 621.907 134.46 628.846 138.052 634.856C149.982 654.825 169.583 666.751 189.905 676.74C207.922 685.596 235.935 695.194 243.388 715.682C244.266 718.096 244.689 720.494 245.038 722.994C245.33 755.378 227.59 769.759 238.798 807.99L238.002 808.164C237.615 806.428 234.288 805.532 232.556 804.737C232.224 793.178 231.892 784.434 232.893 772.909C233.934 760.934 243.813 737.851 240.704 727.945C233.217 704.087 194.875 694.666 175.038 682.797C150.644 668.202 135.745 654.596 127.831 627.022C127.168 623.985 126.727 621.263 126.249 618.192Z"/><path fill="#252E31" d="M127.831 627.022L130.148 626.33L131.227 626.959C131.39 627.862 131.58 628.72 131.643 629.633C130.222 637.815 145.198 656.121 150.942 661.606C160.059 670.312 171.643 677.699 182.839 683.413C204.935 695.152 226.746 699.302 241.139 721.395C241.796 723.438 241.43 723.361 242.798 724.593C244.261 724.256 243.823 724.331 245.038 722.994C245.33 755.378 227.59 769.759 238.798 807.99L238.002 808.164C237.615 806.428 234.288 805.532 232.556 804.737C232.224 793.178 231.892 784.434 232.893 772.909C233.934 760.934 243.813 737.851 240.704 727.945C233.217 704.087 194.875 694.666 175.038 682.797C150.644 668.202 135.745 654.596 127.831 627.022Z"/><defs><linearGradient id="gradient_5" gradientUnits="userSpaceOnUse" x1="194.98442" y1="649.55817" x2="175.25642" y2="686.59265"><stop offset="0" stop-color="#0E1314"/><stop offset="1" stop-color="#3C484B"/></linearGradient></defs><path fill="url(#gradient_5)" d="M126.249 618.192C127.245 617.112 127.192 616.586 127.426 615.135L127.502 614.633L128.216 614.224L129.101 616.419L129.824 615.386C132.125 621.907 134.46 628.846 138.052 634.856C149.982 654.825 169.583 666.751 189.905 676.74C207.922 685.596 235.935 695.194 243.388 715.682C244.266 718.096 244.689 720.494 245.038 722.994C243.823 724.331 244.261 724.256 242.798 724.593C241.43 723.361 241.796 723.438 241.139 721.395C241.509 719.222 240.647 716.817 239.7 714.827C230.718 696.927 206.313 688.276 189.372 680.205C163.008 667.645 146.024 655.574 131.643 629.633C131.58 628.72 131.39 627.862 131.227 626.959L130.148 626.33L127.831 627.022C127.168 623.985 126.727 621.263 126.249 618.192Z"/><defs><linearGradient id="gradient_6" gradientUnits="userSpaceOnUse" x1="274.39954" y1="888.27283" x2="291.17563" y2="818.80573"><stop offset="0" stop-color="#172026"/><stop offset="1" stop-color="#384749"/></linearGradient></defs><path fill="url(#gradient_6)" d="M232.556 804.737C234.288 805.532 237.615 806.428 238.002 808.164L238.798 807.99C241.171 812.999 241.769 815.682 245.019 820.836C256.061 839.007 272.915 847.893 292.16 855.028C305.494 859.972 328.762 864.059 336.687 876.914C342.749 886.747 327.814 896.82 320.498 900.774C320.367 900.183 319.72 899.008 319.421 898.403C324.859 895.338 330.264 891.377 334.004 886.355C324.332 875.478 303.882 871.81 290.262 866.855C258.526 855.31 239.69 839.005 232.556 804.737Z"/><path fill="#386678" d="M243.881 830.117C247.573 832.138 254.912 842.875 258.236 843.878L258.532 842.193C254.982 838.905 251.155 835.286 247.967 831.65L248.16 830.997C252.379 835.049 257.217 839.994 261.803 843.518C279.282 856.949 303.106 859.986 322.208 868.758C325.667 870.557 335.903 877.164 334.611 881.544L333.796 881.468C322.205 873.32 319.975 873.293 306.077 868.749C276.529 859.087 263.569 854.789 243.881 830.117Z"/><path fill="#050505" d="M405.57 441.021C407.045 442.112 407.816 441.565 410.253 441.207C410.696 441.141 411.139 441.073 411.581 441.002L411.354 441.706C408.775 442.384 406.87 442.117 404.791 443.605C377.164 448.082 352.443 463.34 336.057 486.028C330.735 493.257 322.881 505.749 318.648 513.588C296.992 553.699 269.555 543.559 234.14 533.43C180.723 518.154 120.191 551.626 129.491 613.391C129.589 614.058 129.7 614.723 129.824 615.386L129.101 616.419L128.216 614.224L127.502 614.633L127.426 615.135C127.192 616.586 127.245 617.112 126.249 618.192C124.534 595.197 126.03 575.366 141.017 556.777C163.822 528.392 201.67 522.13 235.348 530.848C257.697 536.633 284.929 548.945 303.602 529.08C317.47 514.327 324.411 495.698 337.196 480.063C354.355 459.081 378.283 443.993 405.57 441.021Z"/><path fill="#050505" d="M319.421 898.403C319.72 899.008 320.367 900.183 320.498 900.774C288.095 916.928 207.492 933.842 225.372 986.473C221.319 991.148 225.377 994.564 222.78 996.141C219.191 988.859 219.14 967.459 221.924 960.341C236.187 923.871 287.715 913.616 319.421 898.403Z"/><path fill="#252E31" d="M535.278 437.21C532.099 439.834 529.965 438.242 528.956 440.24L529.647 440.896C507.588 446.702 470.311 440.668 446.568 440.515C429.66 440.407 420.208 442.649 404.791 443.605C406.87 442.117 408.775 442.384 411.354 441.706L411.581 441.002C411.139 441.073 410.696 441.141 410.253 441.207C407.816 441.565 407.045 442.112 405.57 441.021C407.045 440.337 413.106 439.605 414.949 439.384C444.205 435.878 472.69 439.583 501.825 440.433C511.928 440.727 525.33 438.983 535.278 437.21Z"/><defs><linearGradient id="gradient_7" gradientUnits="userSpaceOnUse" x1="334.8573" y1="995.75403" x2="338.43921" y2="978.68561"><stop offset="0" stop-color="#100D0E"/><stop offset="1" stop-color="#3C3B36"/></linearGradient></defs><path fill="url(#gradient_7)" d="M275.865 976.283L276.498 976.973C301.098 992.451 344.499 993.439 373.141 992.617C381.112 992.388 389.467 991.059 396.943 990.838C399.026 991.477 399.263 991.452 400.792 992.902C392.407 993.933 381.681 994.969 373.444 995.427C350.785 996.686 291.534 994.183 274.309 978.214L275.865 976.283Z"/><path fill="#050505" d="M396.943 990.838C401.357 990.158 404.524 989.433 408.985 990.146L409.208 990.32C407.952 992.735 403.396 992.69 400.792 992.902C399.263 991.452 399.026 991.477 396.943 990.838Z"/></svg>
