<?xml version="1.0" encoding="utf-8" ?><svg xmlns="http://www.w3.org/2000/svg" xmlns:xlink="http://www.w3.org/1999/xlink" width="1472" height="704" viewBox="0 0 1472 704"><path fill="#2B9AC6" d="M473.988 348.112L474.504 350.467C476.929 351.717 478.11 351.193 481.147 351.085C484.159 351.286 484.271 350.788 486.197 352.356C486.311 353.471 486.473 354.729 486.518 355.838C486.567 367.325 487.046 381.731 486.585 392.978C486.585 397.351 486.276 418.556 486.869 421.685C488.839 422.545 491.456 421.933 493.661 421.647C494.149 421.803 494.748 421.995 495.456 422.221C499.673 428.094 503.72 435.4 508.156 440.973L508.263 436.874L510.745 435.327C512.452 438.622 517.54 448.742 519.896 450.922L520.15 449.599C521.712 447.821 524.774 446.945 527.074 446.072L531.293 451.129C535.076 453.564 546.761 461.144 549.815 464.03C546.972 466.072 541.596 469.031 542.225 472.951L541.354 473.372L543.978 480.101C544.72 481.075 545.428 482.138 546.324 482.94C549.33 486.206 575.274 511.876 575.789 512.902C584.987 521.216 595.467 530.602 604.342 539.192L601.823 539.248C597.739 545.592 605.103 557.995 600.91 561.74C598.256 562.008 595.952 561.874 594.048 563.604C591.097 563.942 588.117 564.308 585.164 564.596C580.456 564.706 576.53 565.081 571.844 565.554L573.93 568.729L576.003 572.372C574.158 572.245 573.287 571.804 572.195 572.987C569.032 576.413 567.304 578.796 563.643 581.827C559.015 579.287 548.716 567.834 542.281 566.048L546.465 578.141C526.892 558.309 509.341 538.756 489.232 519.254L485.746 516.068C485.88 518.09 486.415 521.77 485.538 523.343C484.1 521.513 483.456 519.215 482.562 517.094C478.992 508.627 474.646 500.573 470.343 492.46C469.52 506.739 471.179 533.934 471.839 548.66L436.35 465.195L432.605 456.373L425.153 437.345C428.776 428.409 433.023 418.274 437.279 409.705C437.536 407.555 440.852 400.223 441.831 397.718L442.865 397.469C444.625 391.391 453.389 372.569 456.814 367.418C462.708 361.784 468.15 354.169 473.988 348.112Z"/><defs><linearGradient id="gradient_0" gradientUnits="userSpaceOnUse" x1="607.39197" y1="547.18713" x2="552.92389" y2="524.1319"><stop offset="0" stop-color="#DE5B80"/><stop offset="1" stop-color="#863C8F"/></linearGradient></defs><path fill="url(#gradient_0)" d="M510.745 435.327C512.452 438.622 517.54 448.742 519.896 450.922L520.15 449.599C521.712 447.821 524.774 446.945 527.074 446.072L531.293 451.129C535.076 453.564 546.761 461.144 549.815 464.03C546.972 466.072 541.596 469.031 542.225 472.951L541.354 473.372L543.978 480.101C544.72 481.075 545.428 482.138 546.324 482.94C549.33 486.206 575.274 511.876 575.789 512.902C584.987 521.216 595.467 530.602 604.342 539.192L601.823 539.248C597.739 545.592 605.103 557.995 600.91 561.74C598.256 562.008 595.952 561.874 594.048 563.604C591.097 563.942 588.117 564.308 585.164 564.596C580.456 564.706 576.53 565.081 571.844 565.554C569.783 561.491 566.229 556.45 563.29 552.964C563.209 551.792 562.696 549.904 562.416 548.691C554.173 537.425 548.158 519.759 540.807 507.574C537.38 493.285 509.427 446.229 510.745 435.327Z"/><defs><linearGradient id="gradient_1" gradientUnits="userSpaceOnUse" x1="509.46466" y1="485.48602" x2="570.29004" y2="496.20224"><stop offset="0" stop-color="#37165F"/><stop offset="1" stop-color="#843E91"/></linearGradient></defs><path fill="url(#gradient_1)" d="M510.745 435.327C512.452 438.622 517.54 448.742 519.896 450.922L520.15 449.599C521.712 447.821 524.774 446.945 527.074 446.072L531.293 451.129C535.076 453.564 546.761 461.144 549.815 464.03C546.972 466.072 541.596 469.031 542.225 472.951L541.354 473.372L543.978 480.101C544.72 481.075 545.428 482.138 546.324 482.94C549.33 486.206 575.274 511.876 575.789 512.902C572.808 513.097 568.303 507.567 566.043 505.219L557.291 513.302C559.519 517.938 563.69 526.594 566.375 531.051C563.267 531.585 558.167 532.029 555.959 534.065C555.711 537.027 561.716 541.903 562.416 548.691C554.173 537.425 548.158 519.759 540.807 507.574C537.38 493.285 509.427 446.229 510.745 435.327Z"/><path fill="#2B9AC6" d="M527.074 446.072L531.293 451.129C535.076 453.564 546.761 461.144 549.815 464.03C546.972 466.072 541.596 469.031 542.225 472.951L541.354 473.372L543.978 480.101C538.336 476.365 524.245 456.993 519.896 450.922L520.15 449.599C521.712 447.821 524.774 446.945 527.074 446.072Z"/><path fill="#9E4286" d="M531.293 451.129C535.076 453.564 546.761 461.144 549.815 464.03C546.972 466.072 541.596 469.031 542.225 472.951L541.354 473.372C538.276 468.628 533.646 456.869 531.293 451.129Z"/><path fill="#9E4286" d="M566.375 531.051C568.449 534.106 585.098 563.204 585.164 564.596C580.456 564.706 576.53 565.081 571.844 565.554C569.783 561.491 566.229 556.45 563.29 552.964C563.209 551.792 562.696 549.904 562.416 548.691C561.716 541.903 555.711 537.027 555.959 534.065C558.167 532.029 563.267 531.585 566.375 531.051Z"/><path fill="#315CBD" d="M442.865 397.469C445.886 401.338 446.434 411.647 447.586 416.753C448.46 418.982 449.627 421.589 449.907 423.928L450.959 429.555L450.65 430.155C456.257 440.01 464.534 478.01 469.969 481.73C469.947 484.417 469.689 490.107 470.343 492.46C469.52 506.739 471.179 533.934 471.839 548.66L436.35 465.195L432.605 456.373L425.153 437.345C428.776 428.409 433.023 418.274 437.279 409.705C437.536 407.555 440.852 400.223 441.831 397.718L442.865 397.469Z"/><path fill="#213C96" d="M442.865 397.469C445.886 401.338 446.434 411.647 447.586 416.753C448.46 418.982 449.627 421.589 449.907 423.928L448.252 422.82C443.45 427.068 439.042 443.278 434.169 449.214C434.193 437.997 437.764 417.145 437.279 409.705C437.536 407.555 440.852 400.223 441.831 397.718L442.865 397.469Z"/><defs><linearGradient id="gradient_2" gradientUnits="userSpaceOnUse" x1="451.68878" y1="362.74796" x2="475.56693" y2="406.9249"><stop offset="0" stop-color="#040C33"/><stop offset="1" stop-color="#1A2C84"/></linearGradient></defs><path fill="url(#gradient_2)" d="M473.988 348.112L474.504 350.467C476.929 351.717 478.11 351.193 481.147 351.085C484.159 351.286 484.271 350.788 486.197 352.356C486.311 353.471 486.473 354.729 486.518 355.838C486.567 367.325 487.046 381.731 486.585 392.978L485.385 392.598C484.642 394.584 485.077 397.195 484.194 398.319C481.892 401.248 479.206 403.916 477.318 407.154L476.018 406.968C474.22 403.575 476.593 401.694 475.223 396.535C475.151 394.819 475.816 387.405 475.962 385.226C474.642 389.677 475.048 394.196 473.71 396.019C470.934 396.577 464.705 398.15 462.522 396.78C459.024 402.406 456.4 413.867 453.916 419.578C449.748 419.671 450.207 419.498 447.586 416.753C446.434 411.647 445.886 401.338 442.865 397.469C444.625 391.391 453.389 372.569 456.814 367.418C462.708 361.784 468.15 354.169 473.988 348.112Z"/><path fill="#145072" d="M486.518 355.838C486.567 367.325 487.046 381.731 486.585 392.978L485.385 392.598C484.642 394.584 485.077 397.195 484.194 398.319C481.892 401.248 479.206 403.916 477.318 407.154L476.018 406.968C474.22 403.575 476.593 401.694 475.223 396.535C475.151 394.819 475.816 387.405 475.962 385.226C476.971 383.468 475.875 381.077 477.092 378.083C479.633 376.661 486.259 359.442 486.518 355.838Z"/><path fill="#2B9AC6" d="M481.147 351.085C484.159 351.286 484.271 350.788 486.197 352.356C486.311 353.471 486.473 354.729 486.518 355.838C486.259 359.442 479.633 376.661 477.092 378.083C477.916 369.709 479.657 359.371 481.147 351.085Z"/><defs><linearGradient id="gradient_3" gradientUnits="userSpaceOnUse" x1="510.73694" y1="526.70728" x2="577.633" y2="561.83759"><stop offset="0" stop-color="#855DB9"/><stop offset="1" stop-color="#C99AE4"/></linearGradient></defs><path fill="url(#gradient_3)" d="M517.903 501.358C520.486 504.221 526.891 511.698 529.444 513.948C530.101 512.85 529.891 513.476 529.718 511.934C531.451 507.662 532.197 505.867 535.971 503.273C539.486 503.478 536.813 505.695 540.807 507.574C548.158 519.759 554.173 537.425 562.416 548.691C562.696 549.904 563.209 551.792 563.29 552.964C566.229 556.45 569.783 561.491 571.844 565.554L573.93 568.729L576.003 572.372C574.158 572.245 573.287 571.804 572.195 572.987C569.032 576.413 567.304 578.796 563.643 581.827C559.015 579.287 548.716 567.834 542.281 566.048C541.878 564.326 535.296 548.167 534.249 545.658C529.544 534.389 525.487 522.249 520.76 511.163C519.669 507.273 518.708 505.854 517.903 501.358Z"/><path fill="#2E2680" d="M529.444 513.948C530.101 512.85 529.891 513.476 529.718 511.934C531.451 507.662 532.197 505.867 535.971 503.273C539.486 503.478 536.813 505.695 540.807 507.574C548.158 519.759 554.173 537.425 562.416 548.691C562.696 549.904 563.209 551.792 563.29 552.964C553.712 542.728 537.891 524.588 529.444 513.948Z"/><defs><linearGradient id="gradient_4" gradientUnits="userSpaceOnUse" x1="479.86755" y1="512.52795" x2="553.15686" y2="559.76831"><stop offset="0" stop-color="#30C2E0"/><stop offset="1" stop-color="#54F9FD"/></linearGradient></defs><path fill="url(#gradient_4)" d="M488.47 494.99C494.07 499.958 498.954 504.271 504.911 508.842C509.154 512.097 519.163 519.341 522.681 523.118L523.314 522.539C522.705 518.519 519.754 512.822 520.76 511.163C525.487 522.249 529.544 534.389 534.249 545.658C535.296 548.167 541.878 564.326 542.281 566.048L546.465 578.141C526.892 558.309 509.341 538.756 489.232 519.254C489.482 513.257 488.672 501.662 488.47 494.99Z"/><defs><linearGradient id="gradient_5" gradientUnits="userSpaceOnUse" x1="497.56281" y1="463.84354" x2="543.97772" y2="483.75787"><stop offset="0" stop-color="#090A1C"/><stop offset="1" stop-color="#162273"/></linearGradient></defs><path fill="url(#gradient_5)" d="M493.661 421.647C494.149 421.803 494.748 421.995 495.456 422.221C499.673 428.094 503.72 435.4 508.156 440.973L508.263 436.874L510.745 435.327C509.427 446.229 537.38 493.285 540.807 507.574C536.813 505.695 539.486 503.478 535.971 503.273C532.197 505.867 531.451 507.662 529.718 511.934C529.891 513.476 530.101 512.85 529.444 513.948C526.891 511.698 520.486 504.221 517.903 501.358C514.273 496.037 507.253 476.279 507.487 469.039C504.694 465.344 501.085 452.932 499.288 447.791C498.699 441.213 493.808 431.342 493.661 421.647Z"/><path fill="#2E53B1" d="M493.661 421.647C494.149 421.803 494.748 421.995 495.456 422.221C499.673 428.094 503.72 435.4 508.156 440.973C506.935 449.23 508.097 460.427 507.487 469.039C504.694 465.344 501.085 452.932 499.288 447.791C498.699 441.213 493.808 431.342 493.661 421.647Z"/><defs><linearGradient id="gradient_6" gradientUnits="userSpaceOnUse" x1="459.48636" y1="397.65802" x2="476.08258" y2="476.479"><stop offset="0" stop-color="#142170"/><stop offset="1" stop-color="#2558B9"/></linearGradient></defs><path fill="url(#gradient_6)" d="M453.916 419.578C456.4 413.867 459.024 402.406 462.522 396.78C464.705 398.15 470.934 396.577 473.71 396.019C475.048 394.196 474.642 389.677 475.962 385.226C475.816 387.405 475.151 394.819 475.223 396.535C472.672 414.37 469.369 457.468 470.074 476.297L469.969 481.73C464.534 478.01 456.257 440.01 450.65 430.155L450.959 429.555L449.907 423.928C449.627 421.589 448.46 418.982 447.586 416.753C450.207 419.498 449.748 419.671 453.916 419.578Z"/><path fill="#213C96" d="M447.586 416.753C450.207 419.498 449.748 419.671 453.916 419.578L450.959 429.555L449.907 423.928C449.627 421.589 448.46 418.982 447.586 416.753Z"/><defs><linearGradient id="gradient_7" gradientUnits="userSpaceOnUse" x1="486.53909" y1="486.06369" x2="471.04895" y2="400.07718"><stop offset="0" stop-color="#2087BC"/><stop offset="1" stop-color="#114A6D"/></linearGradient></defs><path fill="url(#gradient_7)" d="M475.223 396.535C476.593 401.694 474.22 403.575 476.018 406.968L477.318 407.154C479.206 403.916 481.892 401.248 484.194 398.319C485.077 397.195 484.642 394.584 485.385 392.598L486.585 392.978C486.585 397.351 486.276 418.556 486.869 421.685C488.839 422.545 491.456 421.933 493.661 421.647C493.808 431.342 498.699 441.213 499.288 447.791C495.654 445.966 494.702 426.36 490.993 423.709C488.344 423.869 486.664 424.245 484.481 422.782C482.38 427.548 486.005 483.191 483.365 490.337C478.883 485.832 474.432 480.948 470.074 476.297C469.369 457.468 472.672 414.37 475.223 396.535Z"/><defs><linearGradient id="gradient_8" gradientUnits="userSpaceOnUse" x1="476.36142" y1="478.64349" x2="478.39166" y2="519.45624"><stop offset="0" stop-color="#2593C3"/><stop offset="1" stop-color="#3EB6D8"/></linearGradient></defs><path fill="url(#gradient_8)" d="M470.074 476.297C474.432 480.948 478.883 485.832 483.365 490.337L484.269 489.72C484.554 486.727 483.997 479.945 484.848 478.527C486.765 482.288 482.826 490.059 486.858 491.449L488.156 490.255L487.927 491.091C488.716 492.29 488.677 492.668 488.609 494.09L488.47 494.99C488.672 501.662 489.482 513.257 489.232 519.254L485.746 516.068C485.88 518.09 486.415 521.77 485.538 523.343C484.1 521.513 483.456 519.215 482.562 517.094C478.992 508.627 474.646 500.573 470.343 492.46C469.689 490.107 469.947 484.417 469.969 481.73L470.074 476.297Z"/><path fill="#46DBEC" d="M485.746 516.068C484.6 513.629 484.771 496.74 484.744 493.001L485.476 492.682L488.609 494.09L488.47 494.99C488.672 501.662 489.482 513.257 489.232 519.254L485.746 516.068Z"/><defs><linearGradient id="gradient_9" gradientUnits="userSpaceOnUse" x1="726.79645" y1="226.11345" x2="734.26892" y2="307.93716"><stop offset="0" stop-color="#2A88C2"/><stop offset="1" stop-color="#102269"/></linearGradient></defs><path fill="url(#gradient_9)" d="M627.188 133.387C638.473 138.089 657.523 146.431 668.24 151.889C668.102 154.997 671.14 161.798 672.78 164.426L673.631 164.916C678.167 165.563 683.769 166.526 688.241 166.968L696.643 186.588L697.006 183.701C702.145 185.987 728.953 200.799 730.875 204.449L735.3 207.66C735.254 202.603 734.512 192.976 733.404 188.239C732.297 183.836 731.98 179.816 731.511 175.315C737.318 187.472 742.95 199.316 750.381 210.596C750.587 197.68 747.303 169.838 746.197 155.642C759.323 177.884 770.908 201.019 782.984 223.838C784.216 226.166 785.505 228.486 786.564 230.899L799.854 255.434C797.396 264.546 792.589 284.806 789.636 292.824L788.186 297.896C786.787 302.28 785.544 306.676 783.498 310.791C779.113 309.288 775.129 307.898 770.639 306.729L762.443 306.132C753.412 306.367 749.705 307.293 740.93 309.78C738.532 304.533 735.393 297.928 734.616 292.263C734.543 291.732 734.041 291.434 733.553 290.954L733.092 292.284C730.085 291.13 718.494 270.823 715.354 266.16C714.604 265.423 709.997 259.216 708.369 257.403C708.904 260.34 709.41 264.052 710.587 266.722L707.858 266.062C704.693 265.341 701.028 263.816 697.942 262.646L697.377 262.175L696.674 262.384C693.928 258.388 666.156 235.609 660.46 231.597C659.465 230.897 652.415 229.268 650.164 228.365L649.638 228.151C646.096 227.57 637.801 225.003 634 223.937L632.354 222.838C625.985 215.307 620.516 208.254 614.544 200.392C605.26 193.714 590.139 188.083 581.506 181.661C581.787 181.697 582.472 181.141 582.811 180.92C581.274 180.404 581.135 180.353 579.803 179.446C588.1 175.471 614.038 176.821 619.396 174.499C621.981 176.51 624.366 179.558 626.601 181.111C625.585 178.287 624.333 178.908 624.787 176.181C626.786 174.209 633.216 173.848 636.71 173.272L640.314 175.072L640.446 174.828C640.186 172.925 627.639 160.831 625.347 158.503L623.913 156.866C622.433 154.862 618.546 151.048 616.511 148.527C617.584 146.791 615.546 146.499 618.002 143.767C621.399 139.988 622.306 135.443 627.188 133.387Z"/><defs><linearGradient id="gradient_10" gradientUnits="userSpaceOnUse" x1="785.06891" y1="266.15479" x2="732.14941" y2="169.13295"><stop offset="0" stop-color="#254CAC"/><stop offset="1" stop-color="#396ACE"/></linearGradient></defs><path fill="url(#gradient_10)" d="M750.381 210.596C750.587 197.68 747.303 169.838 746.197 155.642C759.323 177.884 770.908 201.019 782.984 223.838C784.216 226.166 785.505 228.486 786.564 230.899L799.854 255.434C797.396 264.546 792.589 284.806 789.636 292.824L788.186 297.896C786.787 302.28 785.544 306.676 783.498 310.791C779.113 309.288 775.129 307.898 770.639 306.729L762.443 306.132C761.598 305.573 756.989 305.81 755.645 305.824C755.848 296.429 755.066 286.572 754.505 277.161C753.943 267.881 753.144 257.677 753.148 248.464C752.443 244.673 751.707 240.74 751.201 236.947C750.496 231.669 752.123 223.221 748.671 218.854C747.22 217.019 739.726 211.538 737.336 211.165C736.144 213.567 739.807 228.539 738.094 231.375C736.872 229.864 735.969 212.946 735.749 209.803L735.3 207.66C735.254 202.603 734.512 192.976 733.404 188.239C732.297 183.836 731.98 179.816 731.511 175.315C737.318 187.472 742.95 199.316 750.381 210.596Z"/><path fill="#213C96" d="M773.977 276.918C777.815 262.672 780.457 247.673 784.198 233.379C784.418 232.54 785.87 231.397 786.564 230.899L799.854 255.434C797.396 264.546 792.589 284.806 789.636 292.824L788.186 297.896C786.787 302.28 785.544 306.676 783.498 310.791C779.113 309.288 775.129 307.898 770.639 306.729L762.443 306.132C761.598 305.573 756.989 305.81 755.645 305.824C755.848 296.429 755.066 286.572 754.505 277.161C753.943 267.881 753.144 257.677 753.148 248.464C758.707 258.237 769.488 267.59 773.977 276.918Z"/><path fill="#315CBD" d="M773.977 276.918C777.815 262.672 780.457 247.673 784.198 233.379C784.418 232.54 785.87 231.397 786.564 230.899L799.854 255.434C797.396 264.546 792.589 284.806 789.636 292.824C786.575 289.449 788.136 261.159 788.24 254.81C785.034 262.536 781.755 274.971 779.264 283.338L773.977 276.918Z"/><path fill="#2E2680" d="M779.219 284.705C783.201 289.563 784.95 292.452 788.186 297.896C786.787 302.28 785.544 306.676 783.498 310.791C779.113 309.288 775.129 307.898 770.639 306.729L772.137 306.328C773.674 303.804 777.974 288.709 779.219 284.705Z"/><path fill="#537CD8" d="M731.511 175.315C737.318 187.472 742.95 199.316 750.381 210.596C750.385 212.677 750.408 214.692 750.471 216.772L749.56 217.158C746.741 215.26 739.471 210.091 736.51 209.557L735.749 209.803L735.3 207.66C735.254 202.603 734.512 192.976 733.404 188.239C732.297 183.836 731.98 179.816 731.511 175.315Z"/><path fill="#0B3D28" d="M636.71 173.272L640.314 175.072C648.2 180.729 671.397 212.131 675.22 214.331C680.996 222.725 704.525 250.111 707.23 255.711L708.369 257.403C708.904 260.34 709.41 264.052 710.587 266.722L707.858 266.062C704.693 265.341 701.028 263.816 697.942 262.646L697.377 262.175L696.674 262.384C693.928 258.388 666.156 235.609 660.46 231.597C659.465 230.897 652.415 229.268 650.164 228.365L649.638 228.151C646.096 227.57 637.801 225.003 634 223.937L632.354 222.838C625.985 215.307 620.516 208.254 614.544 200.392C605.26 193.714 590.139 188.083 581.506 181.661C581.787 181.697 582.472 181.141 582.811 180.92C581.274 180.404 581.135 180.353 579.803 179.446C588.1 175.471 614.038 176.821 619.396 174.499C621.981 176.51 624.366 179.558 626.601 181.111C625.585 178.287 624.333 178.908 624.787 176.181C626.786 174.209 633.216 173.848 636.71 173.272Z"/><path fill="#167841" d="M619.396 174.499C621.981 176.51 624.366 179.558 626.601 181.111C639.064 193.898 651.323 205.951 662.776 219.669C666.816 224.509 669.198 225.837 673.071 231.095L672.787 231.803C664.67 229.98 653.192 218.246 647.696 218.725L649.926 220.27L648.87 220.94C648.068 220.479 647.277 220.021 646.463 219.579C645.365 222.035 643.049 223.176 643.6 225.062C645.392 225.623 647.171 226.18 648.973 226.711L649.638 228.151C646.096 227.57 637.801 225.003 634 223.937L632.354 222.838C625.985 215.307 620.516 208.254 614.544 200.392C605.26 193.714 590.139 188.083 581.506 181.661C581.787 181.697 582.472 181.141 582.811 180.92C581.274 180.404 581.135 180.353 579.803 179.446C588.1 175.471 614.038 176.821 619.396 174.499Z"/><path fill="#2E53B1" d="M614.544 200.392C626.163 205.484 638.635 214.743 647.696 218.725L649.926 220.27L648.87 220.94C648.068 220.479 647.277 220.021 646.463 219.579C645.365 222.035 643.049 223.176 643.6 225.062C645.392 225.623 647.171 226.18 648.973 226.711L649.638 228.151C646.096 227.57 637.801 225.003 634 223.937L632.354 222.838C625.985 215.307 620.516 208.254 614.544 200.392Z"/><path fill="#213C96" d="M649.638 228.151L648.973 226.711C647.171 226.18 645.392 225.623 643.6 225.062C643.049 223.176 645.365 222.035 646.463 219.579C647.277 220.021 648.068 220.479 648.87 220.94L649.926 220.27C661.2 225.89 685.887 243.349 697.219 251.082C699.762 252.403 704.699 255.124 707.23 255.711L708.369 257.403C708.904 260.34 709.41 264.052 710.587 266.722L707.858 266.062C704.693 265.341 701.028 263.816 697.942 262.646L697.377 262.175L696.674 262.384C693.928 258.388 666.156 235.609 660.46 231.597C659.465 230.897 652.415 229.268 650.164 228.365L649.638 228.151Z"/><path fill="#0E1633" d="M697.219 251.082C699.762 252.403 704.699 255.124 707.23 255.711L708.369 257.403C708.904 260.34 709.41 264.052 710.587 266.722L707.858 266.062C704.693 265.341 701.028 263.816 697.942 262.646L697.377 262.175L697.408 261.154L698.189 260.718L698.39 261.23C699.444 260.277 699.812 259.923 700.703 258.82C700.568 256.425 698.465 253.288 697.219 251.082Z"/><defs><linearGradient id="gradient_11" gradientUnits="userSpaceOnUse" x1="691.48132" y1="221.80544" x2="641.57635" y2="150.2885"><stop offset="0" stop-color="#167941"/><stop offset="1" stop-color="#31C46E"/></linearGradient></defs><path fill="url(#gradient_11)" d="M627.188 133.387C638.473 138.089 657.523 146.431 668.24 151.889C668.102 154.997 671.14 161.798 672.78 164.426L673.631 164.916C673.108 169.737 696.927 213.485 698.478 223.484C697.118 223.069 697.046 221.246 696.355 220.774C689.151 215.851 687.534 217.821 679.762 217.99C679.455 217.997 677.148 215.025 675.22 214.331C671.397 212.131 648.2 180.729 640.314 175.072L640.446 174.828C640.186 172.925 627.639 160.831 625.347 158.503L623.913 156.866C622.433 154.862 618.546 151.048 616.511 148.527C617.584 146.791 615.546 146.499 618.002 143.767C621.399 139.988 622.306 135.443 627.188 133.387Z"/><path fill="#2DC373" d="M627.188 133.387C638.473 138.089 657.523 146.431 668.24 151.889C668.102 154.997 671.14 161.798 672.78 164.426C658.735 162.521 639.005 159.229 625.347 158.503L623.913 156.866C622.433 154.862 618.546 151.048 616.511 148.527C617.584 146.791 615.546 146.499 618.002 143.767C621.399 139.988 622.306 135.443 627.188 133.387Z"/><defs><linearGradient id="gradient_12" gradientUnits="userSpaceOnUse" x1="728.29449" y1="221.4801" x2="666.13818" y2="208.65805"><stop offset="0" stop-color="#084224"/><stop offset="1" stop-color="#1E8D4F"/></linearGradient></defs><path fill="url(#gradient_12)" d="M673.631 164.916C678.167 165.563 683.769 166.526 688.241 166.968L696.643 186.588C700.653 197.628 707.242 211.908 711.992 222.959C715.657 233.384 722.021 247.673 724.948 257.625L722.623 255.394C715.804 256.495 718.015 261.688 715.354 266.16C714.604 265.423 709.997 259.216 708.369 257.403L707.23 255.711C704.525 250.111 680.996 222.725 675.22 214.331C677.148 215.025 679.455 217.997 679.762 217.99C687.534 217.821 689.151 215.851 696.355 220.774C697.046 221.246 697.118 223.069 698.478 223.484C696.927 213.485 673.108 169.737 673.631 164.916Z"/><path fill="#174081" d="M738.094 231.375C739.807 228.539 736.144 213.567 737.336 211.165C739.726 211.538 747.22 217.019 748.671 218.854C752.123 223.221 750.496 231.669 751.201 236.947C751.707 240.74 752.443 244.673 753.148 248.464C753.144 257.677 753.943 267.881 754.505 277.161C752.279 280.82 754.308 297.332 753.914 304.198C752.541 305.865 750.083 306.704 748.064 305.839C741.984 297.28 741.393 254.852 739.12 244.151L738.997 243.593C738.83 239.521 738.44 235.438 738.094 231.375Z"/><path fill="#2B9AC6" d="M696.643 186.588L697.006 183.701C702.145 185.987 728.953 200.799 730.875 204.449C731.341 207.51 732.087 211.595 732.242 214.605C729.466 232.777 733.903 223.082 716.739 231.414C716.004 229.492 714.157 223.793 712.829 222.819L711.992 222.959C707.242 211.908 700.653 197.628 696.643 186.588Z"/><path fill="#0B3D28" d="M715.354 266.16C718.015 261.688 715.804 256.495 722.623 255.394L724.948 257.625C728.317 265.375 730.487 272.785 731.804 281.14C732.269 284.089 732.172 288.52 733.553 290.954L733.092 292.284C730.085 291.13 718.494 270.823 715.354 266.16Z"/><defs><linearGradient id="gradient_13" gradientUnits="userSpaceOnUse" x1="737.16809" y1="239.38464" x2="731.73077" y2="207.21541"><stop offset="0" stop-color="#2A87BC"/><stop offset="1" stop-color="#3AB2DB"/></linearGradient></defs><path fill="url(#gradient_13)" d="M730.875 204.449L735.3 207.66L735.749 209.803C735.969 212.946 736.872 229.864 738.094 231.375C738.44 235.438 738.83 239.521 738.997 243.593C738.878 244.993 739.128 244.823 738.356 245.548L738.434 248.101C738.182 245.565 738.117 242.93 736.924 240.704L735.685 240.696C734.565 243.646 736.906 244.516 735.865 248.91C734.21 245.778 732.649 219.757 732.242 214.605C732.087 211.595 731.341 207.51 730.875 204.449Z"/><defs><linearGradient id="gradient_14" gradientUnits="userSpaceOnUse" x1="512.18726" y1="221.03995" x2="443.52948" y2="327.59866"><stop offset="0" stop-color="#060745"/><stop offset="1" stop-color="#3058CE"/></linearGradient></defs><path fill="url(#gradient_14)" d="M486.586 242.667C491.172 240.273 508.289 236.577 513.77 236.285C525.024 238.694 536.463 239.99 547.905 241.114C542.67 244.407 539.119 245.545 534.747 249.995C532.812 251.696 526.308 256.748 525.162 258.172C523.877 261.006 522.505 263.92 521.312 266.784L518.251 272.006C497.906 279.183 490.505 288.511 487.075 309.486L474.417 309.558C474.398 316.267 474.684 327.293 474.219 333.667L474.205 335.092C474.215 338.947 474.378 344.451 473.988 348.112C468.15 354.169 462.708 361.784 456.814 367.418C453.389 372.569 444.625 391.391 442.865 397.469L441.831 397.718C440.852 400.223 437.536 407.555 437.279 409.705C433.023 418.274 428.776 428.409 425.153 437.345L422.615 442.589L406.845 480.895C404.409 467.314 402.422 448.966 400.941 435.236C399.829 428.223 397.33 407.101 397.67 400.717C402.715 392.958 413.198 378.511 414.55 370.114C415.012 363.185 416.385 355.53 418.099 348.801C406.573 359.432 386.88 382.201 375.234 394.52C380.549 380.918 387.337 365.59 393.102 351.937C401.612 331.785 411.352 305.893 421.467 286.842L422.157 284.542C416.15 286.44 407.718 291.175 401.772 293.927C393.114 297.933 384.364 301.879 375.744 305.947C377.519 304.484 379.157 302.968 380.755 301.314C392.718 288.93 405.472 276.992 416.897 264.121C433.385 256.246 460.343 251.482 477.725 244.155C481.138 243.34 483.018 242.841 486.586 242.667Z"/><path fill="#0B3D28" d="M447.853 318.444C459.616 309.89 515.328 258.666 525.162 258.172C523.877 261.006 522.505 263.92 521.312 266.784L518.251 272.006C497.906 279.183 490.505 288.511 487.075 309.486L474.417 309.558C474.398 316.267 474.684 327.293 474.219 333.667L474.205 335.092C474.215 338.947 474.378 344.451 473.988 348.112C468.15 354.169 462.708 361.784 456.814 367.418C453.389 372.569 444.625 391.391 442.865 397.469L441.831 397.718C440.852 400.223 437.536 407.555 437.279 409.705C433.023 418.274 428.776 428.409 425.153 437.345L422.615 442.589L406.845 480.895C404.409 467.314 402.422 448.966 400.941 435.236C399.829 428.223 397.33 407.101 397.67 400.717C402.715 392.958 413.198 378.511 414.55 370.114C415.012 363.185 416.385 355.53 418.099 348.801L419.507 347.121C424.891 341.794 430.003 336.828 434.967 331.081C436.32 329.575 438.045 328.382 439.669 327.161C442.294 324.113 445.291 321.676 447.853 318.444Z"/><defs><linearGradient id="gradient_15" gradientUnits="userSpaceOnUse" x1="409.45648" y1="371.76462" x2="433.29041" y2="434.3093"><stop offset="0" stop-color="#1FA051"/><stop offset="1" stop-color="#38DD8C"/></linearGradient></defs><path fill="url(#gradient_15)" d="M429.54 357.992C431.38 361.962 432.019 368.872 432.612 373.412C433.48 379.477 436.164 398.463 437.915 403.327L438.471 403.217C439.151 401.469 440.199 398.087 441.51 397.019L441.831 397.718C440.852 400.223 437.536 407.555 437.279 409.705C433.023 418.274 428.776 428.409 425.153 437.345L422.615 442.589L406.845 480.895C404.409 467.314 402.422 448.966 400.941 435.236C399.829 428.223 397.33 407.101 397.67 400.717C402.715 392.958 413.198 378.511 414.55 370.114L414.987 371.437C416.178 371.043 417.065 369.719 417.92 368.716C420.968 366.868 426.731 360.806 429.54 357.992Z"/><path fill="#66EDB4" d="M397.67 400.717C401.222 404.52 412.205 422.38 413.823 427.168C416.883 432.335 419.803 437.266 422.615 442.589L406.845 480.895C404.409 467.314 402.422 448.966 400.941 435.236C399.829 428.223 397.33 407.101 397.67 400.717Z"/><path fill="#2DC373" d="M397.67 400.717C401.222 404.52 412.205 422.38 413.823 427.168C409.365 423.707 409.514 417.477 404.044 416.55C398.331 419.062 402.208 429.175 400.941 435.236C399.829 428.223 397.33 407.101 397.67 400.717Z"/><path fill="#25A364" d="M429.54 357.992C431.38 361.962 432.019 368.872 432.612 373.412C429.337 372.054 425.186 368.894 422.425 366.657C420.304 368.817 418.693 370.712 415.94 372.044L414.987 371.437C416.178 371.043 417.065 369.719 417.92 368.716C420.968 366.868 426.731 360.806 429.54 357.992Z"/><path fill="#167841" d="M431.055 355.755C434.567 351.176 468.314 319.82 472.937 316.539C472.875 320.788 472.028 330.682 474.219 333.667L474.205 335.092C474.215 338.947 474.378 344.451 473.988 348.112C468.15 354.169 462.708 361.784 456.814 367.418C453.389 372.569 444.625 391.391 442.865 397.469L441.831 397.718L441.51 397.019C440.199 398.087 439.151 401.469 438.471 403.217L437.915 403.327C436.164 398.463 433.48 379.477 432.612 373.412C432.019 368.872 431.38 361.962 429.54 357.992C430.409 357.377 430.597 356.719 431.055 355.755Z"/><path fill="#2E53B1" d="M456.814 367.418C457.343 363.263 470.898 336.683 474.205 335.092C474.215 338.947 474.378 344.451 473.988 348.112C468.15 354.169 462.708 361.784 456.814 367.418Z"/><path fill="#25A364" d="M434.967 331.081C436.32 329.575 438.045 328.382 439.669 327.161C437.144 333.085 433.624 338.257 431.599 342.936C429.958 349.146 430.207 349.302 431.055 355.755C430.597 356.719 430.409 357.377 429.54 357.992C426.731 360.806 420.968 366.868 417.92 368.716C417.065 369.719 416.178 371.043 414.987 371.437L414.55 370.114C415.012 363.185 416.385 355.53 418.099 348.801L419.507 347.121C424.891 341.794 430.003 336.828 434.967 331.081Z"/><path fill="#167841" d="M417.92 368.716C421.847 360.467 426.405 350.284 431.599 342.936C429.958 349.146 430.207 349.302 431.055 355.755C430.597 356.719 430.409 357.377 429.54 357.992C426.731 360.806 420.968 366.868 417.92 368.716Z"/><defs><linearGradient id="gradient_16" gradientUnits="userSpaceOnUse" x1="479.3465" y1="240.57384" x2="380.71576" y2="296.37714"><stop offset="0" stop-color="#9772CD"/><stop offset="1" stop-color="#DDA8EB"/></linearGradient></defs><path fill="url(#gradient_16)" d="M477.725 244.155C481.138 243.34 483.018 242.841 486.586 242.667C473.085 254.149 439.605 276.146 423.726 283.817L422.157 284.542C416.15 286.44 407.718 291.175 401.772 293.927C393.114 297.933 384.364 301.879 375.744 305.947C377.519 304.484 379.157 302.968 380.755 301.314C392.718 288.93 405.472 276.992 416.897 264.121C433.385 256.246 460.343 251.482 477.725 244.155Z"/><path fill="#537CD8" d="M421.467 286.842C423.316 289.546 420.152 340.429 419.507 347.121L418.099 348.801C406.573 359.432 386.88 382.201 375.234 394.52C380.549 380.918 387.337 365.59 393.102 351.937C401.612 331.785 411.352 305.893 421.467 286.842Z"/><path fill="#315CBD" d="M423.726 283.817C423.619 289.526 423.339 293.22 422.646 298.891C431.883 294.898 441.688 290.83 450.725 286.512C449.25 290.34 437.844 320.478 437.029 321.537C435.044 325.051 434.007 327.083 434.967 331.081C430.003 336.828 424.891 341.794 419.507 347.121C420.152 340.429 423.316 289.546 421.467 286.842L422.157 284.542L423.726 283.817Z"/><path fill="#2E53B1" d="M437.029 321.537C437.732 323.171 437.736 323.382 439.04 324.515C443.202 323.22 443.018 318.405 447.853 318.444C445.291 321.676 442.294 324.113 439.669 327.161C438.045 328.382 436.32 329.575 434.967 331.081C434.007 327.083 435.044 325.051 437.029 321.537Z"/><path fill="#2E53B1" d="M810.47 446.722C824.5 439.165 838.632 430.35 852.903 423.667C832.365 447.411 813.402 469.403 791.912 492.297L789.203 494.859C785.903 498.129 782.517 501.423 779.285 504.749C793.445 503.147 814.423 498.659 826.941 497.88C819.249 501.237 809.848 506.821 802.379 511.018L764.524 532.322C760.077 534.826 747.352 542.378 743.246 543.691C730.867 543.051 714.263 546 699.343 545.074L681.704 538.776C677.483 537.161 672.968 535.801 668.649 534.418C662.662 532.173 650.419 527.932 645.724 524.756C639.535 519.005 623.224 508.217 615.956 503.797L611.104 500.729C613.495 498.692 616.959 500.787 621.884 500.657C630.165 502.241 642.556 505.076 650.597 503.931C654.904 502.855 667.981 500.776 670.682 498.387C671.594 498.618 671.524 498.781 672.189 498.561C680.058 497.665 694.477 493.361 702.309 490.828C711.782 488.696 727.28 482.648 736.667 479.154C745.802 475.339 773.994 464.684 780.419 459.825L782.033 457.967C790.544 455.955 793.563 454.594 801.175 450.238C806.942 445.764 809.956 443.223 814.272 437.318L810.47 446.722Z"/><defs><linearGradient id="gradient_17" gradientUnits="userSpaceOnUse" x1="747.29816" y1="462.5759" x2="787.42426" y2="479.74161"><stop offset="0" stop-color="#724BA5"/><stop offset="1" stop-color="#B07CD1"/></linearGradient></defs><path fill="url(#gradient_17)" d="M810.47 446.722C824.5 439.165 838.632 430.35 852.903 423.667C832.365 447.411 813.402 469.403 791.912 492.297L789.203 494.859C785.903 498.129 782.517 501.423 779.285 504.749L774.909 505.157C772.621 505.351 766.444 505.778 764.485 506.183C758.887 506.573 749.484 507.733 744.304 507.725C746.634 505.134 749.522 501.397 751.793 498.634C753.058 498.055 752.637 498.446 753.244 496.891C752.117 496.236 752.598 496.668 751.883 495.427C752.577 493.446 754.034 492.859 755.883 491.679C755.063 490.737 746.586 493.998 745.152 493.199C740.612 490.671 744.313 486.239 739.701 479.592L736.667 479.154C745.802 475.339 773.994 464.684 780.419 459.825L782.033 457.967C790.544 455.955 793.563 454.594 801.175 450.238C806.942 445.764 809.956 443.223 814.272 437.318L810.47 446.722Z"/><path fill="#C78EDF" d="M810.47 446.722C824.5 439.165 838.632 430.35 852.903 423.667C832.365 447.411 813.402 469.403 791.912 492.297C788.163 491.963 785.64 492.357 781.954 492.776C781.787 492.179 799.414 456.502 801.08 450.585L801.175 450.238C806.942 445.764 809.956 443.223 814.272 437.318L810.47 446.722Z"/><path fill="#865DB0" d="M777.834 494.33L778.636 495.833C777.6 498.718 774.498 503.574 774.909 505.157C772.621 505.351 766.444 505.778 764.485 506.183C758.887 506.573 749.484 507.733 744.304 507.725C746.634 505.134 749.522 501.397 751.793 498.634C753.058 498.055 752.637 498.446 753.244 496.891C761.457 496.138 769.637 495.225 777.834 494.33Z"/><path fill="#A775C9" d="M777.834 494.33L778.213 493.199C781.542 493.522 786.803 493.33 789.203 494.859C785.903 498.129 782.517 501.423 779.285 504.749L774.909 505.157C774.498 503.574 777.6 498.718 778.636 495.833L777.834 494.33Z"/><defs><linearGradient id="gradient_18" gradientUnits="userSpaceOnUse" x1="693.88531" y1="481.29977" x2="749.15948" y2="502.72836"><stop offset="0" stop-color="#402678"/><stop offset="1" stop-color="#835DAE"/></linearGradient></defs><path fill="url(#gradient_18)" d="M702.309 490.828C711.782 488.696 727.28 482.648 736.667 479.154L739.701 479.592C744.313 486.239 740.612 490.671 745.152 493.199C746.586 493.998 755.063 490.737 755.883 491.679C754.034 492.859 752.577 493.446 751.883 495.427C752.598 496.668 752.117 496.236 753.244 496.891C752.637 498.446 753.058 498.055 751.793 498.634C749.522 501.397 746.634 505.134 744.304 507.725C735.784 507.885 726.437 508.261 717.985 508.199L713.372 508.475C700.887 508.314 684.09 508.333 671.825 506.942C667.849 508.014 653.822 507.119 650.597 503.931C654.904 502.855 667.981 500.776 670.682 498.387C671.594 498.618 671.524 498.781 672.189 498.561C680.058 497.665 694.477 493.361 702.309 490.828Z"/><path fill="#2E2680" d="M671.825 506.942C670.872 505.779 657.498 505.299 653.103 504.455C656.715 503.354 685.442 496.807 688.048 496.848L686.988 499.623L687.517 500.326C701.34 499.832 712.999 500.897 727.006 499.065C729.216 497.122 748.732 496.588 751.476 497.636L751.793 498.634C749.522 501.397 746.634 505.134 744.304 507.725C735.784 507.885 726.437 508.261 717.985 508.199L713.372 508.475C700.887 508.314 684.09 508.333 671.825 506.942Z"/><path fill="#703A8E" d="M727.006 499.065C729.216 497.122 748.732 496.588 751.476 497.636L751.793 498.634C749.522 501.397 746.634 505.134 744.304 507.725C735.784 507.885 726.437 508.261 717.985 508.199C721.432 505.371 730.618 508.083 733.493 506.252C734.692 501.205 734.491 503.314 736.544 499.162C734.666 498.274 731.106 499.354 727.624 499.112L727.006 499.065Z"/><defs><linearGradient id="gradient_19" gradientUnits="userSpaceOnUse" x1="623.65613" y1="527.61548" x2="683.28741" y2="501.8877"><stop offset="0" stop-color="#050C35"/><stop offset="1" stop-color="#18308F"/></linearGradient></defs><path fill="url(#gradient_19)" d="M611.104 500.729C613.495 498.692 616.959 500.787 621.884 500.657C630.165 502.241 642.556 505.076 650.597 503.931C653.822 507.119 667.849 508.014 671.825 506.942C684.09 508.333 700.887 508.314 713.372 508.475C708.964 510.21 693.256 509.563 687.546 509.476L682.685 519.152L683.509 519.32L681.571 522.5C683.744 526.066 689.655 526.621 694.168 528.062C690.037 530.859 683.611 534.417 681.704 538.776C677.483 537.161 672.968 535.801 668.649 534.418C662.662 532.173 650.419 527.932 645.724 524.756C639.535 519.005 623.224 508.217 615.956 503.797L611.104 500.729Z"/><path fill="#3F6BCA" d="M826.941 497.88C819.249 501.237 809.848 506.821 802.379 511.018L764.524 532.322C760.077 534.826 747.352 542.378 743.246 543.691L742.411 541.907C740.526 540.251 737.704 539.925 735.199 539.394C741.341 534.316 745.156 531.039 749.539 524.325C751.697 522.567 764.058 508.267 764.485 506.183C766.444 505.778 772.621 505.351 774.909 505.157L779.285 504.749C793.445 503.147 814.423 498.659 826.941 497.88Z"/><path fill="#213C96" d="M683.509 519.32C687.71 520.522 693.986 521.932 697.76 523.506L697.962 524.043L695.598 525.303L695.185 527.257C700.778 529.935 728.332 538.091 735.199 539.394C737.704 539.925 740.526 540.251 742.411 541.907L743.246 543.691C730.867 543.051 714.263 546 699.343 545.074L681.704 538.776C683.611 534.417 690.037 530.859 694.168 528.062C689.655 526.621 683.744 526.066 681.571 522.5L683.509 519.32Z"/><path fill="#315CBD" d="M695.185 527.257C700.344 522.437 728.596 533.473 736.148 534.265C741.563 534.832 744.742 527.514 749.539 524.325C745.156 531.039 741.341 534.316 735.199 539.394C728.332 538.091 700.778 529.935 695.185 527.257Z"/><path fill="#146168" d="M537.007 161.653C548.133 166.143 559.885 171.681 570.89 176.637L574.557 178.705L581.506 181.661C590.139 188.083 605.26 193.714 614.544 200.392C620.516 208.254 625.985 215.307 632.354 222.838C629.683 223.725 623.13 221.204 620.607 219.988L613.919 222.483C612.434 223.158 610.951 223.861 609.428 224.445C609.484 228.217 609.456 231.748 609.368 235.517C604.967 235.012 592.763 234.817 589.839 233.286L589.851 231.299C587.682 231.527 584.695 231.751 582.617 232.104C580.099 232.437 566.318 233.998 565.312 235.037L566.084 235.414C564.865 236.837 563.847 238.262 562.251 239.196C556.795 239.843 553.534 242.143 547.905 241.114C536.463 239.99 525.024 238.694 513.77 236.285C508.289 236.577 491.172 240.273 486.586 242.667C483.018 242.841 481.138 243.34 477.725 244.155C480.746 238.507 493.586 228.139 498.701 223.835C502.915 223.914 501.121 218.364 509.987 217.696C508.58 217.396 507.136 217.212 505.711 217.003L505.343 216.134C509.95 212.239 513.727 208.736 518.08 204.549C514.599 204.448 513.534 204.347 510.16 203.558C502.002 203.373 493.764 202.018 485.229 202.082C465.822 201.384 445.864 201.286 426.406 200.992C455.139 191.262 484.081 179.213 513.135 170.113L528.803 164.95C531.361 163.686 534.314 162.661 537.007 161.653Z"/><defs><linearGradient id="gradient_20" gradientUnits="userSpaceOnUse" x1="492.19806" y1="255.45903" x2="566.92773" y2="200.81897"><stop offset="0" stop-color="#39BAE2"/><stop offset="1" stop-color="#0A3F68"/></linearGradient></defs><path fill="url(#gradient_20)" d="M510.16 203.558C515.553 203.253 569.14 208.77 571.899 210.516C578.191 212.506 592.125 214.336 596.026 216.035C601.206 217.038 606.641 217.979 611.753 219.244C612.315 219.383 615.344 220.467 615.453 220.42L613.642 221.705L613.919 222.483C612.434 223.158 610.951 223.861 609.428 224.445C609.484 228.217 609.456 231.748 609.368 235.517C604.967 235.012 592.763 234.817 589.839 233.286L589.851 231.299C587.682 231.527 584.695 231.751 582.617 232.104C580.099 232.437 566.318 233.998 565.312 235.037L566.084 235.414C564.865 236.837 563.847 238.262 562.251 239.196C556.795 239.843 553.534 242.143 547.905 241.114C536.463 239.99 525.024 238.694 513.77 236.285C508.289 236.577 491.172 240.273 486.586 242.667C483.018 242.841 481.138 243.34 477.725 244.155C480.746 238.507 493.586 228.139 498.701 223.835C502.915 223.914 501.121 218.364 509.987 217.696C508.58 217.396 507.136 217.212 505.711 217.003L505.343 216.134C509.95 212.239 513.727 208.736 518.08 204.549C514.599 204.448 513.534 204.347 510.16 203.558Z"/><path fill="#174081" d="M557.543 228.083C561.484 225.638 586.114 221.418 590.882 223.968C592.603 224.889 600.893 221.949 602.894 220.524C596.762 221.717 586.387 223.382 580.285 221.375C577.282 220.388 575.423 216.469 576.98 213.583C583.433 213.16 588.363 216.901 595.476 216.102L596.026 216.035C601.206 217.038 606.641 217.979 611.753 219.244C612.315 219.383 615.344 220.467 615.453 220.42L613.642 221.705L613.919 222.483C612.434 223.158 610.951 223.861 609.428 224.445C609.484 228.217 609.456 231.748 609.368 235.517C604.967 235.012 592.763 234.817 589.839 233.286L589.851 231.299C587.682 231.527 584.695 231.751 582.617 232.104C580.099 232.437 566.318 233.998 565.312 235.037L566.084 235.414C564.865 236.837 563.847 238.262 562.251 239.196C556.795 239.843 553.534 242.143 547.905 241.114C536.463 239.99 525.024 238.694 513.77 236.285C519.075 233.303 547.981 230.538 557.543 228.083Z"/><defs><linearGradient id="gradient_21" gradientUnits="userSpaceOnUse" x1="536.21472" y1="225.81464" x2="548.2713" y2="245.37061"><stop offset="0" stop-color="#4C63CB"/><stop offset="1" stop-color="#2D459B"/></linearGradient></defs><path fill="url(#gradient_21)" d="M557.543 228.083C561.804 227.646 570.738 225.847 573.96 226.349C570.844 227.267 562.605 228.414 561.291 229.147C561.019 231.16 561.257 231.446 562.294 233.227C564.269 233.672 580.068 231.251 582.432 230.577L582.617 232.104C580.099 232.437 566.318 233.998 565.312 235.037L566.084 235.414C564.865 236.837 563.847 238.262 562.251 239.196C556.795 239.843 553.534 242.143 547.905 241.114C536.463 239.99 525.024 238.694 513.77 236.285C519.075 233.303 547.981 230.538 557.543 228.083Z"/><defs><linearGradient id="gradient_22" gradientUnits="userSpaceOnUse" x1="607.20209" y1="229.42389" x2="593.65692" y2="232.11552"><stop offset="0" stop-color="#3CBC75"/><stop offset="1" stop-color="#59DD9A"/></linearGradient></defs><path fill="url(#gradient_22)" d="M589.851 231.299C597.794 229.18 601.768 227.644 609.428 224.445C609.484 228.217 609.456 231.748 609.368 235.517C604.967 235.012 592.763 234.817 589.839 233.286L589.851 231.299Z"/><defs><linearGradient id="gradient_23" gradientUnits="userSpaceOnUse" x1="625.23334" y1="198.19737" x2="559.46185" y2="207.09944"><stop offset="0" stop-color="#030A34"/><stop offset="1" stop-color="#1A377F"/></linearGradient></defs><path fill="url(#gradient_23)" d="M555.919 190.655C560.715 186.375 567.589 183.072 573.563 180.769C574.302 179.882 574.437 179.875 574.557 178.705L581.506 181.661C590.139 188.083 605.26 193.714 614.544 200.392C620.516 208.254 625.985 215.307 632.354 222.838C629.683 223.725 623.13 221.204 620.607 219.988L613.919 222.483L613.642 221.705L615.453 220.42C615.344 220.467 612.315 219.383 611.753 219.244C606.641 217.979 601.206 217.038 596.026 216.035C592.125 214.336 578.191 212.506 571.899 210.516C582.383 210.48 579.948 215.815 585.978 203.495C580.472 201.282 559.933 193.412 555.919 190.655Z"/><path fill="#145072" d="M537.007 161.653C548.133 166.143 559.885 171.681 570.89 176.637L574.557 178.705C574.437 179.875 574.302 179.882 573.563 180.769C567.589 183.072 560.715 186.375 555.919 190.655C552.021 188.889 551.671 191.065 548.267 190.624L551.217 188.168C543.414 184.085 515.845 175.294 513.135 170.113L528.803 164.95C531.361 163.686 534.314 162.661 537.007 161.653Z"/><path fill="#1E7088" d="M513.135 170.113L528.803 164.95L528.984 166.116C527.47 166.7 527.464 166.423 526.676 167.515C531.573 172.795 552.721 181.795 560.499 186.105C557.159 187.371 554.834 188.551 551.217 188.168C543.414 184.085 515.845 175.294 513.135 170.113Z"/><path fill="#0E1633" d="M646.053 320.194C661.31 318.681 670.668 321.313 681.541 332.173L681.567 321.803C688.28 321.618 695.411 321.705 702.16 321.67L702.359 409.186L681.442 409.254C681.507 406.71 682.188 399.883 680.613 398.354L678.646 400.72C653.256 423.243 615.88 407.656 610.842 374.983C606.807 348.814 618.426 324.859 646.053 320.194ZM662.465 392.071C692.289 382.051 687.724 334.706 650.985 338.754C618.251 349.427 628.217 397.405 662.465 392.071Z"/><path fill="#F4684F" d="M973.719 411.516C949.71 408.292 932.17 387.207 933.36 363C934.549 338.794 954.072 319.532 978.281 318.681C995.864 318.062 1012.3 327.4 1020.77 342.826C1029.25 358.252 1028.32 377.137 1018.37 391.657C1008.43 406.177 991.156 413.857 973.719 411.516ZM975.705 392.732C1012.92 393.5 1015.21 344.472 982.056 337.926C964.43 338.991 953.846 348.671 954.814 367.491C955.505 380.937 963.079 388.954 975.705 392.732Z"/><path fill="#0E1633" d="M973.719 411.516C949.71 408.292 932.17 387.207 933.36 363C934.549 338.794 954.072 319.532 978.281 318.681C978.754 321.205 981.475 336.54 982.056 337.926C964.43 338.991 953.846 348.671 954.814 367.491C955.505 380.937 963.079 388.954 975.705 392.732C975.119 399.004 974.581 405.275 973.719 411.516Z"/><defs><linearGradient id="gradient_24" gradientUnits="userSpaceOnUse" x1="574.59039" y1="524.51575" x2="617.19757" y2="498.32208"><stop offset="0" stop-color="#031116"/><stop offset="1" stop-color="#138B43"/></linearGradient></defs><path fill="url(#gradient_24)" d="M542.225 472.951C546.96 473.654 550.825 474.077 555.271 475.997C558.57 478.032 578.885 490.406 580.743 492.199C590.065 497.641 590.071 496.722 601.032 497.455L605.551 497.706L611.104 500.729L615.956 503.797C623.224 508.217 639.535 519.005 645.724 524.756C650.419 527.932 662.662 532.173 668.649 534.418C672.968 535.801 677.483 537.161 681.704 538.776L699.343 545.074L700.698 546.044C700.631 546.51 700.55 547.066 700.456 547.713C704.98 555.523 714.456 568.649 719.226 575.501C709.857 577.454 697.952 579.56 688.531 580.702C680.714 577.149 667.872 568.569 660.154 566.666L659.381 566.601L657.773 565.408C653.457 559.108 637.496 550.002 632.125 543.987C627.485 549.007 622.762 546.139 616.121 548.882C612.588 546.819 607.579 542.07 604.342 539.192C595.467 530.602 584.987 521.216 575.789 512.902C575.274 511.876 549.33 486.206 546.324 482.94C545.428 482.138 544.72 481.075 543.978 480.101L541.354 473.372L542.225 472.951Z"/><path fill="#2DC373" d="M668.649 534.418C672.968 535.801 677.483 537.161 681.704 538.776L699.343 545.074L700.698 546.044C700.631 546.51 700.55 547.066 700.456 547.713C704.98 555.523 714.456 568.649 719.226 575.501C709.857 577.454 697.952 579.56 688.531 580.702C680.714 577.149 667.872 568.569 660.154 566.666C658.625 561.296 641.018 549.765 635.514 544.758C642.204 543.199 662.449 537.172 668.649 534.418Z"/><defs><linearGradient id="gradient_25" gradientUnits="userSpaceOnUse" x1="664.41479" y1="529.2644" x2="632.26147" y2="532.0105"><stop offset="0" stop-color="#14AA56"/><stop offset="1" stop-color="#147E41"/></linearGradient></defs><path fill="url(#gradient_25)" d="M628.934 519.412C633.226 520.967 641.883 524.969 645.724 524.756C650.419 527.932 662.662 532.173 668.649 534.418C662.449 537.172 642.204 543.199 635.514 544.758C641.018 549.765 658.625 561.296 660.154 566.666L659.381 566.601L657.773 565.408C653.457 559.108 637.496 550.002 632.125 543.987C626.719 539.052 609.426 526.746 606.493 522.837L606.718 522.363C614.02 527.639 624.659 537.163 632.378 542.732C633.049 542.684 633.623 542.644 634.098 542.61C634.678 541.874 635.432 540.966 635.239 539.528C634.464 533.736 632.693 527.571 631.408 521.863C630.386 520.85 629.561 520.033 628.934 519.412Z"/><path fill="#0B3D28" d="M542.225 472.951C546.96 473.654 550.825 474.077 555.271 475.997C558.57 478.032 578.885 490.406 580.743 492.199L580.685 493.692C582.224 494.587 583.596 495.329 585.007 496.429C582.168 497.945 583.006 497.504 579.428 497.273C575.34 497.096 554.176 484.88 546.324 482.94C545.428 482.138 544.72 481.075 543.978 480.101L541.354 473.372L542.225 472.951Z"/><path fill="#2E53B1" d="M615.956 503.797C623.224 508.217 639.535 519.005 645.724 524.756C641.883 524.969 633.226 520.967 628.934 519.412C626.372 517.645 607.405 510.022 603.71 508.685L602.781 504.564C606.17 504.573 613.196 505.05 615.956 503.797Z"/><path fill="#145072" d="M580.743 492.199C590.065 497.641 590.071 496.722 601.032 497.455L605.551 497.706L611.104 500.729L615.956 503.797C613.196 505.05 606.17 504.573 602.781 504.564L603.71 508.685C595.781 505.536 587.07 501.158 579.428 497.273C583.006 497.504 582.168 497.945 585.007 496.429C583.596 495.329 582.224 494.587 580.685 493.692L580.743 492.199Z"/><path fill="#315CBD" d="M601.032 497.455L605.551 497.706L611.104 500.729L615.956 503.797C613.196 505.05 606.17 504.573 602.781 504.564C600.402 503.275 595.415 500.667 594.229 498.559C596.227 497.195 598.294 497.573 601.032 497.455Z"/><path fill="#0E1633" d="M862.248 325.863C878.003 316.11 901.69 317.665 911.973 334.54C919.469 346.842 918.435 363.141 917.936 376.951C917.895 387.752 917.84 398.485 918.039 409.286L902.29 409.331C900.928 409.207 899.565 409.082 898.203 408.957C894.042 395.009 902.808 354.4 891.901 344.109C875.907 329.017 850.839 343.267 854.536 366.855C855.155 370.804 854.693 388.3 854.522 392.128L854.611 392.603C854.766 396.482 855.667 406.418 853.816 409.103L852.122 409.344C846.071 409.042 840.324 409.181 834.283 409.291C833.892 401.385 834.091 391.568 834.052 383.518L833.968 322.148L853.985 321.95L853.872 334.038C857.132 330.153 858.285 329.026 862.248 325.863Z"/><path fill="#2E2680" d="M833.968 322.148L853.985 321.95L853.872 334.038C857.132 330.153 858.285 329.026 862.248 325.863C861.962 330.745 861.746 335.028 861.775 339.916C854.549 346.871 844.551 353.504 836.8 360.136C840.435 366.226 851.353 390.745 854.522 392.128L854.611 392.603C854.766 396.482 855.667 406.418 853.816 409.103L852.122 409.344C846.071 409.042 840.324 409.181 834.283 409.291C833.892 401.385 834.091 391.568 834.052 383.518L833.968 322.148Z"/><path fill="#0E1633" d="M834.052 383.518L834.348 383.48C835.034 384.949 840.945 390.321 842.813 392.85L854.611 392.603C854.766 396.482 855.667 406.418 853.816 409.103L852.122 409.344C846.071 409.042 840.324 409.181 834.283 409.291C833.892 401.385 834.091 391.568 834.052 383.518Z"/><path fill="#1E7088" d="M842.813 392.85L854.611 392.603C854.766 396.482 855.667 406.418 853.816 409.103L852.122 409.344C848.856 403.796 845.868 398.515 842.813 392.85Z"/><path fill="#F4684F" d="M917.936 376.951C917.895 387.752 917.84 398.485 918.039 409.286L902.29 409.331C907.084 398.489 912.592 387.525 917.936 376.951Z"/><path fill="#0E1633" d="M506.463 294.005C516.908 281.972 529.051 282.903 543.117 286.351C543.248 292.406 543.295 298.11 543.191 304.165C525.033 298.937 521.318 304.715 521.35 321.663C528.382 321.63 535.573 321.513 542.591 321.628L542.622 338.567L521.218 338.563C521.128 358.938 521.534 381.087 521.015 401.32C521.092 403.626 521.487 406.258 520.314 408.096C518.364 409.229 515.686 408.875 513.334 408.813L499.698 409.301L500.209 338.702C497.647 338.41 490.354 338.559 487.443 338.546L487.364 322.169L500.265 322.043C500.126 310.675 500.251 303.773 506.463 294.005Z"/><path fill="#213C96" d="M506.463 294.005C510.131 307.688 511.287 325.163 514.069 339.22C510.091 339.076 503.998 339.061 500.209 338.702C497.647 338.41 490.354 338.559 487.443 338.546L487.364 322.169L500.265 322.043C500.126 310.675 500.251 303.773 506.463 294.005Z"/><path fill="#213C96" d="M513.334 408.813C516.329 405.336 517.516 404.222 521.015 401.32C521.092 403.626 521.487 406.258 520.314 408.096C518.364 409.229 515.686 408.875 513.334 408.813Z"/><path fill="#2DC373" d="M546.902 137.042C550.291 136.372 568.67 135.403 572.596 135.383C579.234 139.031 592.179 149.847 597.238 151.488C605.778 152.757 615.362 155.026 623.913 156.866L625.347 158.503C627.639 160.831 640.186 172.925 640.446 174.828L640.314 175.072L636.71 173.272C633.216 173.848 626.786 174.209 624.787 176.181C624.333 178.908 625.585 178.287 626.601 181.111C624.366 179.558 621.981 176.51 619.396 174.499C614.038 176.821 588.1 175.471 579.803 179.446C581.135 180.353 581.274 180.404 582.811 180.92C582.472 181.141 581.787 181.697 581.506 181.661L574.557 178.705L570.89 176.637C559.885 171.681 548.133 166.143 537.007 161.653C522.642 155.422 508.552 149.251 494.674 141.987C512.013 139.755 529.452 138.107 546.902 137.042Z"/><defs><linearGradient id="gradient_26" gradientUnits="userSpaceOnUse" x1="571.88263" y1="161.82799" x2="500.44705" y2="136.4662"><stop offset="0" stop-color="#4CD993"/><stop offset="1" stop-color="#7DF8D2"/></linearGradient></defs><path fill="url(#gradient_26)" d="M494.674 141.987C512.013 139.755 529.452 138.107 546.902 137.042C551.651 148.162 565.573 162.505 570.89 176.637C559.885 171.681 548.133 166.143 537.007 161.653C522.642 155.422 508.552 149.251 494.674 141.987Z"/><path fill="#167841" d="M597.238 151.488C605.778 152.757 615.362 155.026 623.913 156.866L625.347 158.503C627.639 160.831 640.186 172.925 640.446 174.828L640.314 175.072L636.71 173.272C633.216 173.848 626.786 174.209 624.787 176.181C624.333 178.908 625.585 178.287 626.601 181.111C624.366 179.558 621.981 176.51 619.396 174.499C615.716 171.653 602.897 157.482 600.118 153.567L597.238 151.488Z"/><path fill="#FA874C" d="M597.238 151.488C605.778 152.757 615.362 155.026 623.913 156.866L625.347 158.503C627.639 160.831 640.186 172.925 640.446 174.828L640.314 175.072L636.71 173.272C624.713 166.494 612.301 160.039 600.118 153.567L597.238 151.488Z"/><path fill="#0E1633" d="M790.635 322.186C797.268 322.166 803.892 322.131 810.525 322.224C810.534 327.873 810.703 334.309 810.528 339.889C810.646 354.965 810.823 370.07 810.705 385.143L810.822 394.902C807.774 396.71 791.511 407.6 789.833 407.976L789.907 407.224C790.035 402.697 790.03 398.636 789.928 394.108C780.271 407.878 763.273 410.563 748.064 405.66C748.561 404.159 758.388 391.832 760.089 389.566C785.254 392.492 796.939 368.621 785.631 347.456C783.884 345.623 782.217 343.846 780.529 341.958C781.954 340.015 781.136 328.041 781.043 324.839C785.151 327.63 787.237 329.337 790.526 333.257L790.635 322.186Z"/><path fill="#703A8E" d="M790.635 322.186C797.268 322.166 803.892 322.131 810.525 322.224C810.534 327.873 810.703 334.309 810.528 339.889C810.474 342.894 810.736 352.458 809.338 354.476L808.689 354.892C804.768 353.546 788.713 347.445 785.631 347.456C783.884 345.623 782.217 343.846 780.529 341.958C781.954 340.015 781.136 328.041 781.043 324.839C785.151 327.63 787.237 329.337 790.526 333.257L790.635 322.186Z"/><path fill="#146168" d="M808.689 354.892L809.338 354.476C810.736 352.458 810.474 342.894 810.528 339.889C810.646 354.965 810.823 370.07 810.705 385.143L810.822 394.902C807.774 396.71 791.511 407.6 789.833 407.976L789.907 407.224C790.035 402.697 790.03 398.636 789.928 394.108C793.643 386.878 805.022 358.799 808.689 354.892Z"/><path fill="#0E1633" d="M789.907 407.224C796.337 401.208 806.042 388.3 810.705 385.143L810.822 394.902C807.774 396.71 791.511 407.6 789.833 407.976L789.907 407.224Z"/><defs><linearGradient id="gradient_27" gradientUnits="userSpaceOnUse" x1="409.4108" y1="233.95898" x2="495.52127" y2="250.58141"><stop offset="0" stop-color="#52FEFF"/><stop offset="1" stop-color="#37BCDB"/></linearGradient></defs><path fill="url(#gradient_27)" d="M485.229 202.082C493.764 202.018 502.002 203.373 510.16 203.558C513.534 204.347 514.599 204.448 518.08 204.549C513.727 208.736 509.95 212.239 505.343 216.134L505.711 217.003C507.136 217.212 508.58 217.396 509.987 217.696C501.121 218.364 502.915 223.914 498.701 223.835C493.586 228.139 480.746 238.507 477.725 244.155C460.343 251.482 433.385 256.246 416.897 264.121C411.197 265.199 402.859 268.528 397.188 270.593L435.443 239.354C443.675 232.623 454.512 223.209 463.658 217.898C460.496 217.789 452.422 218.569 449.084 218.812C459.603 214.669 475.757 207.774 485.229 202.082Z"/><path fill="#2B9AC6" d="M485.229 202.082C493.764 202.018 502.002 203.373 510.16 203.558C513.534 204.347 514.599 204.448 518.08 204.549C513.727 208.736 509.95 212.239 505.343 216.134L505.711 217.003C507.136 217.212 508.58 217.396 509.987 217.696C501.121 218.364 502.915 223.914 498.701 223.835C499.409 222.247 503.378 218.701 504.841 217.28C497.884 217.204 468.087 216.446 463.658 217.898C460.496 217.789 452.422 218.569 449.084 218.812C459.603 214.669 475.757 207.774 485.229 202.082Z"/><path fill="#F4684F" d="M604.342 539.192C607.579 542.07 612.588 546.819 616.121 548.882C622.762 546.139 627.485 549.007 632.125 543.987C637.496 550.002 653.457 559.108 657.773 565.408L659.381 566.601C651.773 566.73 644.284 566.681 636.68 566.624C651.318 578.539 667.578 592.335 682.498 603.601C664.51 598.462 646.496 592.583 628.599 587.062C610.025 581.333 591.972 576.052 573.93 568.729L571.844 565.554C576.53 565.081 580.456 564.706 585.164 564.596C588.117 564.308 591.097 563.942 594.048 563.604C595.952 561.874 598.256 562.008 600.91 561.74C605.103 557.995 597.739 545.592 601.823 539.248L604.342 539.192Z"/><path fill="#D95C79" d="M604.342 539.192C607.579 542.07 612.588 546.819 616.121 548.882L620.206 550.405C619.956 553.88 626.244 557.604 629.034 559.744C617.37 562.003 605.839 562.695 594.048 563.604C595.952 561.874 598.256 562.008 600.91 561.74C605.103 557.995 597.739 545.592 601.823 539.248L604.342 539.192Z"/><path fill="#167841" d="M632.125 543.987C637.496 550.002 653.457 559.108 657.773 565.408C645.852 561.498 632.36 554.954 620.206 550.405L616.121 548.882C622.762 546.139 627.485 549.007 632.125 543.987Z"/><defs><linearGradient id="gradient_28" gradientUnits="userSpaceOnUse" x1="593.93921" y1="368.72397" x2="545.70776" y2="342.12354"><stop offset="0" stop-color="#0D1629"/><stop offset="1" stop-color="#0F164A"/></linearGradient></defs><path fill="url(#gradient_28)" d="M574.541 334.862C582.771 323.547 589.724 320.223 603.708 320.014C603.825 326.801 603.895 333.276 603.774 340.076C595.225 340.276 587.483 340.67 581.132 347.366C573.642 355.262 574.828 366.764 574.805 376.802C574.781 387.529 575.113 398.254 574.871 408.993L566.281 409.117L554.465 409.265C554.113 398.522 554.279 387.274 554.293 376.487L554.168 321.843C560.874 321.751 567.67 321.598 574.369 321.636L574.541 334.862Z"/><path fill="#2E2680" d="M554.293 376.487C557.66 381.049 567.149 403.71 566.281 409.117L554.465 409.265C554.113 398.522 554.279 387.274 554.293 376.487Z"/><path fill="#2E2680" d="M721.805 443.081L731.981 450.466L737.657 453.502C752.677 459.63 766.017 460.776 782.033 457.967L780.419 459.825C773.994 464.684 745.802 475.339 736.667 479.154C727.28 482.648 711.782 488.696 702.309 490.828C694.477 493.361 680.058 497.665 672.189 498.561C671.524 498.781 671.594 498.618 670.682 498.387C668.791 497.69 661.75 496.37 659.035 495.642C661.034 493.668 663.053 491.725 664.911 489.617C669.531 487.992 677.528 484.194 682.274 482.139C692.119 476.387 707.512 473.839 711.748 462.346C710.191 463.178 709.932 463.269 708.196 463.592C712.821 456.376 716.821 451.325 721.805 443.081Z"/><path fill="#213C96" d="M721.805 443.081L731.981 450.466L737.657 453.502C730.442 459.382 720.22 465.139 712.1 471.127C707.903 473.775 695.303 481.997 691.986 485.089L687.84 487.777C684.633 490.277 673.401 496.623 672.189 498.561C671.524 498.781 671.594 498.618 670.682 498.387C668.791 497.69 661.75 496.37 659.035 495.642C661.034 493.668 663.053 491.725 664.911 489.617C669.531 487.992 677.528 484.194 682.274 482.139C692.119 476.387 707.512 473.839 711.748 462.346C710.191 463.178 709.932 463.269 708.196 463.592C712.821 456.376 716.821 451.325 721.805 443.081Z"/><path fill="#1C236C" d="M664.911 489.617C669.531 487.992 677.528 484.194 682.274 482.139C680.071 485.841 677.44 484.379 676.162 487.242C677.155 489.253 677.315 489.82 679.38 490.89C683.276 490.772 683.891 487.179 687.84 487.777C684.633 490.277 673.401 496.623 672.189 498.561C671.524 498.781 671.594 498.618 670.682 498.387C668.791 497.69 661.75 496.37 659.035 495.642C661.034 493.668 663.053 491.725 664.911 489.617Z"/><defs><linearGradient id="gradient_29" gradientUnits="userSpaceOnUse" x1="716.84729" y1="448.23685" x2="721.61768" y2="455.56473"><stop offset="0" stop-color="#183686"/><stop offset="1" stop-color="#0A1554"/></linearGradient></defs><path fill="url(#gradient_29)" d="M721.805 443.081L731.981 450.466C728.262 454.306 712.944 459.443 711.748 462.346C710.191 463.178 709.932 463.269 708.196 463.592C712.821 456.376 716.821 451.325 721.805 443.081Z"/><path fill="#0E1633" d="M691.986 485.089C695.268 484.851 696.502 484.629 699.708 483.831C696.331 485.244 688.89 487.81 687.195 490.86C688.368 493.109 687.658 492.445 689.788 493.494C694.413 493.488 700.004 489.046 702.309 490.828C694.477 493.361 680.058 497.665 672.189 498.561C673.401 496.623 684.633 490.277 687.84 487.777L691.986 485.089Z"/><path fill="#0E1633" d="M759.962 319.235C769.198 319.332 772.683 319.927 781.043 324.839C781.136 328.041 781.954 340.015 780.529 341.958C760.919 331.176 744.024 339.962 740.277 361.765L735.268 361.48C730.172 361.778 724.618 362.939 719.555 363.871C720.499 339.184 734.506 321.142 759.962 319.235Z"/><path fill="#F4684F" d="M759.962 319.235C769.198 319.332 772.683 319.927 781.043 324.839C781.136 328.041 781.954 340.015 780.529 341.958C775.859 335.744 765.68 325.507 759.962 319.235Z"/><path fill="#46DBEC" d="M671.521 128.037C674.439 130.508 677.23 133.094 679.955 135.777C697.745 153.291 715.351 170.994 733.404 188.239C734.512 192.976 735.254 202.603 735.3 207.66L730.875 204.449C728.953 200.799 702.145 185.987 697.006 183.701L696.643 186.588L688.241 166.968L685.473 160.503C683.656 154.177 674.544 134.705 671.521 128.037Z"/><path fill="#2E2680" d="M789.833 407.976C791.511 407.6 807.774 396.71 810.822 394.902C810.738 409.061 811.443 417.288 803.801 429.799C795.667 439.602 788.95 443.921 776.072 445.714C770.104 446.422 767.773 446.529 761.761 446.226L761.951 444.31C761.9 440.237 761.592 433.283 762.343 429.549C765.486 429.407 769.816 429.343 772.847 428.975C784.797 424.328 786.923 419.845 789.833 407.976Z"/><path fill="#0E1633" d="M776.072 445.714C777.599 442.026 794.623 431.993 798.714 429.765C801.109 428.462 801.723 429.018 803.801 429.799C795.667 439.602 788.95 443.921 776.072 445.714Z"/><path fill="#1C236C" d="M762.343 429.549C765.486 429.407 769.816 429.343 772.847 428.975C769.993 433.966 765.477 439.628 761.951 444.31C761.9 440.237 761.592 433.283 762.343 429.549Z"/><path fill="#0E1633" d="M719.555 363.871C724.618 362.939 730.172 361.778 735.268 361.48L735.661 369.275C736.468 371.538 736.849 372.513 737.234 374.91C738.368 372.093 738.577 371.764 740.709 369.605C744.137 380.77 748.332 386.426 760.089 389.566C758.388 391.832 748.561 404.159 748.064 405.66L742.943 403.662C726.712 394.728 720.68 382.699 719.66 364.654L719.555 363.871Z"/><path fill="#2E2680" d="M737.234 374.91C738.368 372.093 738.577 371.764 740.709 369.605C744.137 380.77 748.332 386.426 760.089 389.566C758.388 391.832 748.561 404.159 748.064 405.66L742.943 403.662C743.169 398.716 738.572 380.593 737.234 374.91Z"/><path fill="#25A364" d="M719.555 363.871C724.618 362.939 730.172 361.778 735.268 361.48L735.661 369.275C730.221 367.198 725.278 366.051 719.66 364.654L719.555 363.871Z"/><path fill="#213C96" d="M654.729 485.163C661.489 482.327 671.284 477.9 677.967 475.604C674.291 479.798 667.732 486.043 664.911 489.617C663.053 491.725 661.034 493.668 659.035 495.642C661.75 496.37 668.791 497.69 670.682 498.387C667.981 500.776 654.904 502.855 650.597 503.931C642.556 505.076 630.165 502.241 621.884 500.657C616.959 500.787 613.495 498.692 611.104 500.729L605.551 497.706L598.301 493.674C606.285 493.794 615.207 493.439 623.319 493.341C627.986 493.045 633.458 492.831 637.993 492.056C642.527 489.84 649.872 487.13 654.729 485.163Z"/><path fill="#D95C79" d="M654.729 485.163C661.489 482.327 671.284 477.9 677.967 475.604C674.291 479.798 667.732 486.043 664.911 489.617C663.053 491.725 661.034 493.668 659.035 495.642L657.768 495.501C655.041 493.149 653.326 494.752 651.582 490.53C652.847 487.7 653.208 488.145 654.729 485.163Z"/><path fill="#9E4286" d="M637.993 492.056C642.527 489.84 649.872 487.13 654.729 485.163C653.208 488.145 652.847 487.7 651.582 490.53C653.326 494.752 655.041 493.149 657.768 495.501C653.212 495.272 642.272 493.522 637.993 492.056Z"/><path fill="#0E1633" d="M598.301 493.674C606.285 493.794 615.207 493.439 623.319 493.341C620.177 495.371 613.77 495.258 609.868 495.603C611.849 497.331 619.11 499.194 621.884 500.657C616.959 500.787 613.495 498.692 611.104 500.729L605.551 497.706L598.301 493.674Z"/><path fill="#66EDB4" d="M700.698 546.044C719.375 552.275 745.877 562.388 763.996 566.986C748.335 569.283 734.703 572.112 719.226 575.501C714.456 568.649 704.98 555.523 700.456 547.713C700.55 547.066 700.631 546.51 700.698 546.044Z"/><path fill="#0E1633" d="M722.385 416.669C728.829 416.383 736.061 416.496 742.566 416.455C745.546 422.457 747.611 424.553 753.308 427.618C755.941 428.285 759.733 429.39 762.343 429.549C761.592 433.283 761.9 440.237 761.951 444.31L761.761 446.226C752.293 445.244 746.874 443.79 738.454 439.342C728.653 432.513 725.698 427.789 722.385 416.669Z"/><path fill="#146168" d="M753.308 427.618C755.941 428.285 759.733 429.39 762.343 429.549C761.592 433.283 761.9 440.237 761.951 444.31L761.761 446.226C752.293 445.244 746.874 443.79 738.454 439.342C743.387 435.868 748.58 431.46 753.308 427.618Z"/><path fill="#213C96" d="M708.369 257.403C709.997 259.216 714.604 265.423 715.354 266.16C718.494 270.823 730.085 291.13 733.092 292.284C733.291 300.212 732.881 307.335 732.15 315.23C727.337 308.21 723.389 301.863 718.984 294.573C715.52 290.194 708.109 282.923 704.031 278.663C706.272 276.021 707.392 269.499 707.858 266.062L710.587 266.722C709.41 264.052 708.904 260.34 708.369 257.403Z"/><path fill="#25A364" d="M707.858 266.062L710.587 266.722C713.187 270.205 719.551 289.884 718.984 294.573C715.52 290.194 708.109 282.923 704.031 278.663C706.272 276.021 707.392 269.499 707.858 266.062Z"/><path fill="#0B3D28" d="M620.607 219.988C623.13 221.204 629.683 223.725 632.354 222.838L634 223.937C635.286 226.996 648.71 238.708 652.092 241.773C641.201 239.916 630.579 238.501 619.776 236.751L609.368 235.517C609.456 231.748 609.484 228.217 609.428 224.445C610.951 223.861 612.434 223.158 613.919 222.483L620.607 219.988Z"/><path fill="#25A364" d="M613.919 222.483L620.607 219.988C621.853 225.532 620.73 231.186 619.776 236.751L609.368 235.517C609.456 231.748 609.484 228.217 609.428 224.445C610.951 223.861 612.434 223.158 613.919 222.483Z"/><defs><linearGradient id="gradient_30" gradientUnits="userSpaceOnUse" x1="582.9137" y1="117.45049" x2="620.58209" y2="139.97049"><stop offset="0" stop-color="#62F3C3" stop-opacity="0.98431373"/><stop offset="1" stop-color="#44DA91"/></linearGradient></defs><path fill="url(#gradient_30)" d="M580.915 111.721C595.861 119.382 611.926 125.992 627.188 133.387C622.306 135.443 621.399 139.988 618.002 143.767C615.546 146.499 617.584 146.791 616.511 148.527C605.96 138.67 591.472 122.574 580.915 111.721Z"/><path fill="#1E7088" d="M543.541 248.498C547.129 250.053 549.474 251.131 552.935 253.068C550.613 254.691 548.069 256.37 545.978 258.252L545.365 258.755C541.834 263.036 537.689 267.065 533.768 271.015C528.18 271.122 523.758 271.12 518.251 272.006L521.312 266.784C522.505 263.92 523.877 261.006 525.162 258.172C526.308 256.748 532.812 251.696 534.747 249.995L539.711 250.005L543.541 248.498Z"/><path fill="#9E4286" d="M521.312 266.784C528.171 264.548 538.945 260.022 545.365 258.755C541.834 263.036 537.689 267.065 533.768 271.015C528.18 271.122 523.758 271.12 518.251 272.006L521.312 266.784Z"/><path fill="#2B9AC6" d="M543.541 248.498C547.129 250.053 549.474 251.131 552.935 253.068C550.613 254.691 548.069 256.37 545.978 258.252C543.094 255.877 541.145 253.444 539.711 250.005L543.541 248.498Z"/><path fill="#C78EDF" d="M576.003 572.372C583.095 583.423 589.633 595.509 596.888 606.958C589.106 601.534 570.51 587.927 563.643 581.827C567.304 578.796 569.032 576.413 572.195 572.987C573.287 571.804 574.158 572.245 576.003 572.372Z"/><path fill="#315CBD" d="M401.249 229.144C402.568 233.378 404.64 245.172 405.611 250.122L386.929 256.651C385.605 257.224 385.456 257.189 383.993 257.274C385.117 253.992 398.868 232.858 401.249 229.144Z"/><path fill="#3F6BCA" d="M547.905 241.114C553.534 242.143 556.795 239.843 562.251 239.196C562.594 239.989 562.874 240.791 563.362 241.484C567.514 240.596 568.698 239.986 572.409 242.062C566.1 245.634 559.28 249.673 552.935 253.068C549.474 251.131 547.129 250.053 543.541 248.498L539.711 250.005L534.747 249.995C539.119 245.545 542.67 244.407 547.905 241.114Z"/><path fill="#2E2680" d="M547.905 241.114C553.534 242.143 556.795 239.843 562.251 239.196C562.594 239.989 562.874 240.791 563.362 241.484C556.693 242.904 549.838 245.795 543.541 248.498L539.711 250.005L534.747 249.995C539.119 245.545 542.67 244.407 547.905 241.114Z"/><path fill="#46DBEC" d="M666.77 107.069C672.095 108.372 691.236 115.168 696.802 117.326C696.384 118.515 694.25 119.254 692.812 120.027C688.752 122.099 684.75 123.992 680.626 125.93L666.77 107.069Z"/><defs><linearGradient id="gradient_31" gradientUnits="userSpaceOnUse" x1="516.82751" y1="431.32217" x2="508.79971" y2="432.23947"><stop offset="0" stop-color="#1F4D90"/><stop offset="1" stop-color="#173074"/></linearGradient></defs><path fill="url(#gradient_31)" d="M508.263 436.874C507.683 431.241 507.195 425.435 506.528 419.836C512.989 426.818 521.134 438.206 527.074 446.072C524.774 446.945 521.712 447.821 520.15 449.599L519.896 450.922C517.54 448.742 512.452 438.622 510.745 435.327L508.263 436.874Z"/><path fill="#46DBEC" d="M527.886 581.596L529.184 582.056C532.725 588.482 535.091 593.636 538.066 600.286L526.307 595.668L511.807 589.608L527.886 581.596Z"/><path fill="#2DC373" d="M685.413 260.191C689.496 261.145 692.496 261.81 696.674 262.384L697.377 262.175L697.942 262.646C701.028 263.816 704.693 265.341 707.858 266.062C707.392 269.499 706.272 276.021 704.031 278.663L696.964 271.759C693.109 268.052 689.203 263.999 685.413 260.191Z"/><path fill="#66EDB4" d="M685.413 260.191C689.496 261.145 692.496 261.81 696.674 262.384L697.377 262.175L697.942 262.646C697.974 266.408 697.621 268.118 696.964 271.759C693.109 268.052 689.203 263.999 685.413 260.191Z"/><path fill="#2DC373" d="M418.562 475.621L427.49 477.9C428.556 478.344 430.304 478.79 430.35 479.606C430.683 485.485 427.813 497.585 426.747 503.376L422.273 488.34C421.146 484.085 419.828 479.84 418.562 475.621Z"/><path fill="#25A364" d="M418.562 475.621L427.49 477.9C426.169 481.894 425.139 485.059 422.273 488.34C421.146 484.085 419.828 479.84 418.562 475.621Z"/><path fill="#F4684F" d="M542.225 472.951C541.596 469.031 546.972 466.072 549.815 464.03C555.832 468.072 562.061 472.401 568.253 476.118L555.271 475.997C550.825 474.077 546.96 473.654 542.225 472.951Z"/><path fill="#25A364" d="M668.24 151.889C674.268 154.671 679.619 157.427 685.473 160.503L688.241 166.968C683.769 166.526 678.167 165.563 673.631 164.916L672.78 164.426C671.14 161.798 668.102 154.997 668.24 151.889Z"/><path fill="#2DC373" d="M473.735 145.812C478.105 148.046 488.588 155.245 493.172 158.163C486.979 158.101 480.558 158.248 474.346 158.304C473.993 154.021 473.859 150.104 473.735 145.812Z"/><path fill="#F4684F" d="M768.28 549.337C772.726 549.928 777.804 550.312 782.317 550.755L774.11 556.625L766.234 563.567C767.052 559.145 767.655 553.857 768.28 549.337Z"/><path fill="#C78EDF" d="M365.489 353.975C368.296 355.002 372.023 360.005 374.009 362.426C372.188 363.749 370.38 365.169 368.592 366.543L362.442 371.538L365.489 353.975Z"/><path fill="#3F6BCA" d="M502.517 544.081C503.928 545.411 509.669 559.282 509.777 561.756L500.739 560.645L502.517 544.081Z"/><path fill="#3F6BCA" d="M389.815 309.641C390.727 311.636 391.685 321.438 391.986 324.066L383.271 325.773L382.449 325.629L382.139 324.832C383.899 319.999 387.276 314.257 389.815 309.641Z"/><path fill="#1C236C" d="M566.084 235.414C571.602 235.982 576.338 236.391 581.876 236.606C579.621 237.967 574.61 241.173 572.409 242.062C568.698 239.986 567.514 240.596 563.362 241.484C562.874 240.791 562.594 239.989 562.251 239.196C563.847 238.262 564.865 236.837 566.084 235.414Z"/><path fill="#2DC373" d="M652.929 116.863C656.41 118.834 662.398 121.13 662.85 125.223L660.699 127.686L656.286 132.257C655.363 126.407 654.462 122.602 652.929 116.863Z"/><path fill="#1C236C" d="M735.268 361.48L740.277 361.765C740.415 364.342 740.515 367.045 740.709 369.605C738.577 371.764 738.368 372.093 737.234 374.91C736.849 372.513 736.468 371.538 735.661 369.275L735.268 361.48Z"/><path fill="#FA874C" d="M610.291 594.654C614.265 594.707 617.74 595.646 617.937 600.439L616.564 601.55C612.326 601.551 609.624 600.598 609.08 595.895L610.291 594.654Z"/></svg>