<?xml version="1.0" encoding="UTF-8" standalone="no"?>
<svg width="641.60004" height="495.24002" viewBox="0 0 641.60004 495.24002" version="1.1" id="svg179"
   xmlns="http://www.w3.org/2000/svg"
   xmlns:svg="http://www.w3.org/2000/svg">
   <defs id="defs62">
      <linearGradient gradientUnits="userSpaceOnUse" id="tquOAhBg" x1="607.39001" y1="547.19" x2="552.91998" y2="524.13" gradientTransform="translate(-375.23001,-111.72)">
         <stop offset="0" stop-color="#f4a8ff" id="stop1" />
         <stop offset="1" stop-color="#f4a8ff" id="stop2" />
      </linearGradient>
      <linearGradient gradientUnits="userSpaceOnUse" id="lgHCGPiy" x1="509.45999" y1="485.48999" x2="570.28998" y2="496.20001" gradientTransform="translate(-375.23001,-111.72)">
         <stop offset="0" stop-color="#312c85" id="stop3" />
         <stop offset="1" stop-color="#f4a8ff" id="stop4" />
      </linearGradient>
      <linearGradient gradientUnits="userSpaceOnUse" id="rj8zmbiK" x1="451.69" y1="362.75" x2="475.57001" y2="406.92001" gradientTransform="translate(-375.23001,-111.72)">
         <stop offset="0" stop-color="#0f172b" id="stop5" />
         <stop offset="1" stop-color="#312c85" id="stop6" />
      </linearGradient>
      <linearGradient gradientUnits="userSpaceOnUse" id="u5QLpz8a" x1="510.73999" y1="526.71002" x2="577.63" y2="561.84003" gradientTransform="translate(-375.23001,-111.72)">
         <stop offset="0" stop-color="#62748e" id="stop7" />
         <stop offset="1" stop-color="#62748e" id="stop8" />
      </linearGradient>
      <linearGradient gradientUnits="userSpaceOnUse" id="bJp9F0Ky" x1="479.87" y1="512.53003" x2="553.15997" y2="559.77002" gradientTransform="translate(-375.23001,-111.72)">
         <stop offset="0" stop-color="#62748e" id="stop9" />
         <stop offset="1" stop-color="#cad5e2" id="stop10" />
      </linearGradient>
      <linearGradient gradientUnits="userSpaceOnUse" id="p7WIMDuu" x1="497.56" y1="463.84" x2="543.97998" y2="483.76001" gradientTransform="translate(-375.23001,-111.72)">
         <stop offset="0" stop-color="#0f172b" id="stop11" />
         <stop offset="1" stop-color="#312c85" id="stop12" />
      </linearGradient>
      <linearGradient gradientUnits="userSpaceOnUse" id="C3XbPYKU" x1="459.48999" y1="397.66" x2="476.07999" y2="476.48001" gradientTransform="translate(-375.23001,-111.72)">
         <stop offset="0" stop-color="#312c85" id="stop13" />
         <stop offset="1" stop-color="#62748e" id="stop14" />
      </linearGradient>
      <linearGradient gradientUnits="userSpaceOnUse" id="CIvBvMfR" x1="486.54001" y1="486.06" x2="471.04999" y2="400.07999" gradientTransform="translate(-375.23001,-111.72)">
         <stop offset="0" stop-color="#62748e" id="stop15" />
         <stop offset="1" stop-color="#312c85" id="stop16" />
      </linearGradient>
      <linearGradient gradientUnits="userSpaceOnUse" id="JsDSI0cW" x1="476.35999" y1="478.64001" x2="478.39001" y2="519.46002" gradientTransform="translate(-375.23001,-111.72)">
         <stop offset="0" stop-color="#62748e" id="stop17" />
         <stop offset="1" stop-color="#62748e" id="stop18" />
      </linearGradient>
      <linearGradient gradientUnits="userSpaceOnUse" id="hFCsUbke" x1="726.79999" y1="226.11" x2="734.27002" y2="307.94" gradientTransform="translate(-375.23001,-111.72)">
         <stop offset="0" stop-color="#62748e" id="stop19" />
         <stop offset="1" stop-color="#312c85" id="stop20" />
      </linearGradient>
      <linearGradient gradientUnits="userSpaceOnUse" id="bBjMEmKR" x1="785.07001" y1="266.14999" x2="732.15002" y2="169.13" gradientTransform="translate(-375.23001,-111.72)">
         <stop offset="0" stop-color="#312c85" id="stop21" />
         <stop offset="1" stop-color="#62748e" id="stop22" />
      </linearGradient>
      <linearGradient gradientUnits="userSpaceOnUse" id="UQuKrFiu" x1="691.47998" y1="221.81" x2="641.58002" y2="150.28999" gradientTransform="translate(-375.23001,-111.72)">
         <stop offset="0" stop-color="#62748e" id="stop23" />
         <stop offset="1" stop-color="#cad5e2" id="stop24" />
      </linearGradient>
      <linearGradient gradientUnits="userSpaceOnUse" id="GH3iagEV" x1="728.28998" y1="221.48" x2="666.14001" y2="208.66" gradientTransform="translate(-375.23001,-111.72)">
         <stop offset="0" stop-color="#62748e" id="stop25" />
         <stop offset="1" stop-color="#62748e" id="stop26" />
      </linearGradient>
      <linearGradient gradientUnits="userSpaceOnUse" id="MEbKiAtf" x1="737.16998" y1="239.38" x2="731.72998" y2="207.22" gradientTransform="translate(-375.23001,-111.72)">
         <stop offset="0" stop-color="#62748e" id="stop27" />
         <stop offset="1" stop-color="#62748e" id="stop28" />
      </linearGradient>
      <linearGradient gradientUnits="userSpaceOnUse" id="xqFxlF7i" x1="512.19" y1="221.03999" x2="443.53" y2="327.60001" gradientTransform="translate(-375.23001,-111.72)">
         <stop offset="0" stop-color="#0f172b" id="stop29" />
         <stop offset="1" stop-color="#62748e" id="stop30" />
      </linearGradient>
      <linearGradient gradientUnits="userSpaceOnUse" id="cO7HeDHg" x1="409.45999" y1="371.76001" x2="433.29001" y2="434.31" gradientTransform="translate(-375.23001,-111.72)">
         <stop offset="0" stop-color="#62748e" id="stop31" />
         <stop offset="1" stop-color="#cad5e2" id="stop32" />
      </linearGradient>
      <linearGradient gradientUnits="userSpaceOnUse" id="PYWs6goj" x1="479.35001" y1="240.57001" x2="380.72" y2="296.38" gradientTransform="translate(-375.23001,-111.72)">
         <stop offset="0" stop-color="#62748e" id="stop33" />
         <stop offset="1" stop-color="#f4a8ff" id="stop34" />
      </linearGradient>
      <linearGradient gradientUnits="userSpaceOnUse" id="JfdF8sq4" x1="747.29999" y1="462.57999" x2="787.41998" y2="479.73999" gradientTransform="translate(-375.23001,-111.72)">
         <stop offset="0" stop-color="#f4a8ff" id="stop35" />
         <stop offset="1" stop-color="#62748e" id="stop36" />
      </linearGradient>
      <linearGradient gradientUnits="userSpaceOnUse" id="Mwa0cx1y" x1="693.89001" y1="481.29999" x2="749.15997" y2="502.73001" gradientTransform="translate(-375.23001,-111.72)">
         <stop offset="0" stop-color="#312c85" id="stop37" />
         <stop offset="1" stop-color="#62748e" id="stop38" />
      </linearGradient>
      <linearGradient gradientUnits="userSpaceOnUse" id="uxmaH0gZ" x1="623.65997" y1="527.62" x2="683.28998" y2="501.89001" gradientTransform="translate(-375.23001,-111.72)">
         <stop offset="0" stop-color="#0f172b" id="stop39" />
         <stop offset="1" stop-color="#312c85" id="stop40" />
      </linearGradient>
      <linearGradient gradientUnits="userSpaceOnUse" id="X1ajEXgx" x1="492.20001" y1="255.46001" x2="566.92999" y2="200.82001" gradientTransform="translate(-375.23001,-111.72)">
         <stop offset="0" stop-color="#62748e" id="stop41" />
         <stop offset="1" stop-color="#312c85" id="stop42" />
      </linearGradient>
      <linearGradient gradientUnits="userSpaceOnUse" id="IMxrrhin" x1="536.21002" y1="225.81" x2="548.27002" y2="245.37" gradientTransform="translate(-375.23001,-111.72)">
         <stop offset="0" stop-color="#62748e" id="stop43" />
         <stop offset="1" stop-color="#f4a8ff" id="stop44" />
      </linearGradient>
      <linearGradient gradientUnits="userSpaceOnUse" id="IvALBqjy" x1="607.20001" y1="229.42" x2="593.65997" y2="232.12" gradientTransform="translate(-375.23001,-111.72)">
         <stop offset="0" stop-color="#62748e" id="stop45" />
         <stop offset="1" stop-color="#cad5e2" id="stop46" />
      </linearGradient>
      <linearGradient gradientUnits="userSpaceOnUse" id="kkTge3ph" x1="625.22998" y1="198.2" x2="559.46002" y2="207.10001" gradientTransform="translate(-375.23001,-111.72)">
         <stop offset="0" stop-color="#0f172b" id="stop47" />
         <stop offset="1" stop-color="#312c85" id="stop48" />
      </linearGradient>
      <linearGradient gradientUnits="userSpaceOnUse" id="KwFSSNlw" x1="574.59003" y1="524.52002" x2="617.20001" y2="498.32001" gradientTransform="translate(-375.23001,-111.72)">
         <stop offset="0" stop-color="#0f172b" id="stop49" />
         <stop offset="1" stop-color="#62748e" id="stop50" />
      </linearGradient>
      <linearGradient gradientUnits="userSpaceOnUse" id="FTsEI9ou" x1="664.40997" y1="529.26001" x2="632.26001" y2="532.01001" gradientTransform="translate(-375.23001,-111.72)">
         <stop offset="0" stop-color="#62748e" id="stop51" />
         <stop offset="1" stop-color="#62748e" id="stop52" />
      </linearGradient>
      <linearGradient gradientUnits="userSpaceOnUse" id="Kj6v0IEf" x1="571.88" y1="161.83" x2="500.45001" y2="136.47" gradientTransform="translate(-375.23001,-111.72)">
         <stop offset="0" stop-color="#cad5e2" id="stop53" />
         <stop offset="1" stop-color="#cad5e2" id="stop54" />
      </linearGradient>
      <linearGradient gradientUnits="userSpaceOnUse" id="CtK2cAPQ" x1="409.41" y1="233.96001" x2="495.51999" y2="250.58" gradientTransform="translate(-375.23001,-111.72)">
         <stop offset="0" stop-color="#cad5e2" id="stop55" />
         <stop offset="1" stop-color="#62748e" id="stop56" />
      </linearGradient>
      <linearGradient gradientUnits="userSpaceOnUse" id="fm2mjK8b" x1="716.84998" y1="448.23999" x2="721.62" y2="455.56" gradientTransform="translate(-375.23001,-111.72)">
         <stop offset="0" stop-color="#312c85" id="stop57" />
         <stop offset="1" stop-color="#312c85" id="stop58" />
      </linearGradient>
      <linearGradient gradientUnits="userSpaceOnUse" id="s2TUBKDT" x1="582.90997" y1="117.45" x2="620.58002" y2="139.97" gradientTransform="translate(-375.23001,-111.72)">
         <stop offset="0" stop-color="#cad5e2" style="stop-opacity: 0.98;" id="stop59" />
         <stop offset="1" stop-color="#cad5e2" id="stop60" />
      </linearGradient>
      <linearGradient gradientUnits="userSpaceOnUse" id="B6TPs8Jt" x1="516.83002" y1="431.32001" x2="508.79999" y2="432.23999" gradientTransform="translate(-375.23001,-111.72)">
         <stop offset="0" stop-color="#312c85" id="stop61" />
         <stop offset="1" stop-color="#312c85" id="stop62" />
      </linearGradient>
   </defs>
   <path d="m 98.759991,236.39 0.51,2.36 c 2.429999,1.25 3.609999,0.72 6.649999,0.61 3.01,0.21 3.12,-0.29 5.05,1.28 0.11,1.11 0.27,2.37 0.32,3.48 0.05,11.48 0.53,25.89 0.06,37.14 0,4.37 -0.3,25.58 0.29,28.7 1.97,0.87 4.59,0.25 6.79,-0.03 0.49,0.15 1.09,0.34 1.8,0.57 4.21,5.87 8.26,13.18 12.7,18.75 l 0.1,-4.1 2.48,-1.54 c 1.71,3.29 6.8,13.41 9.16,15.59 l 0.25,-1.32 c 1.56,-1.78 4.62,-2.65 6.92,-3.53 l 4.22,5.06 c 3.79,2.43 15.47,10.01 18.52,12.9 -2.84,2.04 -8.21,5 -7.59,8.92 l -0.87,0.42 2.63,6.73 c 0.74,0.97 1.45,2.04 2.34,2.84 3.01,3.27 28.95,28.94 29.47,29.96 9.2,8.32 19.68,17.7 28.55,26.29 l -2.52,0.06 c -4.08,6.34 3.28,18.75 -0.91,22.49 -2.65,0.27 -4.96,0.13 -6.86,1.86 -2.95,0.34 -5.93,0.71 -8.89,1 -4.7,0.11 -8.63,0.48 -13.32,0.95 l 2.09,3.18 2.07,3.64 c -1.84,-0.12 -2.71,-0.57 -3.81,0.62 -3.16,3.42 -4.89,5.81 -8.55,8.84 -4.63,-2.54 -14.92,-14 -21.36,-15.78 l 4.18,12.09 c -19.57,-19.83 -37.12,-39.38 -57.23,-58.89 l -3.48,-3.18 c 0.13,2.02 0.66,5.7 -0.21,7.27 -1.44,-1.83 -2.08,-4.12 -2.98,-6.25 -3.57,-8.46 -7.909999,-16.52 -12.219999,-24.63 -0.82,14.28 0.84,41.47 1.5,56.2 l -35.49,-83.47 -3.75,-8.82 -7.45,-19.03 c 3.63,-8.93 7.87,-19.07 12.13,-27.64 0.26,-2.15 3.57,-9.48 4.55,-11.98 l 1.03,-0.25 c 1.76,-6.08 10.53,-24.9 13.95,-30.05 5.9,-5.64 11.34,-13.25 17.18,-19.31 z" fill="#62748e" id="path62" />
   <path d="m 135.51999,323.61 c 1.7,3.29 6.79,13.41 9.15,15.59 l 0.25,-1.32 c 1.56,-1.78 4.62,-2.65 6.92,-3.53 l 4.22,5.06 c 3.79,2.43 15.47,10.01 18.53,12.9 -2.85,2.04 -8.22,5 -7.59,8.92 l -0.88,0.42 2.63,6.73 c 0.74,0.97 1.45,2.04 2.34,2.84 3.01,3.27 28.95,28.94 29.47,29.96 9.2,8.32 19.68,17.7 28.55,26.29 l -2.52,0.06 c -4.08,6.34 3.28,18.75 -0.91,22.49 -2.65,0.27 -4.96,0.13 -6.86,1.86 -2.95,0.34 -5.93,0.71 -8.89,1 -4.7,0.11 -8.63,0.48 -13.32,0.95 -2.06,-4.06 -5.61,-9.1 -8.55,-12.59 -0.08,-1.17 -0.59,-3.06 -0.87,-4.27 -8.25,-11.26 -14.26,-28.93 -21.61,-41.12 -3.43,-14.28 -31.38,-61.34 -30.06,-72.24 z" fill="url(#tquOAhBg)" id="path63" style="fill:url(#tquOAhBg)" />
   <path d="m 135.51999,323.61 c 1.7,3.29 6.79,13.41 9.15,15.59 l 0.25,-1.32 c 1.56,-1.78 4.62,-2.65 6.92,-3.53 l 4.22,5.06 c 3.79,2.43 15.47,10.01 18.53,12.9 -2.85,2.04 -8.22,5 -7.59,8.92 l -0.88,0.42 2.63,6.73 c 0.74,0.97 1.45,2.04 2.34,2.84 3.01,3.27 28.95,28.94 29.47,29.96 -2.98,0.2 -7.49,-5.33 -9.75,-7.68 l -8.75,8.08 c 2.23,4.64 6.4,13.29 9.09,17.75 -3.11,0.54 -8.21,0.98 -10.42,3.02 -0.25,2.96 5.76,7.83 6.46,14.62 -8.25,-11.26 -14.26,-28.93 -21.61,-41.12 -3.43,-14.28 -31.38,-61.34 -30.07,-72.24 z" fill="url(#lgHCGPiy)" id="path64" style="fill:url(#lgHCGPiy)" />
   <path d="m 151.83999,334.35 4.22,5.06 c 3.79,2.43 15.47,10.01 18.52,12.9 -2.84,2.04 -8.21,5 -7.59,8.92 l -0.87,0.42 2.63,6.73 c -5.64,-3.74 -19.74,-23.11 -24.08,-29.18 l 0.25,-1.32 c 1.56,-1.78 4.62,-2.66 6.92,-3.53 z" fill="#62748e" id="path65" />
   <path d="m 156.05999,339.41 c 3.79,2.43 15.47,10.01 18.53,12.9 -2.85,2.04 -8.22,5 -7.59,8.92 l -0.88,0.42 c -3.07,-4.74 -7.7,-16.5 -10.06,-22.24 z" fill="#f4a8ff" id="path66" />
   <path d="m 191.14999,419.33 c 2.07,3.06 18.72,32.15 18.78,33.55 -4.7,0.11 -8.63,0.48 -13.32,0.95 -2.06,-4.06 -5.61,-9.1 -8.55,-12.59 -0.08,-1.17 -0.59,-3.06 -0.87,-4.27 -0.7,-6.79 -6.71,-11.66 -6.46,-14.62 2.21,-2.04 7.31,-2.48 10.42,-3.02 z" fill="#f4a8ff" id="path67" />
   <path d="m 67.639991,285.75 c 3.02,3.87 3.56,14.18 4.72,19.28 0.87,2.23 2.04,4.84 2.32,7.18 l 1.05,5.63 -0.31,0.59 c 5.61,9.86 13.88,47.86 19.32,51.58 -0.02,2.69 -0.28,8.38 0.37,10.73 -0.82,14.28 0.84,41.47 1.5,56.2 l -35.49,-83.46 -3.75,-8.83 -7.45,-19.02 c 3.63,-8.94 7.87,-19.08 12.13,-27.65 0.26,-2.15 3.57,-9.48 4.55,-11.98 z" fill="#62748e" id="path68" />
   <path d="m 67.639991,285.75 c 3.02,3.87 3.56,14.18 4.72,19.28 0.87,2.23 2.04,4.84 2.32,7.18 l -1.66,-1.11 c -4.8,4.25 -9.21,20.46 -14.08,26.39 0.02,-11.21 3.59,-32.06 3.11,-39.5 0.26,-2.15 3.57,-9.49 4.55,-11.99 z" fill="#312c85" id="path69" />
   <path d="m 98.759991,236.39 0.51,2.36 c 2.429999,1.25 3.609999,0.72 6.649999,0.61 3.01,0.21 3.12,-0.29 5.05,1.28 0.11,1.11 0.27,2.37 0.32,3.48 0.05,11.48 0.53,25.89 0.06,37.14 l -1.19,-0.38 c -0.75,1.98 -0.31,4.59 -1.2,5.72 -2.3,2.93 -4.98,5.6 -6.87,8.83 l -1.3,-0.18 c -1.799999,-3.4 0.57,-5.28 -0.799999,-10.43 -0.07,-1.72 0.599999,-9.14 0.739999,-11.31 -1.319999,4.45 -0.909999,8.97 -2.249999,10.79 -2.78,0.56 -9,2.13 -11.19,0.76 -3.5,5.63 -6.12,17.09 -8.6,22.8 -4.17,0.09 -3.71,-0.08 -6.33,-2.83 -1.16,-5.1 -1.7,-15.41 -4.72,-19.28 1.76,-6.08 10.52,-24.9 13.94,-30.05 5.9,-5.64 11.34,-13.25 17.18,-19.31 z" fill="url(#rj8zmbiK)" id="path70" style="fill:url(#rj8zmbiK)" />
   <path d="m 111.28999,244.12 c 0.05,11.49 0.53,25.89 0.06,37.14 l -1.19,-0.38 c -0.75,1.98 -0.31,4.6 -1.2,5.72 -2.3,2.93 -4.98,5.6 -6.87,8.83 l -1.3,-0.18 c -1.799999,-3.39 0.57,-5.28 -0.799999,-10.43 -0.07,-1.72 0.599999,-9.13 0.739999,-11.31 1.01,-1.76 -0.08,-4.15 1.13,-7.15 2.54,-1.42 9.17,-18.64 9.43,-22.24 z" fill="#312c85" id="path71" />
   <path d="m 105.91999,239.37 c 3.01,0.2 3.12,-0.3 5.05,1.27 0.11,1.11 0.27,2.37 0.32,3.48 -0.26,3.6 -6.89,20.82 -9.43,22.24 0.83,-8.37 2.57,-18.71 4.06,-26.99 z" fill="#62748e" id="path72" />
   <path d="m 142.66999,389.64 c 2.59,2.86 8.99,10.34 11.54,12.59 0.66,-1.1 0.45,-0.47 0.28,-2.02 1.73,-4.27 2.48,-6.06 6.25,-8.66 3.52,0.21 0.84,2.42 4.84,4.3 7.35,12.19 13.36,29.85 21.61,41.12 0.28,1.21 0.79,3.1 0.87,4.27 2.94,3.49 6.49,8.53 8.55,12.59 l 2.09,3.18 2.07,3.64 c -1.84,-0.12 -2.71,-0.57 -3.8,0.62 -3.17,3.42 -4.9,5.81 -8.56,8.84 -4.63,-2.54 -14.92,-14 -21.36,-15.78 -0.4,-1.72 -6.98,-17.88 -8.03,-20.39 -4.71,-11.27 -8.76,-23.41 -13.49,-34.5 -1.09,-3.89 -2.05,-5.31 -2.86,-9.8 z" fill="url(#u5QLpz8a)" id="path73" style="fill:url(#u5QLpz8a)" />
   <path d="m 154.20999,402.23 c 0.66,-1.1 0.45,-0.47 0.28,-2.02 1.73,-4.27 2.48,-6.06 6.25,-8.66 3.52,0.21 0.84,2.42 4.84,4.3 7.35,12.19 13.36,29.85 21.61,41.12 0.28,1.21 0.79,3.1 0.87,4.27 -9.58,-10.23 -25.4,-28.37 -33.85,-39.01 z" fill="#312c85" id="path74" />
   <path d="m 113.23999,383.27 c 5.6,4.97 10.48,9.28 16.44,13.85 4.24,3.26 14.25,10.5 17.77,14.28 l 0.63,-0.58 c -0.61,-4.02 -3.56,-9.72 -2.55,-11.38 4.73,11.09 8.78,23.23 13.49,34.5 1.05,2.51 7.63,18.67 8.03,20.39 l 4.18,12.09 c -19.57,-19.83 -37.12,-39.38 -57.23,-58.89 0.25,-5.99 -0.56,-17.59 -0.76,-24.26 z" fill="url(#bJp9F0Ky)" id="path75" style="fill:url(#bJp9F0Ky)" />
   <path d="m 118.42999,309.93 c 0.49,0.15 1.09,0.35 1.8,0.57 4.21,5.87 8.26,13.18 12.7,18.75 l 0.1,-4.1 2.48,-1.54 c -1.31,10.9 26.64,57.96 30.07,72.24 -4,-1.87 -1.32,-4.09 -4.84,-4.3 -3.77,2.6 -4.52,4.39 -6.25,8.66 0.17,1.55 0.38,0.92 -0.28,2.02 -2.55,-2.25 -8.95,-9.73 -11.54,-12.59 -3.63,-5.32 -10.65,-25.08 -10.41,-32.32 -2.8,-3.7 -6.41,-16.11 -8.2,-21.25 -0.59,-6.58 -5.48,-16.45 -5.63,-26.14 z" fill="url(#p7WIMDuu)" id="path76" style="fill:url(#p7WIMDuu)" />
   <path d="m 118.42999,309.93 c 0.49,0.15 1.09,0.35 1.8,0.57 4.21,5.87 8.26,13.18 12.7,18.75 -1.23,8.26 -0.06,19.46 -0.67,28.07 -2.8,-3.7 -6.41,-16.11 -8.2,-21.25 -0.59,-6.58 -5.48,-16.45 -5.63,-26.14 z" fill="#62748e" id="path77" />
   <path d="m 78.689991,307.86 c 2.48,-5.71 5.1,-17.17 8.6,-22.8 2.18,1.37 8.41,-0.2 11.19,-0.76 1.34,-1.82 0.93,-6.34 2.249999,-10.79 -0.14,2.18 -0.809999,9.59 -0.739999,11.31 -2.55,17.83 -5.85,60.93 -5.15,79.76 l -0.1,5.43 c -5.44,-3.72 -13.71,-41.72 -19.32,-51.57 l 0.31,-0.6 -1.05,-5.63 c -0.28,-2.34 -1.45,-4.95 -2.32,-7.18 2.62,2.75 2.16,2.92 6.33,2.83 z" fill="url(#C3XbPYKU)" id="path78" style="fill:url(#C3XbPYKU)" />
   <path d="m 72.359991,305.03 c 2.62,2.75 2.16,2.92 6.33,2.83 l -2.96,9.98 -1.05,-5.63 c -0.28,-2.34 -1.45,-4.95 -2.32,-7.18 z" fill="#312c85" id="path79" />
   <path d="m 99.989991,284.82 c 1.369999,5.15 -1,7.03 0.799999,10.43 l 1.3,0.18 c 1.89,-3.23 4.57,-5.9 6.87,-8.83 0.89,-1.13 0.45,-3.74 1.19,-5.72 l 1.2,0.38 c 0,4.37 -0.3,25.58 0.29,28.7 1.97,0.87 4.59,0.25 6.79,-0.03 0.15,9.69 5.04,19.56 5.63,26.14 -3.64,-1.82 -4.59,-21.43 -8.3,-24.08 -2.65,0.16 -4.33,0.53 -6.51,-0.93 -2.1,4.77 1.52,60.41 -1.12,67.56 -4.48,-4.51 -8.929999,-9.39 -13.289999,-14.04 -0.7,-18.83 2.6,-61.93 5.15,-79.76 z" fill="url(#CIvBvMfR)" id="path80" style="fill:url(#CIvBvMfR)" />
   <path d="m 94.839991,364.58 c 4.36,4.65 8.809999,9.53 13.299999,14.04 l 0.9,-0.62 c 0.28,-2.99 -0.27,-9.78 0.58,-11.19 1.92,3.76 -2.02,11.53 2.01,12.92 l 1.3,-1.2 -0.23,0.84 c 0.79,1.2 0.75,1.58 0.68,3 l -0.14,0.9 c 0.2,6.67 1.01,18.27 0.76,24.26 l -3.48,-3.18 c 0.13,2.02 0.67,5.7 -0.21,7.27 -1.44,-1.83 -2.08,-4.12 -2.98,-6.25 -3.57,-8.46 -7.909999,-16.52 -12.219999,-24.63 -0.65,-2.35 -0.39,-8.04 -0.37,-10.73 z" fill="url(#JsDSI0cW)" id="path81" style="fill:url(#JsDSI0cW)" />
   <path d="m 110.51999,404.35 c -1.15,-2.44 -0.98,-19.33 -1.01,-23.07 l 0.74,-0.32 3.13,1.41 -0.14,0.9 c 0.2,6.67 1.01,18.27 0.76,24.26 z" fill="#62748e" id="path82" />
   <path d="m 251.95999,21.669999 c 11.28,4.7 30.33,13.04 41.05,18.5 -0.14,3.11 2.9,9.91 4.54,12.54 l 0.85,0.49 c 4.54,0.64 10.14,1.61 14.61,2.05 l 8.4,19.62 0.37,-2.89 c 5.13,2.29 31.94,17.1 33.87,20.75 l 4.42,3.21 c -0.05,-5.06 -0.79,-14.68 -1.9,-19.42 -1.1,-4.4 -1.42,-8.42 -1.89,-12.93 5.81,12.16 11.44,24.01 18.87,35.29 0.21,-12.92 -3.08,-40.76 -4.18,-54.96 13.12,22.24 24.71,45.38 36.78,68.200001 1.24,2.33 2.52,4.65 3.58,7.06 l 13.29,24.53 c -2.45,9.12 -7.26,29.38 -10.21,37.39 l -1.45,5.08 c -1.4,4.38 -2.65,8.78 -4.69,12.89 -4.39,-1.5 -8.37,-2.89 -12.86,-4.06 l -8.2,-0.6 c -9.03,0.24 -12.73,1.16 -21.51,3.65 -2.4,-5.25 -5.54,-11.85 -6.31,-17.52 -0.08,-0.53 -0.58,-0.83 -1.07,-1.31 l -0.46,1.33 c -3,-1.15 -14.6,-21.46 -17.74,-26.12 -0.75,-0.74 -5.35,-6.94 -6.98,-8.76 0.53,2.94 1.04,6.65 2.22,9.32 l -2.73,-0.66 c -3.17,-0.72 -6.83,-2.24 -9.92,-3.41 l -0.56,-0.47 -0.71,0.2 c -2.74,-3.99 -30.51,-26.77 -36.21,-30.78 -0.99,-0.7 -8.04,-2.33 -10.3,-3.23 l -0.52,-0.22 c -3.54,-0.58 -11.84,-3.15 -15.64,-4.21 l -1.65,-1.1 c -6.36,-7.53 -11.83,-14.590001 -17.81,-22.450001 -9.28,-6.68 -24.4,-12.31 -33.03,-18.73 0.28,0.04 0.96,-0.52 1.3,-0.74 -1.54,-0.52 -1.67,-0.57 -3.01,-1.47 8.3,-3.98 34.24,-2.63 39.6,-4.95 2.58,2.01 4.97,5.06 7.2,6.61 -1.01,-2.82 -2.27,-2.2 -1.81,-4.93 2,-1.97 8.43,-2.33 11.92,-2.91 l 3.6,1.8 0.14,-0.24 c -0.26,-1.9 -12.81,-14 -15.1,-16.33 l -1.44,-1.63 c -1.48,-2.01 -5.36,-5.82 -7.4,-8.34 1.07,-1.74 -0.96,-2.03 1.49,-4.76 3.4,-3.78 4.31,-8.33 9.19,-10.38 z" fill="url(#hFCsUbke)" id="path83" style="fill:url(#hFCsUbke)" />
   <path d="m 375.14999,98.879999 c 0.21,-12.92 -3.08,-40.76 -4.18,-54.96 13.12,22.24 24.71,45.38 36.78,68.200001 1.24,2.33 2.52,4.65 3.58,7.06 l 13.29,24.53 c -2.45,9.12 -7.26,29.38 -10.21,37.39 l -1.45,5.08 c -1.4,4.38 -2.65,8.78 -4.69,12.89 -4.39,-1.5 -8.37,-2.89 -12.86,-4.06 l -8.2,-0.6 c -0.84,-0.56 -5.45,-0.32 -6.79,-0.31 0.2,-9.39 -0.58,-19.25 -1.14,-28.66 -0.57,-9.28 -1.37,-19.48 -1.36,-28.7 -0.71,-3.79 -1.44,-7.72 -1.95,-11.51 -0.7,-5.28 0.92,-13.73 -2.53,-18.1 -1.45,-1.83 -8.94,-7.310001 -11.33,-7.680001 -1.2,2.400001 2.47,17.370001 0.75,20.210001 -1.22,-1.52 -2.12,-18.43 -2.34,-21.580001 l -0.45,-2.14 c -0.05,-5.06 -0.79,-14.68 -1.9,-19.42 -1.1,-4.4 -1.42,-8.42 -1.89,-12.92 5.81,12.15 11.44,24 18.87,35.28 z" fill="url(#bBjMEmKR)" id="path84" style="fill:url(#bBjMEmKR)" />
   <path d="m 398.74999,165.2 c 3.84,-14.25 6.48,-29.25 10.22,-43.54 0.22,-0.84 1.67,-1.98 2.36,-2.48 l 13.29,24.53 c -2.45,9.12 -7.26,29.38 -10.21,37.39 l -1.45,5.08 c -1.4,4.38 -2.65,8.78 -4.69,12.89 -4.39,-1.5 -8.37,-2.89 -12.86,-4.06 l -8.2,-0.6 c -0.84,-0.56 -5.45,-0.32 -6.79,-0.31 0.2,-9.39 -0.58,-19.25 -1.14,-28.66 -0.57,-9.28 -1.37,-19.48 -1.36,-28.7 5.56,9.78 16.34,19.13 20.83,28.46 z" fill="#312c85" id="path85" />
   <path d="m 398.74999,165.2 c 3.84,-14.25 6.48,-29.25 10.22,-43.54 0.22,-0.84 1.67,-1.98 2.36,-2.48 l 13.29,24.53 c -2.45,9.12 -7.26,29.38 -10.21,37.39 -3.06,-3.37 -1.5,-31.66 -1.4,-38.01 -3.21,7.73 -6.49,20.16 -8.98,28.53 z" fill="#62748e" id="path86" />
   <path d="m 403.98999,172.99 c 3.98,4.85 5.73,7.74 8.97,13.19 -1.4,4.38 -2.65,8.78 -4.69,12.89 -4.39,-1.5 -8.37,-2.89 -12.86,-4.06 l 1.5,-0.4 c 1.53,-2.53 5.83,-17.62 7.08,-21.62 z" fill="#312c85" id="path87" />
   <path d="m 356.27999,63.599999 c 5.81,12.15 11.44,24 18.87,35.28 0,2.080001 0.03,4.090001 0.09,6.170001 l -0.91,0.39 c -2.82,-1.9 -10.09,-7.070001 -13.05,-7.600001 l -0.76,0.24 -0.45,-2.14 c -0.05,-5.06 -0.79,-14.68 -1.9,-19.42 -1.1,-4.4 -1.42,-8.42 -1.89,-12.93 z" fill="#62748e" id="path88" />
   <path d="m 261.47999,61.549999 3.6,1.8 c 7.89,5.66 31.09,37.060001 34.91,39.260001 5.78,8.39 29.3,35.78 32.01,41.38 l 1.14,1.69 c 0.53,2.94 1.04,6.65 2.22,9.32 l -2.73,-0.66 c -3.17,-0.72 -6.83,-2.24 -9.92,-3.41 l -0.56,-0.47 -0.71,0.2 c -2.74,-3.99 -30.51,-26.77 -36.21,-30.78 -1,-0.7 -8.05,-2.33 -10.3,-3.23 l -0.52,-0.22 c -3.54,-0.58 -11.84,-3.15 -15.64,-4.21 l -1.65,-1.1 c -6.37,-7.53 -11.83,-14.590001 -17.81,-22.450001 -9.28,-6.68 -24.4,-12.31 -33.03,-18.73 0.28,0.04 0.96,-0.52 1.3,-0.74 -1.54,-0.52 -1.68,-0.57 -3.01,-1.47 8.3,-3.98 34.24,-2.63 39.6,-4.95 2.58,2.01 4.97,5.06 7.2,6.61 -1.02,-2.82 -2.27,-2.2 -1.81,-4.93 2,-1.97 8.43,-2.33 11.92,-2.91 z" fill="#312c85" id="path89" />
   <path d="m 244.16999,62.779999 c 2.58,2.01 4.97,5.06 7.2,6.61 12.46,12.79 24.72,24.84 36.18,38.560001 4.04,4.84 6.42,6.17 10.29,11.42 l -0.28,0.71 c -8.12,-1.82 -19.6,-13.55 -25.09,-13.08 l 2.23,1.55 -1.06,0.67 c -0.8,-0.46 -1.59,-0.92 -2.41,-1.36 -1.1,2.46 -3.41,3.6 -2.86,5.48 1.79,0.56 3.57,1.12 5.37,1.65 l 0.67,1.44 c -3.54,-0.58 -11.84,-3.15 -15.64,-4.21 l -1.65,-1.1 c -6.37,-7.53 -11.83,-14.590001 -17.81,-22.450001 -9.28,-6.68 -24.4,-12.31 -33.03,-18.73 0.28,0.04 0.96,-0.52 1.3,-0.74 -1.54,-0.52 -1.68,-0.57 -3.01,-1.47 8.3,-3.98 34.24,-2.63 39.6,-4.95 z" fill="#62748e" id="path90" />
   <path d="m 239.30999,88.669999 c 11.62,5.09 24.1,14.350001 33.16,18.340001 l 2.23,1.54 -1.06,0.67 c -0.8,-0.46 -1.59,-0.92 -2.41,-1.36 -1.1,2.46 -3.41,3.6 -2.86,5.48 1.79,0.56 3.57,1.12 5.37,1.65 l 0.67,1.44 c -3.54,-0.58 -11.84,-3.15 -15.64,-4.21 l -1.65,-1.1 c -6.37,-7.53 -11.83,-14.590001 -17.81,-22.450001 z" fill="#62748e" id="path91" />
   <path d="m 274.40999,116.43 -0.67,-1.44 c -1.8,-0.53 -3.58,-1.09 -5.37,-1.65 -0.55,-1.88 1.76,-3.03 2.86,-5.48 0.82,0.44 1.61,0.9 2.41,1.36 l 1.06,-0.67 c 11.27,5.62 35.96,23.08 47.29,30.81 2.54,1.32 7.48,4.04 10.01,4.63 l 1.14,1.69 c 0.53,2.94 1.04,6.65 2.22,9.32 l -2.73,-0.66 c -3.17,-0.72 -6.83,-2.24 -9.92,-3.41 l -0.56,-0.47 -0.71,0.2 c -2.74,-3.99 -30.51,-26.77 -36.21,-30.78 -0.99,-0.7 -8.04,-2.33 -10.3,-3.23 z" fill="#312c85" id="path92" />
   <path d="m 321.98999,139.36 c 2.54,1.32 7.48,4.04 10.01,4.63 l 1.14,1.69 c 0.53,2.94 1.04,6.65 2.22,9.32 l -2.73,-0.66 c -3.17,-0.72 -6.83,-2.24 -9.92,-3.41 l -0.56,-0.47 0.03,-1.03 0.78,-0.43 0.2,0.51 c 1.05,-0.95 1.42,-1.31 2.31,-2.41 -0.13,-2.39 -2.24,-5.53 -3.48,-7.74 z" fill="#0f172b" id="path93" />
   <path d="m 251.95999,21.669999 c 11.28,4.7 30.33,13.04 41.05,18.5 -0.14,3.11 2.9,9.91 4.54,12.54 l 0.85,0.49 c -0.52,4.82 23.3,48.570001 24.85,58.560001 -1.36,-0.41 -1.43,-2.23 -2.12,-2.71 -7.21,-4.92 -8.83,-2.95 -16.6,-2.78 -0.3,0.01 -2.61,-2.96 -4.54,-3.66 -3.82,-2.2 -27.02,-33.600001 -34.91,-39.260001 l 0.14,-0.24 c -0.26,-1.9 -12.81,-14 -15.1,-16.33 l -1.44,-1.63 c -1.48,-2.01 -5.36,-5.82 -7.4,-8.34 1.07,-1.74 -0.96,-2.03 1.49,-4.76 3.4,-3.78 4.31,-8.33 9.19,-10.38 z" fill="url(#UQuKrFiu)" id="path94" style="fill:url(#UQuKrFiu)" />
   <path d="m 251.95999,21.669999 c 11.28,4.7 30.33,13.04 41.05,18.5 -0.14,3.11 2.9,9.91 4.54,12.54 -14.04,-1.91 -33.77,-5.2 -47.43,-5.93 l -1.44,-1.63 c -1.48,-2.01 -5.36,-5.82 -7.4,-8.34 1.07,-1.74 -0.96,-2.03 1.49,-4.76 3.4,-3.78 4.31,-8.33 9.19,-10.38 z" fill="#62748e" id="path95" />
   <path d="m 298.39999,53.199999 c 4.54,0.64 10.14,1.61 14.61,2.05 l 8.4,19.62 c 4.01,11.04 10.6,25.320001 15.35,36.370001 3.67,10.42 10.03,24.71 12.96,34.67 l -2.33,-2.24 c -6.82,1.11 -4.61,6.3 -7.27,10.77 -0.75,-0.74 -5.35,-6.94 -6.98,-8.76 l -1.14,-1.69 c -2.71,-5.6 -26.23,-32.98 -32.01,-41.38 1.93,0.7 4.24,3.67 4.54,3.66 7.77,-0.17 9.39,-2.14 16.6,2.78 0.69,0.48 0.76,2.3 2.12,2.71 -1.55,-9.99 -25.37,-53.740001 -24.85,-58.560001 z" fill="url(#GH3iagEV)" id="path96" style="fill:url(#GH3iagEV)" />
   <path d="m 362.85999,119.66 c 1.72,-2.84 -1.95,-17.81 -0.75,-20.210001 2.39,0.37 9.88,5.850001 11.33,7.680001 3.45,4.37 1.83,12.82 2.53,18.1 0.51,3.79 1.24,7.72 1.95,11.51 -0.01,9.22 0.79,19.42 1.35,28.7 -2.22,3.66 -0.19,20.17 -0.59,27.04 -1.37,1.67 -3.83,2.5 -5.85,1.64 -6.08,-8.56 -6.67,-50.99 -8.94,-61.69 l -0.12,-0.56 c -0.17,-4.07 -0.56,-8.15 -0.91,-12.21 z" fill="#312c85" id="path97" />
   <path d="m 321.40999,74.869999 0.37,-2.89 c 5.13,2.29 31.94,17.1 33.87,20.75 0.46,3.06 1.21,7.14 1.36,10.150001 -2.77,18.18 1.66,8.48 -15.5,16.81 -0.74,-1.92 -2.58,-7.62 -3.91,-8.59 l -0.84,0.14 c -4.75,-11.05 -11.34,-25.330001 -15.35,-36.370001 z" fill="#62748e" id="path98" />
   <path d="m 340.11999,154.44 c 2.66,-4.47 0.45,-9.67 7.27,-10.77 l 2.33,2.23 c 3.37,7.75 5.54,15.17 6.85,23.52 0.47,2.95 0.37,7.38 1.75,9.81 l -0.46,1.33 c -3,-1.15 -14.6,-21.46 -17.74,-26.12 z" fill="#312c85" id="path99" />
   <path d="m 355.64999,92.729999 4.42,3.21 0.45,2.14 c 0.22,3.150001 1.12,20.060001 2.34,21.580001 0.35,4.06 0.74,8.14 0.91,12.21 -0.12,1.4 0.13,1.23 -0.64,1.96 l 0.07,2.55 c -0.25,-2.54 -0.31,-5.17 -1.51,-7.4 h -1.24 c -1.12,2.95 1.23,3.82 0.18,8.21 -1.65,-3.13 -3.21,-29.15 -3.62,-34.31 -0.15,-3.010001 -0.9,-7.090001 -1.37,-10.150001 z" fill="url(#MEbKiAtf)" id="path100" style="fill:url(#MEbKiAtf)" />
   <path d="m 111.35999,130.95 c 4.58,-2.4 21.7,-6.09 27.18,-6.38 11.25,2.4 22.69,3.7 34.14,4.82 -5.24,3.3 -8.79,4.44 -13.16,8.89 -1.94,1.7 -8.44,6.75 -9.59,8.17 -1.28,2.84 -2.65,5.75 -3.85,8.61 l -3.06,5.23 c -20.34,7.17 -27.74,16.5 -31.17,37.48 l -12.659999,0.07 c -0.02,6.71 0.26,17.73 -0.2,24.11 l -0.01,1.42 c 0,3.86 0.17,9.36 -0.22,13.02 -5.84,6.06 -11.28,13.67 -17.18,19.31 -3.42,5.15 -12.18,23.97 -13.94,30.05 l -1.04,0.25 c -0.98,2.5 -4.29,9.83 -4.55,11.98 -4.26,8.57 -8.5,18.71 -12.13,27.64 l -2.53,5.25 -15.77,38.3 c -2.44,-13.58 -4.43,-31.92 -5.91,-45.65 -1.11,-7.02 -3.61,-28.14 -3.27,-34.52 5.05,-7.76 15.53,-22.21 16.88,-30.61 0.46,-6.93 1.84,-14.58 3.55,-21.31 -11.53,10.63 -31.22,33.4 -42.8700000102261,45.72 C 5.319991,269.2 12.109991,253.87 17.869991,240.22 c 8.51,-20.16 18.25,-46.05 28.37,-65.1 l 0.69,-2.3 c -6.01,1.9 -14.44,6.63 -20.39,9.39 -8.66,4 -17.41,7.95 -26.03000001,12.02 1.78000001,-1.47 3.42000001,-2.98 5.01000001,-4.64 11.97,-12.38 24.72,-24.32 36.15,-37.19 16.49,-7.87 43.44,-12.64 60.829999,-19.97 3.41,-0.81 5.29,-1.31 8.86,-1.48 z" fill="url(#xqFxlF7i)" id="path101" style="fill:url(#xqFxlF7i)" />
   <path d="m 72.619991,206.72 c 11.77,-8.55 67.479999,-59.77 77.309999,-60.27 -1.28,2.84 -2.66,5.75 -3.85,8.61 l -3.06,5.23 c -20.34,7.17 -27.75,16.5 -31.18,37.48 l -12.649999,0.07 c -0.02,6.71 0.26,17.73 -0.2,24.11 l -0.02,1.42 c 0.01,3.86 0.18,9.36 -0.21,13.02 -5.84,6.06 -11.28,13.67 -17.18,19.31 -3.42,5.15 -12.19,23.97 -13.95,30.05 l -1.03,0.25 c -0.98,2.5 -4.29,9.83 -4.55,11.98 -4.26,8.57 -8.5,18.71 -12.13,27.64 l -2.54,5.25 -15.77,38.3 c -2.43,-13.58 -4.42,-31.92 -5.9,-45.65 -1.11,-7.02 -3.61,-28.14 -3.27,-34.52 5.04,-7.76 15.53,-22.21 16.88,-30.61 0.46,-6.93 1.83,-14.58 3.55,-21.31 l 1.41,-1.68 c 5.38,-5.33 10.49,-10.29 15.46,-16.04 1.35,-1.51 3.07,-2.7 4.7,-3.92 2.62,-3.05 5.62,-5.48 8.18,-8.72 z" fill="#312c85" id="path102" />
   <path d="m 54.309991,246.27 c 1.84,3.97 2.48,10.88 3.07,15.42 0.87,6.07 3.55,25.05 5.31,29.92 l 0.55,-0.11 c 0.68,-1.75 1.73,-5.13 3.04,-6.2 l 0.32,0.7 c -0.98,2.5 -4.29,9.83 -4.55,11.98 -4.26,8.57 -8.5,18.71 -12.13,27.64 l -2.54,5.25 -15.76,38.3 c -2.44,-13.58 -4.43,-31.92 -5.91,-45.65 -1.11,-7.02 -3.61,-28.14 -3.27,-34.52 5.04,-7.76 15.53,-22.21 16.88,-30.61 l 0.44,1.33 c 1.19,-0.4 2.07,-1.72 2.93,-2.72 3.05,-1.85 8.81,-7.91 11.62,-10.73 z" fill="url(#cO7HeDHg)" id="path103" style="fill:url(#cO7HeDHg)" />
   <path d="m 22.439991,289 c 3.55,3.8 14.53,21.66 16.15,26.45 3.06,5.16 5.98,10.1 8.8,15.42 l -15.77,38.3 c -2.44,-13.58 -4.43,-31.92 -5.91,-45.65 -1.11,-7.02 -3.61,-28.14 -3.27,-34.52 z" fill="#cad5e2" id="path104" />
   <path d="m 22.439991,289 c 3.55,3.8 14.53,21.66 16.15,26.45 -4.45,-3.46 -4.31,-9.69 -9.78,-10.62 -5.71,2.51 -1.83,12.63 -3.1,18.69 -1.11,-7.02 -3.61,-28.14 -3.27,-34.52 z" fill="#62748e" id="path105" />
   <path d="m 54.309991,246.27 c 1.84,3.97 2.48,10.88 3.07,15.42 -3.27,-1.36 -7.42,-4.52 -10.18,-6.75 -2.13,2.16 -3.74,4.05 -6.49,5.38 l -0.95,-0.6 c 1.19,-0.4 2.07,-1.72 2.93,-2.72 3.05,-1.85 8.81,-7.91 11.62,-10.73 z" fill="#62748e" id="path106" />
   <path d="m 55.829991,244.04 c 3.51,-4.58 37.25,-35.94 41.88,-39.22 -0.06,4.25 -0.91,14.14 1.28,17.13 l -0.01,1.42 c 0,3.86 0.17,9.36 -0.22,13.02 -5.84,6.06 -11.28,13.67 -17.18,19.31 -3.42,5.15 -12.18,23.97 -13.94,30.05 l -1.04,0.25 -0.32,-0.7 c -1.31,1.07 -2.36,4.45 -3.04,6.2 l -0.55,0.11 c -1.76,-4.87 -4.44,-23.85 -5.31,-29.92 -0.59,-4.54 -1.23,-11.45 -3.07,-15.42 0.87,-0.61 1.06,-1.27 1.52,-2.23 z" fill="#62748e" id="path107" />
   <path d="m 81.579991,255.7 c 0.53,-4.16 14.09,-30.74 17.39,-32.33 0.01,3.86 0.18,9.36 -0.21,13.02 -5.84,6.06 -11.28,13.67 -17.18,19.31 z" fill="#62748e" id="path108" />
   <path d="m 59.739991,219.36 c 1.35,-1.5 3.07,-2.7 4.7,-3.92 -2.53,5.93 -6.05,11.1 -8.07,15.78 -1.64,6.21 -1.39,6.36 -0.55,12.82 -0.45,0.96 -0.64,1.62 -1.51,2.23 -2.81,2.82 -8.57,8.88 -11.62,10.73 -0.86,1 -1.74,2.32 -2.93,2.72 l -0.44,-1.33 c 0.46,-6.93 1.83,-14.58 3.55,-21.31 l 1.41,-1.68 c 5.38,-5.33 10.49,-10.29 15.46,-16.04 z" fill="#62748e" id="path109" />
   <path d="m 42.689991,257 c 3.93,-8.25 8.48,-18.44 13.68,-25.78 -1.64,6.21 -1.39,6.36 -0.55,12.81 -0.45,0.97 -0.64,1.63 -1.51,2.24 -2.81,2.82 -8.57,8.88 -11.62,10.73 z" fill="#62748e" id="path110" />
   <path d="m 102.49999,132.44 c 3.41,-0.82 5.29,-1.32 8.86,-1.49 -13.509999,11.48 -46.989999,33.48 -62.859999,41.15 l -1.57,0.72 c -6.01,1.9 -14.44,6.63 -20.39,9.39 -8.66,4 -17.41,7.95 -26.03000001,12.02 1.78000001,-1.47 3.42000001,-2.98 5.01000001,-4.64 11.97,-12.38 24.72,-24.32 36.15,-37.19 16.49,-7.87 43.44,-12.64 60.829999,-19.96 z" fill="url(#PYWs6goj)" id="path111" style="fill:url(#PYWs6goj)" />
   <path d="m 46.239991,175.12 c 1.85,2.71 -1.32,53.59 -1.96,60.28 l -1.41,1.68 c -11.53,10.63 -31.22,33.4 -42.8700000102261,45.72 C 5.319991,269.2 12.109991,253.87 17.869991,240.22 c 8.51,-20.15 18.25,-46.05 28.37,-65.1 z" fill="#62748e" id="path112" />
   <path d="m 48.499991,172.1 c -0.11,5.71 -0.39,9.4 -1.08,15.07 9.23,-3.99 19.04,-8.06 28.07,-12.38 -1.47,3.83 -12.88,33.97 -13.69,35.03 -1.99,3.51 -3.02,5.54 -2.06,9.54 -4.97,5.75 -10.08,10.71 -15.46,16.04 0.64,-6.69 3.81,-57.57 1.96,-60.28 l 0.69,-2.3 z" fill="#62748e" id="path113" />
   <path d="m 61.799991,209.82 c 0.7,1.63 0.71,1.84 2.01,2.97 4.16,-1.29 3.98,-6.11 8.81,-6.07 -2.56,3.24 -5.56,5.67 -8.18,8.72 -1.62,1.22 -3.35,2.41 -4.7,3.92 -0.96,-4 0.07,-6.03 2.06,-9.54 z" fill="#62748e" id="path114" />
   <path d="m 435.23999,335 c 14.03,-7.56 28.16,-16.37 42.43,-23.05 -20.53,23.74 -39.5,45.73 -60.99,68.63 l -2.71,2.56 c -3.3,3.27 -6.68,6.56 -9.91,9.89 14.16,-1.6 35.13,-6.09 47.65,-6.87 -7.69,3.36 -17.09,8.94 -24.56,13.14 l -37.86,21.3 c -4.44,2.51 -17.17,10.06 -21.27,11.37 -12.38,-0.64 -28.99,2.31 -43.91,1.38 l -17.64,-6.29 c -4.22,-1.62 -8.73,-2.98 -13.05,-4.36 -5.99,-2.25 -18.23,-6.49 -22.93,-9.66 -6.19,-5.75 -22.5,-16.54 -29.76,-20.96 l -4.86,-3.07 c 2.39,-2.04 5.86,0.06 10.78,-0.07 8.28,1.58 20.68,4.42 28.72,3.27 4.3,-1.07 17.38,-3.15 20.08,-5.54 0.91,0.23 0.84,0.39 1.51,0.17 7.87,-0.89 22.29,-5.2 30.12,-7.73 9.47,-2.13 24.97,-8.18 34.36,-11.68 9.13,-3.81 37.32,-14.47 43.75,-19.32 l 1.61,-1.86 c 8.51,-2.01 11.53,-3.38 19.14,-7.73 5.77,-4.48 8.79,-7.02 13.1,-12.92 z" fill="#62748e" id="path115" />
   <path d="m 435.23999,335 c 14.03,-7.56 28.16,-16.37 42.43,-23.05 -20.53,23.74 -39.5,45.73 -60.99,68.63 l -2.71,2.56 c -3.3,3.27 -6.68,6.56 -9.91,9.89 l -4.38,0.41 c -2.29,0.19 -8.47,0.62 -10.42,1.02 -5.6,0.39 -15.01,1.55 -20.19,1.55 2.33,-2.6 5.22,-6.33 7.49,-9.1 1.27,-0.57 0.85,-0.18 1.45,-1.74 -1.12,-0.65 -0.64,-0.22 -1.36,-1.46 0.7,-1.98 2.15,-2.57 4,-3.75 -0.82,-0.94 -9.29,2.32 -10.73,1.52 -4.54,-2.53 -0.84,-6.96 -5.45,-13.61 l -3.03,-0.44 c 9.13,-3.81 37.32,-14.47 43.75,-19.32 l 1.61,-1.86 c 8.51,-2.01 11.53,-3.38 19.14,-7.73 5.77,-4.48 8.79,-7.02 13.1,-12.92 z" fill="url(#JfdF8sq4)" id="path116" style="fill:url(#JfdF8sq4)" />
   <path d="m 435.23999,335 c 14.03,-7.56 28.16,-16.37 42.43,-23.05 -20.53,23.74 -39.5,45.73 -60.99,68.63 -3.75,-0.34 -6.27,0.06 -9.96,0.48 -0.16,-0.6 17.46,-36.28 19.13,-42.2 l 0.1,-0.34 c 5.76,-4.48 8.78,-7.02 13.09,-12.92 z" fill="#62748e" id="path117" />
   <path d="m 402.59999,382.61 0.81,1.5 c -1.04,2.89 -4.14,7.74 -3.73,9.33 -2.29,0.19 -8.47,0.62 -10.42,1.02 -5.6,0.39 -15.01,1.55 -20.19,1.55 2.33,-2.6 5.22,-6.33 7.49,-9.1 1.27,-0.57 0.85,-0.18 1.45,-1.74 8.22,-0.75 16.4,-1.66 24.59,-2.56 z" fill="#62748e" id="path118" />
   <path d="m 402.59999,382.61 0.38,-1.13 c 3.33,0.32 8.59,0.13 10.99,1.66 -3.3,3.27 -6.68,6.56 -9.92,9.89 l -4.37,0.41 c -0.41,-1.59 2.69,-6.44 3.73,-9.33 z" fill="#62748e" id="path119" />
   <path d="m 327.07999,379.11 c 9.47,-2.13 24.97,-8.18 34.36,-11.68 l 3.03,0.44 c 4.61,6.65 0.91,11.08 5.45,13.61 1.44,0.8 9.91,-2.46 10.73,-1.52 -1.85,1.18 -3.3,1.77 -4,3.75 0.72,1.24 0.24,0.81 1.36,1.46 -0.6,1.56 -0.18,1.17 -1.45,1.74 -2.27,2.77 -5.16,6.5 -7.49,9.1 -8.52,0.15 -17.86,0.53 -26.31,0.47 l -4.62,0.27 c -12.48,-0.16 -29.28,-0.14 -41.54,-1.53 -3.98,1.07 -18.01,0.18 -21.23,-3.01 4.3,-1.08 17.38,-3.15 20.08,-5.54 0.91,0.23 0.84,0.39 1.51,0.17 7.87,-0.9 22.29,-5.2 30.12,-7.73 z" fill="url(#Mwa0cx1y)" id="path120" style="fill:url(#Mwa0cx1y)" />
   <path d="m 296.59999,395.22 c -0.96,-1.16 -14.33,-1.64 -18.73,-2.49 3.62,-1.1 32.34,-7.64 34.95,-7.6 l -1.06,2.77 0.53,0.71 c 13.82,-0.5 25.48,0.57 39.49,-1.26 2.21,-1.95 21.72,-2.48 24.47,-1.43 l 0.31,0.99 c -2.27,2.77 -5.16,6.5 -7.49,9.1 -8.52,0.16 -17.86,0.53 -26.32,0.47 l -4.61,0.28 c -12.48,-0.17 -29.28,-0.15 -41.54,-1.54 z" fill="#312c85" id="path121" />
   <path d="m 351.77999,387.35 c 2.21,-1.95 21.72,-2.48 24.47,-1.43 l 0.31,0.99 c -2.27,2.77 -5.16,6.5 -7.49,9.1 -8.52,0.15 -17.86,0.53 -26.31,0.47 3.44,-2.83 12.63,-0.12 15.5,-1.95 1.2,-5.05 1,-2.94 3.05,-7.09 -1.87,-0.89 -5.43,0.19 -8.92,-0.05 z" fill="#f4a8ff" id="path122" />
   <path d="m 235.86999,389.01 c 2.39,-2.04 5.86,0.06 10.78,-0.07 8.28,1.58 20.68,4.42 28.72,3.27 3.22,3.19 17.25,4.08 21.23,3.01 12.26,1.39 29.06,1.37 41.54,1.54 -4.41,1.73 -20.11,1.08 -25.82,1 l -4.87,9.67 0.83,0.17 -1.94,3.18 c 2.17,3.57 8.09,4.12 12.6,5.56 -4.13,2.8 -10.56,6.36 -12.47,10.72 -4.22,-1.62 -8.73,-2.98 -13.05,-4.36 -5.99,-2.25 -18.23,-6.49 -22.93,-9.66 -6.19,-5.75 -22.5,-16.54 -29.76,-20.96 z" fill="url(#uxmaH0gZ)" id="path123" style="fill:url(#uxmaH0gZ)" />
   <path d="m 451.70999,386.16 c -7.69,3.36 -17.09,8.94 -24.56,13.14 l -37.86,21.3 c -4.44,2.51 -17.17,10.06 -21.27,11.37 l -0.84,-1.78 c -1.88,-1.66 -4.71,-1.99 -7.21,-2.52 6.14,-5.07 9.96,-8.35 14.34,-15.06 2.16,-1.76 14.52,-16.06 14.94,-18.15 1.96,-0.4 8.14,-0.83 10.43,-1.02 l 4.37,-0.41 c 14.16,-1.6 35.14,-6.09 47.66,-6.87 z" fill="#62748e" id="path124" />
   <path d="m 308.27999,407.6 c 4.2,1.2 10.48,2.61 14.25,4.19 l 0.2,0.53 -2.36,1.26 -0.42,1.96 c 5.6,2.67 33.15,10.83 40.02,12.13 2.5,0.53 5.33,0.86 7.21,2.52 l 0.84,1.78 c -12.38,-0.64 -28.99,2.31 -43.91,1.38 l -17.64,-6.29 c 1.91,-4.36 8.34,-7.92 12.47,-10.72 -4.52,-1.44 -10.43,-1.99 -12.6,-5.56 z" fill="#312c85" id="path125" />
   <path d="m 319.95999,415.54 c 5.15,-4.82 33.41,6.21 40.96,7 5.41,0.57 8.59,-6.75 13.39,-9.93 -4.38,6.71 -8.2,9.99 -14.34,15.06 -6.87,-1.3 -34.42,-9.46 -40.02,-12.13 z" fill="#62748e" id="path126" />
   <path d="m 161.77999,49.929999 c 11.12,4.49 22.88,10.03 33.88,14.99 l 3.67,2.06 6.95,2.96 c 8.63,6.42 23.75,12.05 33.03,18.73 5.98,7.86 11.45,14.920001 17.81,22.450001 -2.67,0.88 -9.22,-1.64 -11.74,-2.85 l -6.69,2.49 c -1.49,0.68 -2.97,1.38 -4.49,1.96 0.05,3.78 0.03,7.31 -0.06,11.08 -4.4,-0.51 -16.61,-0.7 -19.53,-2.23 l 0.01,-1.99 c -2.17,0.23 -5.15,0.45 -7.23,0.8 -2.52,0.34 -16.3,1.9 -17.31,2.94 l 0.77,0.37 c -1.21,1.43 -2.23,2.85 -3.83,3.79 -5.45,0.64 -8.72,2.94 -14.34,1.91 -11.45,-1.12 -22.89,-2.42 -34.14,-4.83 -5.48,0.3 -22.6,3.99 -27.18,6.39 -3.57,0.17 -5.45,0.67 -8.86,1.48 3.02,-5.64 15.86,-16.01 20.97,-20.31 4.22,0.07 2.42,-5.48 11.29,-6.14 -1.41,-0.3 -2.85,-0.49 -4.28,-0.7 l -0.37,-0.87 c 4.61,-3.89 8.39,-7.390001 12.74,-11.580001 -3.48,-0.1 -4.55,-0.2 -7.92,-0.99 -8.16,-0.19 -16.4,-1.54 -24.93,-1.48 -19.409999,-0.7 -39.369999,-0.79 -58.819999,-1.09 28.73,-9.73 57.669999,-21.78 86.729999,-30.88 l 15.66,-5.16 c 2.56,-1.26 5.51,-2.29 8.21,-3.3 z" fill="#312c85" id="path127" />
   <path d="m 134.92999,91.839999 c 5.39,-0.31 58.98,5.21 61.74,6.96 6.29,1.990001 20.23,3.820001 24.13,5.510001 5.18,1.01 10.61,1.95 15.72,3.21 0.57,0.14 3.59,1.23 3.7,1.18 l -1.81,1.28 0.28,0.78 c -1.49,0.68 -2.97,1.38 -4.49,1.96 0.05,3.78 0.03,7.31 -0.06,11.08 -4.4,-0.51 -16.61,-0.7 -19.53,-2.23 l 0.01,-1.99 c -2.17,0.23 -5.16,0.45 -7.23,0.8 -2.52,0.34 -16.3,1.9 -17.31,2.94 l 0.77,0.37 c -1.22,1.43 -2.23,2.85 -3.83,3.79 -5.46,0.64 -8.72,2.94 -14.35,1.91 -11.44,-1.12 -22.88,-2.42 -34.13,-4.83 -5.48,0.3 -22.6,3.99 -27.18,6.39 -3.57,0.17 -5.45,0.67 -8.87,1.48 3.03,-5.64 15.87,-16.01 20.98,-20.31 4.21,0.07 2.42,-5.48 11.29,-6.14 -1.41,-0.3 -2.85,-0.49 -4.28,-0.7 l -0.37,-0.87 c 4.61,-3.89 8.39,-7.390001 12.74,-11.580001 -3.48,-0.1 -4.55,-0.2 -7.92,-0.99 z" fill="url(#X1ajEXgx)" id="path128" style="fill:url(#X1ajEXgx)" />
   <path d="m 182.30999,116.36 c 3.94,-2.44 28.57,-6.66 33.34,-4.11 1.72,0.92 10.01,-2.02 12.01,-3.45 -6.13,1.2 -16.5,2.86 -22.61,0.85 -3,-0.98 -4.86,-4.9 -3.3,-7.79 6.45,-0.42 11.38,3.32 18.5,2.52 l 0.55,-0.07 c 5.18,1.01 10.61,1.95 15.72,3.21 0.57,0.14 3.59,1.23 3.7,1.18 l -1.81,1.28 0.28,0.78 c -1.49,0.68 -2.97,1.38 -4.49,1.96 0.05,3.78 0.03,7.31 -0.06,11.08 -4.4,-0.51 -16.61,-0.7 -19.53,-2.23 l 0.01,-1.99 c -2.17,0.23 -5.16,0.45 -7.23,0.8 -2.52,0.34 -16.3,1.9 -17.31,2.94 l 0.77,0.37 c -1.22,1.43 -2.23,2.85 -3.83,3.79 -5.46,0.64 -8.72,2.94 -14.35,1.91 -11.44,-1.12 -22.88,-2.42 -34.13,-4.83 5.3,-2.98 34.21,-5.74 43.77,-8.2 z" fill="#312c85" id="path129" />
   <path d="m 182.30999,116.36 c 4.26,-0.43 13.2,-2.23 16.42,-1.73 -3.12,0.92 -11.35,2.06 -12.67,2.8 -0.27,2.01 -0.03,2.3 1,4.08 1.98,0.44 17.78,-1.98 20.14,-2.65 l 0.19,1.52 c -2.52,0.34 -16.3,1.9 -17.31,2.94 l 0.77,0.37 c -1.22,1.43 -2.23,2.85 -3.83,3.79 -5.46,0.64 -8.72,2.94 -14.35,1.91 -11.44,-1.12 -22.88,-2.42 -34.13,-4.83 5.31,-2.98 34.21,-5.74 43.77,-8.2 z" fill="url(#IMxrrhin)" id="path130" style="fill:url(#IMxrrhin)" />
   <path d="m 214.61999,119.58 c 7.94,-2.12 11.92,-3.66 19.58,-6.86 0.05,3.78 0.03,7.31 -0.06,11.08 -4.4,-0.51 -16.61,-0.7 -19.53,-2.23 z" fill="url(#IvALBqjy)" id="path131" style="fill:url(#IvALBqjy)" />
   <path d="m 180.68999,78.939999 c 4.8,-4.28 11.67,-7.59 17.64,-9.89 0.74,-0.89 0.88,-0.89 1,-2.06 l 6.95,2.95 c 8.63,6.42 23.75,12.05 33.03,18.73 5.98,7.86 11.45,14.920001 17.81,22.450001 -2.67,0.89 -9.22,-1.64 -11.74,-2.85 l -6.69,2.49 -0.28,-0.77 1.81,-1.29 c -0.11,0.05 -3.13,-1.04 -3.7,-1.18 -5.11,-1.26 -10.54,-2.2 -15.72,-3.2 -3.9,-1.7 -17.84,-3.53 -24.13,-5.520001 10.48,-0.04 8.05,5.300001 14.08,-7.02 -5.51,-2.22 -26.05,-10.09 -30.06,-12.84 z" fill="url(#kkTge3ph)" id="path132" style="fill:url(#kkTge3ph)" />
   <path d="m 161.77999,49.929999 c 11.12,4.49 22.88,10.03 33.88,14.99 l 3.67,2.06 c -0.12,1.17 -0.26,1.18 -1,2.07 -5.97,2.3 -12.84,5.6 -17.64,9.88 -3.9,-1.76 -4.25,0.41 -7.65,-0.03 l 2.95,-2.45 c -7.81,-4.09 -35.37,-12.88 -38.09,-18.06 l 15.67,-5.16 c 2.56,-1.26 5.51,-2.29 8.21,-3.3 z" fill="#312c85" id="path133" />
   <path d="m 137.90999,58.389999 15.66,-5.16 0.18,1.17 c -1.51,0.58 -1.52,0.3 -2.3,1.39 4.89,5.28 26.04,14.28 33.82,18.6 -3.34,1.26 -5.67,2.44 -9.28,2.06 -7.81,-4.08 -35.37,-12.88 -38.09,-18.06 z" fill="#62748e" id="path134" />
   <path d="m 166.99999,361.23 c 4.73,0.7 8.6,1.13 13.04,3.05 3.3,2.03 23.62,14.41 25.47,16.2 9.33,5.44 9.33,4.52 20.29,5.25 l 4.52,0.26 5.55,3.02 4.86,3.07 c 7.26,4.42 23.58,15.21 29.76,20.96 4.7,3.17 16.94,7.41 22.93,9.66 4.32,1.38 8.83,2.74 13.05,4.36 l 17.64,6.29 1.36,0.97 c -0.07,0.47 -0.15,1.03 -0.24,1.67 4.52,7.81 14,20.94 18.77,27.79 -9.37,1.95 -21.28,4.06 -30.7,5.2 -7.82,-3.55 -20.66,-12.13 -28.38,-14.03 l -0.77,-0.07 -1.61,-1.19 c -4.31,-6.3 -20.27,-15.41 -25.64,-21.42 -4.64,5.02 -9.37,2.15 -16.01,4.89 -3.53,-2.06 -8.54,-6.81 -11.78,-9.69 -8.87,-8.59 -19.35,-17.97 -28.55,-26.29 -0.52,-1.02 -26.46,-26.69 -29.47,-29.96 -0.89,-0.8 -1.6,-1.86 -2.34,-2.84 l -2.63,-6.73 z" fill="url(#KwFSSNlw)" id="path135" style="fill:url(#KwFSSNlw)" />
   <path d="m 293.41999,422.7 c 4.32,1.38 8.83,2.74 13.05,4.36 l 17.64,6.29 1.36,0.97 c -0.07,0.47 -0.15,1.03 -0.24,1.67 4.52,7.81 14,20.94 18.77,27.79 -9.37,1.95 -21.28,4.06 -30.7,5.2 -7.82,-3.55 -20.66,-12.13 -28.38,-14.03 -1.52,-5.37 -19.13,-16.9 -24.64,-21.91 6.69,-1.56 26.94,-7.59 33.14,-10.34 z" fill="#62748e" id="path136" />
   <path d="m 253.69999,407.69 c 4.3,1.56 12.95,5.56 16.79,5.35 4.7,3.17 16.94,7.41 22.93,9.66 -6.2,2.75 -26.45,8.78 -33.14,10.34 5.51,5 23.12,16.54 24.64,21.91 l -0.77,-0.07 -1.61,-1.19 c -4.31,-6.3 -20.27,-15.41 -25.64,-21.42 -5.41,-4.94 -22.7,-17.24 -25.64,-21.15 l 0.23,-0.48 c 7.3,5.28 17.94,14.8 25.66,20.37 0.67,-0.05 1.24,-0.09 1.72,-0.12 0.58,-0.74 1.33,-1.64 1.14,-3.08 -0.78,-5.79 -2.55,-11.96 -3.83,-17.67 -1.02,-1.01 -1.85,-1.83 -2.48,-2.45 z" fill="url(#FTsEI9ou)" id="path137" style="fill:url(#FTsEI9ou)" />
   <path d="m 166.99999,361.23 c 4.73,0.7 8.6,1.13 13.04,3.05 3.3,2.03 23.62,14.41 25.47,16.2 l -0.06,1.49 c 1.54,0.9 2.92,1.64 4.33,2.74 -2.84,1.51 -2,1.07 -5.58,0.84 -4.09,-0.17 -25.25,-12.39 -33.11,-14.33 -0.89,-0.8 -1.6,-1.87 -2.34,-2.84 l -2.63,-6.73 z" fill="#312c85" id="path138" />
   <path d="m 240.72999,392.08 c 7.26,4.42 23.57,15.2 29.76,20.96 -3.84,0.21 -12.49,-3.79 -16.79,-5.35 -2.56,-1.76 -21.53,-9.39 -25.22,-10.72 l -0.93,-4.13 c 3.39,0.01 10.42,0.49 13.18,-0.76 z" fill="#62748e" id="path139" />
   <path d="m 205.50999,380.48 c 9.33,5.44 9.33,4.52 20.29,5.25 l 4.52,0.26 5.55,3.02 4.86,3.07 c -2.76,1.25 -9.79,0.77 -13.18,0.76 l 0.93,4.13 c -7.93,-3.15 -16.64,-7.53 -24.28,-11.42 3.58,0.23 2.74,0.68 5.58,-0.84 -1.41,-1.1 -2.79,-1.84 -4.33,-2.74 z" fill="#312c85" id="path140" />
   <path d="m 225.79999,385.74 4.52,0.25 5.55,3.02 4.86,3.07 c -2.76,1.25 -9.79,0.77 -13.18,0.76 -2.38,-1.28 -7.37,-3.89 -8.55,-6 2,-1.36 4.06,-0.99 6.8,-1.1 z" fill="#62748e" id="path141" />
   <path d="m 171.66999,25.319999 c 3.39,-0.67 21.77,-1.64 25.7,-1.66 6.63,3.65 19.58,14.47 24.64,16.11 8.54,1.27 18.12,3.54 26.67,5.38 l 1.44,1.63 c 2.29,2.33 14.84,14.43 15.1,16.33 l -0.14,0.24 -3.6,-1.8 c -3.49,0.58 -9.92,0.94 -11.92,2.91 -0.46,2.73 0.79,2.11 1.81,4.93 -2.23,-1.55 -4.62,-4.6 -7.2,-6.61 -5.36,2.32 -31.3,0.97 -39.6,4.95 1.34,0.9 1.47,0.95 3.01,1.47 -0.34,0.22 -1.02,0.78 -1.3,0.74 l -6.95,-2.95 -3.67,-2.07 c -11,-4.96 -22.76,-10.5 -33.88,-14.99 -14.37,-6.23 -28.46,-12.4 -42.34,-19.66 17.34,-2.23 34.78,-3.88 52.23,-4.95 z" fill="#62748e" id="path142" />
   <path d="m 119.43999,30.269999 c 17.34,-2.24 34.78,-3.88 52.23,-4.95 4.75,11.12 18.67,25.46 23.99,39.6 -11,-4.96 -22.76,-10.5 -33.88,-14.99 -14.37,-6.23 -28.46,-12.4 -42.34,-19.66 z" fill="url(#Kj6v0IEf)" id="path143" style="fill:url(#Kj6v0IEf)" />
   <path d="m 222.00999,39.769999 c 8.54,1.27 18.12,3.54 26.67,5.38 l 1.44,1.63 c 2.29,2.33 14.84,14.43 15.1,16.33 l -0.14,0.24 -3.6,-1.8 c -3.49,0.58 -9.92,0.94 -11.92,2.91 -0.46,2.73 0.79,2.11 1.81,4.93 -2.23,-1.55 -4.62,-4.6 -7.2,-6.61 -3.68,-2.85 -16.5,-17.02 -19.28,-20.93 z" fill="#62748e" id="path144" />
   <path d="m 222.00999,39.769999 c 8.54,1.27 18.12,3.54 26.67,5.38 l 1.44,1.63 c 2.29,2.33 14.84,14.43 15.1,16.33 l -0.14,0.24 -3.6,-1.8 c -12,-6.78 -24.41,-13.23 -36.59,-19.7 z" fill="#f4a8ff" id="path145" />
   <path d="m 109.99999,90.359999 c 8.53,-0.06 16.77,1.29 24.93,1.48 3.37,0.79 4.44,0.89 7.92,0.99 -4.35,4.19 -8.13,7.690001 -12.74,11.580001 l 0.37,0.87 c 1.43,0.21 2.87,0.4 4.28,0.7 -8.87,0.66 -7.07,6.21 -11.29,6.13 -5.11,4.31 -17.95,14.68 -20.97,20.32 -17.389999,7.33 -44.349999,12.1 -60.829999,19.97 -5.7,1.08 -14.04,4.41 -19.71,6.47 l 38.25,-31.24 c 8.23,-6.73 19.07,-16.14 28.22,-21.45 -3.16,-0.11 -11.24,0.67 -14.58,0.91 10.52,-4.14 26.679999,-11.040001 36.149999,-16.730001 z" fill="url(#CtK2cAPQ)" id="path146" style="fill:url(#CtK2cAPQ)" />
   <path d="m 109.99999,90.359999 c 8.53,-0.06 16.77,1.29 24.93,1.48 3.37,0.79 4.44,0.89 7.92,0.99 -4.35,4.19 -8.13,7.690001 -12.74,11.580001 l 0.37,0.87 c 1.43,0.21 2.87,0.4 4.28,0.7 -8.87,0.66 -7.07,6.21 -11.29,6.13 0.71,-1.58 4.68,-5.13 6.14,-6.55 -6.96,-0.08 -36.749999,-0.83 -41.179999,0.62 -3.16,-0.11 -11.24,0.67 -14.58,0.91 10.52,-4.14 26.679999,-11.040001 36.149999,-16.730001 z" fill="#62748e" id="path147" />
   <path d="m 229.10999,427.47 c 3.24,2.88 8.25,7.63 11.78,9.69 6.64,-2.74 11.37,0.13 16.01,-4.89 5.37,6.01 21.33,15.12 25.64,21.42 l 1.61,1.19 c -7.61,0.13 -15.1,0.08 -22.7,0.02 14.64,11.92 30.9,25.71 45.82,36.98 -17.99,-5.14 -36,-11.02 -53.9,-16.54 -18.58,-5.73 -36.63,-11.01 -54.67,-18.33 l -2.09,-3.18 c 4.69,-0.47 8.62,-0.84 13.32,-0.95 2.96,-0.29 5.94,-0.66 8.89,-1 1.9,-1.73 4.21,-1.59 6.86,-1.86 4.19,-3.75 -3.17,-16.15 0.91,-22.49 z" fill="#f4a8ff" id="path148" />
   <path d="m 229.10999,427.47 c 3.24,2.88 8.25,7.63 11.78,9.69 l 4.09,1.52 c -0.25,3.48 6.03,7.2 8.82,9.34 -11.66,2.26 -23.19,2.95 -34.98,3.86 1.9,-1.73 4.21,-1.59 6.86,-1.86 4.19,-3.75 -3.17,-16.15 0.91,-22.49 z" fill="#f4a8ff" id="path149" />
   <path d="m 256.89999,432.27 c 5.37,6.01 21.33,15.12 25.64,21.42 -11.92,-3.91 -25.41,-10.46 -37.56,-15 l -4.09,-1.53 c 6.64,-2.74 11.37,0.13 16.01,-4.89 z" fill="#62748e" id="path150" />
   <path d="m 346.57999,331.36 10.17,7.39 5.68,3.03 c 15.02,6.13 28.36,7.28 44.37,4.47 l -1.61,1.86 c -6.43,4.85 -34.62,15.51 -43.75,19.32 -9.39,3.5 -24.89,9.55 -34.36,11.68 -7.83,2.53 -22.25,6.84 -30.12,7.73 -0.67,0.22 -0.6,0.06 -1.51,-0.17 -1.89,-0.7 -8.93,-2.02 -11.64,-2.75 1.99,-1.97 4.01,-3.91 5.87,-6.02 4.62,-1.63 12.62,-5.43 17.36,-7.48 9.85,-5.75 25.24,-8.3 29.48,-19.79 -1.56,0.83 -1.82,0.92 -3.55,1.24 4.62,-7.21 8.62,-12.26 13.61,-20.51 z" fill="#312c85" id="path151" />
   <path d="m 346.57999,331.36 10.17,7.39 5.68,3.03 c -7.22,5.88 -17.44,11.64 -25.56,17.63 -4.2,2.65 -16.8,10.87 -20.11,13.96 l -4.15,2.69 c -3.21,2.5 -14.44,8.84 -15.65,10.78 -0.67,0.22 -0.6,0.06 -1.51,-0.17 -1.89,-0.7 -8.93,-2.02 -11.64,-2.75 1.99,-1.97 4.01,-3.91 5.87,-6.02 4.62,-1.63 12.62,-5.43 17.36,-7.48 9.85,-5.75 25.24,-8.3 29.48,-19.79 -1.56,0.83 -1.82,0.92 -3.55,1.24 4.62,-7.21 8.62,-12.26 13.6,-20.51 z" fill="#312c85" id="path152" />
   <path d="m 289.67999,377.9 c 4.62,-1.63 12.62,-5.43 17.36,-7.48 -2.2,3.7 -4.83,2.24 -6.11,5.1 1,2.01 1.16,2.58 3.22,3.65 3.9,-0.12 4.51,-3.71 8.46,-3.11 -3.21,2.5 -14.44,8.84 -15.65,10.78 -0.67,0.22 -0.6,0.06 -1.51,-0.17 -1.89,-0.7 -8.93,-2.02 -11.65,-2.75 2,-1.97 4.02,-3.91 5.88,-6.02 z" fill="#312c85" id="path153" />
   <path d="m 346.57999,331.36 10.17,7.39 c -3.72,3.84 -19.04,8.97 -20.23,11.88 -1.56,0.83 -1.82,0.92 -3.55,1.24 4.62,-7.21 8.62,-12.26 13.61,-20.51 z" fill="url(#fm2mjK8b)" id="path154" style="fill:url(#fm2mjK8b)" />
   <path d="m 316.75999,373.37 c 3.28,-0.24 4.51,-0.46 7.72,-1.26 -3.38,1.41 -10.82,3.98 -12.51,7.03 1.17,2.25 0.46,1.59 2.59,2.63 4.62,0 10.21,-4.44 12.52,-2.66 -7.83,2.53 -22.25,6.84 -30.12,7.73 1.21,-1.94 12.44,-8.28 15.65,-10.78 z" fill="#0f172b" id="path155" />
   <path d="m 296.28999,16.319999 c 2.92,2.47 5.71,5.05 8.44,7.74 17.78,17.51 35.39,35.21 53.44,52.46 1.11,4.74 1.85,14.36 1.9,19.42 l -4.43,-3.21 c -1.92,-3.65 -28.73,-18.46 -33.86,-20.75 l -0.37,2.89 -8.4,-19.62 -2.77,-6.47 c -1.81,-6.32 -10.93,-25.79 -13.95,-32.46 z" fill="#62748e" id="path156" />
   <path d="m 279.49999,373.44 c 6.76,-2.83 16.55,-7.26 23.24,-9.56 -3.68,4.2 -10.24,10.44 -13.06,14.02 -1.86,2.11 -3.88,4.05 -5.88,6.02 2.72,0.73 9.76,2.05 11.65,2.75 -2.7,2.39 -15.78,4.47 -20.08,5.54 -8.04,1.15 -20.44,-1.69 -28.72,-3.27 -4.92,0.13 -8.38,-1.97 -10.78,0.07 l -5.55,-3.02 -7.25,-4.04 c 7.98,0.12 16.91,-0.23 25.02,-0.33 4.67,-0.3 10.14,-0.51 14.67,-1.28 4.54,-2.22 11.88,-4.93 16.74,-6.9 z" fill="#312c85" id="path157" />
   <path d="m 279.49999,373.44 c 6.76,-2.83 16.55,-7.26 23.24,-9.56 -3.68,4.2 -10.24,10.44 -13.06,14.02 -1.86,2.11 -3.88,4.05 -5.88,6.02 l -1.26,-0.14 c -2.73,-2.35 -4.44,-0.75 -6.19,-4.97 1.27,-2.83 1.63,-2.38 3.15,-5.37 z" fill="#f4a8ff" id="path158" />
   <path d="m 262.75999,380.34 c 4.54,-2.22 11.88,-4.93 16.74,-6.9 -1.52,2.98 -1.88,2.54 -3.15,5.37 1.75,4.22 3.46,2.62 6.19,4.97 -4.56,-0.23 -15.5,-1.98 -19.78,-3.44 z" fill="#f4a8ff" id="path159" />
   <path d="m 223.06999,381.95 c 7.99,0.12 16.91,-0.23 25.02,-0.33 -3.14,2.03 -9.55,1.92 -13.45,2.26 1.98,1.73 9.24,3.59 12.01,5.06 -4.92,0.13 -8.38,-1.97 -10.78,0.07 l -5.55,-3.02 z" fill="#0f172b" id="path160" />
   <path d="m 325.46999,434.32 c 18.67,6.24 45.18,16.35 63.3,20.95 -15.66,2.29 -29.3,5.12 -44.77,8.51 -4.77,-6.85 -14.25,-19.98 -18.77,-27.79 0.09,-0.64 0.17,-1.2 0.24,-1.67 z" fill="#cad5e2" id="path161" />
   <path d="m 333.13999,145.68 c 1.63,1.82 6.23,8.02 6.98,8.76 3.14,4.66 14.74,24.97 17.74,26.12 0.2,7.93 -0.21,15.06 -0.94,22.95 -4.81,-7.02 -8.76,-13.37 -13.17,-20.66 -3.46,-4.38 -10.87,-11.65 -14.95,-15.91 2.24,-2.64 3.36,-9.16 3.83,-12.6 l 2.73,0.66 c -1.18,-2.67 -1.69,-6.38 -2.22,-9.32 z" fill="#312c85" id="path162" />
   <path d="m 332.62999,154.34 2.73,0.66 c 2.6,3.48 8.96,23.16 8.39,27.85 -3.46,-4.38 -10.87,-11.65 -14.95,-15.91 2.24,-2.64 3.36,-9.16 3.83,-12.6 z" fill="#62748e" id="path163" />
   <path d="m 245.37999,108.27 c 2.52,1.21 9.07,3.73 11.74,2.85 l 1.65,1.1 c 1.29,3.06 14.71,14.77 18.09,17.83 -10.89,-1.85 -21.51,-3.27 -32.31,-5.02 l -10.41,-1.23 c 0.09,-3.77 0.11,-7.3 0.06,-11.07 1.52,-0.59 3,-1.29 4.49,-1.97 z" fill="#312c85" id="path164" />
   <path d="m 238.68999,110.76 6.69,-2.49 c 1.24,5.54 0.12,11.2 -0.83,16.76 l -10.41,-1.23 c 0.09,-3.77 0.11,-7.3 0.06,-11.07 1.52,-0.59 3,-1.29 4.49,-1.97 z" fill="#62748e" id="path165" />
   <path d="M 205.68999,-1.3903344e-6 C 220.62999,7.6599986 236.69999,14.269999 251.95999,21.669999 c -4.88,2.05 -5.79,6.6 -9.19,10.38 -2.45,2.73 -0.42,3.02 -1.49,4.76 -10.55,-9.86 -25.04,-25.96 -35.59,-36.8100003903344 z" fill="url(#s2TUBKDT)" id="path166" style="fill:url(#s2TUBKDT)" />
   <path d="m 168.30999,136.78 c 3.59,1.55 5.93,2.63 9.39,4.57 -2.32,1.62 -4.86,3.3 -6.95,5.18 l -0.61,0.5 c -3.54,4.29 -7.68,8.32 -11.6,12.26 -5.59,0.11 -10.01,0.11 -15.52,1 l 3.06,-5.23 c 1.2,-2.86 2.57,-5.77 3.85,-8.61 1.15,-1.42 7.65,-6.47 9.59,-8.17 l 4.96,0.01 z" fill="#62748e" id="path167" />
   <path d="m 146.07999,155.06 c 6.86,-2.23 17.64,-6.76 24.06,-8.02 -3.54,4.28 -7.68,8.31 -11.6,12.25 -5.59,0.11 -10.01,0.11 -15.52,1 z" fill="#f4a8ff" id="path168" />
   <path d="m 168.30999,136.78 c 3.59,1.55 5.93,2.63 9.39,4.57 -2.32,1.62 -4.86,3.3 -6.95,5.18 -2.89,-2.37 -4.83,-4.81 -6.27,-8.25 z" fill="#62748e" id="path169" />
   <path d="m 200.76999,460.65 c 7.1,11.05 13.63,23.14 20.89,34.59 -7.78,-5.43 -26.38,-19.03 -33.25,-25.13 3.66,-3.03 5.39,-5.42 8.56,-8.84 1.09,-1.19 1.96,-0.75 3.8,-0.62 z" fill="#62748e" id="path170" />
   <path d="m 172.67999,129.39 c 5.62,1.03 8.88,-1.27 14.34,-1.91 0.34,0.79 0.62,1.59 1.11,2.28 4.15,-0.88 5.34,-1.49 9.05,0.58 -6.31,3.57 -13.13,7.61 -19.48,11.01 -3.46,-1.94 -5.8,-3.02 -9.39,-4.57 l -3.83,1.5 -4.96,-0.01 c 4.37,-4.45 7.92,-5.58 13.16,-8.88 z" fill="#62748e" id="path171" />
   <path d="m 172.67999,129.39 c 5.62,1.03 8.88,-1.27 14.34,-1.91 0.34,0.79 0.62,1.59 1.11,2.28 -6.67,1.42 -13.52,4.31 -19.82,7.02 l -3.83,1.5 -4.96,-0.01 c 4.37,-4.45 7.92,-5.58 13.16,-8.88 z" fill="#312c85" id="path172" />
   <path d="m 133.02999,325.15 c -0.58,-5.63 -1.06,-11.43 -1.73,-17.03 6.46,6.98 14.6,18.37 20.54,26.23 -2.3,0.87 -5.36,1.75 -6.92,3.53 l -0.25,1.32 c -2.36,-2.18 -7.45,-12.3 -9.15,-15.59 z" fill="url(#B6TPs8Jt)" id="path173" style="fill:url(#B6TPs8Jt)" />
   <path d="m 310.17999,148.47 c 4.09,0.95 7.09,1.62 11.26,2.19 l 0.71,-0.2 0.56,0.47 c 3.09,1.17 6.75,2.69 9.92,3.41 -0.47,3.44 -1.59,9.96 -3.83,12.6 l -7.07,-6.9 c -3.85,-3.71 -7.76,-7.76 -11.55,-11.57 z" fill="#62748e" id="path174" />
   <path d="m 310.17999,148.47 c 4.09,0.95 7.09,1.62 11.26,2.19 l 0.71,-0.2 0.56,0.47 c 0.03,3.76 -0.32,5.47 -0.98,9.11 -3.85,-3.71 -7.76,-7.76 -11.55,-11.57 z" fill="#cad5e2" id="path175" />
   <path d="m 166.99999,361.23 c -0.63,-3.92 4.74,-6.88 7.59,-8.92 6.01,4.04 12.24,8.37 18.43,12.09 l -12.98,-0.12 c -4.44,-1.92 -8.31,-2.35 -13.04,-3.05 z" fill="#f4a8ff" id="path176" />
   <path d="m 293.00999,40.169999 c 6.03,2.78 11.38,5.54 17.23,8.61 l 2.77,6.47 c -4.47,-0.44 -10.07,-1.41 -14.61,-2.05 l -0.85,-0.49 c -1.64,-2.63 -4.68,-9.43 -4.54,-12.54 z" fill="#62748e" id="path177" />
   <path d="m 190.84999,123.69 c 5.52,0.57 10.26,0.98 15.8,1.2 -2.26,1.36 -7.27,4.56 -9.47,5.45 -3.71,-2.07 -4.9,-1.46 -9.05,-0.58 -0.49,-0.69 -0.77,-1.49 -1.11,-2.28 1.6,-0.94 2.62,-2.36 3.83,-3.79 z" fill="#312c85" id="path178" />
   <path d="m 118.04999,211.17 v -2.67 h 2.67 15.2 v -5.35 c 0,-5.42 0.99,-11.66 4.61,-17.23 2.56,-3.96 6.35,-7.92 12.09,-10.72 5.46,-2.67 10.87,-3.61 15.86,-3.61 0.84,0 2.18,0.04 4.15,0.27 1.1,0.12 2.58,0.33 3.85,0.64 l 2.02,0.51 v 2.09 11.35 3.54 l -3.4,-0.97 c -0.41,-0.12 -1.18,-0.26 -2.55,-0.32 -0.79,-0.03 -2.06,-0.08 -2.73,-0.08 -5.69,0 -9.35,1.58 -11.8,3.34 -1.86,1.34 -4.23,4.15 -4.23,11.19 v 5.35 h 19.2 2.68 v 2.67 12.52 2.68 h -2.68 -19.2 v 74.31 2.67 h -2.67 -12.53 -2.67 v -2.67 -74.31 h -15.2 -2.67 v -2.68 z m 72.65,0 v -2.67 h 2.67 12.52 2.67 v 2.67 2.88 c 1.29,-1.05 2.62,-1.94 3.94,-2.7 5.25,-2.99 11.17,-4.02 16.94,-4.02 h 5.68 2.67 v 2.67 12.52 2.68 h -2.67 -7.85 c -6.5,0 -10.71,2.21 -13.62,5.2 -2.67,2.75 -5.08,7.25 -5.09,15.17 v 55.11 2.67 h -2.67 -12.52 -2.67 v -2.67 z m 52.77,66.3 c 0,-4.79 0.97,-9.54 3.31,-14.01 2.61,-5.01 6.55,-8.43 10.29,-10.8 4.56,-2.88 10.29,-4.88 17.18,-6.05 l 30.17,-5.03 v -2.36 c 0,-4.86 -1.83,-8.35 -4.91,-10.99 -2.86,-2.46 -7.04,-4.37 -13.46,-4.37 -5.33,0 -9.52,1.42 -12.88,3.65 -4.04,2.67 -6.61,5.96 -8.24,9.49 l -1.19,2.6 -2.51,-1.37 -11.36,-6.18 -2.16,-1.17 1,-2.25 c 1.92,-4.36 4.91,-8.1 8.63,-11.3 3.33,-2.88 7.63,-5.71 13.21,-7.9 5.58,-2.19 10.83,-2.94 15.5,-2.94 5.97,0 12.47,1 18.66,4.13 4.58,2.32 9.34,5.89 12.91,11.57 3.1,4.91 4.67,10.6 4.67,17.03 v 61.46 2.67 h -2.67 -12.53 -2.67 v -2.67 -5.78 c -0.35,0.31 -0.7,0.62 -1.05,0.91 -3.38,2.81 -7.45,5.18 -12.3,6.96 -3.84,1.41 -8.89,2.59 -15.37,2.59 -5.42,0 -11.05,-0.94 -16.37,-3.53 -4.09,-2 -8.32,-5.05 -11.56,-9.84 -3.37,-4.99 -4.3,-10.16 -4.3,-14.52 z m 22.23,-9.36 c -2.33,2.47 -3.53,5.36 -3.53,8.86 0,3.04 1.11,5.77 3.85,8.17 2.23,1.96 5.48,3.52 10.51,3.52 5.97,0 10.78,-1.33 14.71,-3.57 4.32,-2.48 7.47,-5.74 9.7,-9.62 2.24,-3.9 3.48,-8.37 3.48,-13.53 v -3.58 l -26.28,4.38 c -7.18,1.23 -10.64,3.47 -12.44,5.37 z m 79.4,10.25 c -4.15,-7.39 -6.11,-15.48 -6.11,-24.11 0,-7.49 1.44,-15.93 6.11,-24.19 4.62,-8.18 10.65,-13.55 16.64,-17.17 7.98,-4.83 16.34,-6.4 24.01,-6.4 6.87,0 14.1,1.43 21.1,5.35 3.19,1.79 5.87,3.8 8.13,5.91 v -6.58 -2.67 h 2.67 12.52 2.68 v 2.67 86 c 0,7.06 -1.45,14.69 -5.81,22 -4.4,7.38 -10.24,12.16 -16.04,15.33 -7.62,4.18 -15.67,5.59 -23.24,5.59 -7.24,0 -13.13,-1.26 -17.87,-3 -4.98,-1.82 -9.88,-4.45 -14.21,-8.27 -3.5,-3.08 -6.84,-7.09 -9.26,-12.32 l -1.06,-2.29 2.22,-1.19 11.53,-6.18 2.58,-1.38 1.14,2.7 c 1.37,3.25 3.91,6.68 8.56,9.85 3.31,2.26 8.29,4.21 16.03,4.21 5.33,0 9.92,-1.07 13.91,-2.92 4.34,-2.01 7.56,-4.91 9.93,-8.43 2.18,-3.22 3.72,-7.59 3.72,-13.7 v -6.77 c -2.53,2.55 -5.23,4.5 -7.86,6 -7.43,4.26 -14.8,5.62 -21.37,5.62 -9.42,0 -17.32,-2.43 -23.92,-6.4 -7.8,-4.68 -13.11,-10.79 -16.73,-17.26 z m 16.35,-39.17 c -2.33,4.19 -3.75,9.14 -3.75,15.06 0,5.11 1.09,10.16 3.76,15 2.59,4.71 6.07,8.27 10.26,10.88 3.91,2.44 8.71,4.02 14.7,4.02 5.37,0 10.09,-1.38 14.27,-4.02 3.87,-2.43 7.5,-5.9 10.38,-10.92 2.82,-4.91 3.91,-9.97 3.91,-14.96 0,-4.89 -1.05,-9.97 -3.91,-14.95 -2.48,-4.33 -5.84,-8.06 -10.38,-10.93 -4.5,-2.84 -9.31,-4.01 -14.27,-4.01 -6.05,0 -10.82,1.68 -14.63,4.03 -4.62,2.85 -7.97,6.53 -10.34,10.8 z m 91.77,-28.02 v -2.67 h 2.67 12.53 2.67 v 2.67 3.85 c 1.16,-1.06 2.47,-2.1 3.96,-3.08 5.06,-3.34 11.33,-5.45 19.08,-5.45 5.65,0 12.11,1.08 18.45,4.7 6.42,3.67 10.43,8.49 13.01,12.91 3.56,6.12 4.78,12.49 4.78,18.46 v 58.12 2.67 h -2.67 -12.52 -2.67 l -0.01,-2.67 v -53.27 c 0.01,-5.77 -1.15,-9.79 -2.62,-12.64 -1.79,-3.47 -4.22,-5.96 -7.16,-7.69 -2.8,-1.64 -6.29,-2.72 -10.76,-2.72 -4.53,0 -8.05,1.11 -10.85,2.73 -3.12,1.8 -5.55,4.38 -7.32,7.78 -1.58,3.04 -2.7,7.07 -2.7,12.54 v 53.27 2.67 h -2.67 -12.53 -2.67 v -2.67 z m 92.02,44.59 c 0,-7.95 1.52,-16.74 6.36,-25.21 4.75,-8.31 10.93,-13.84 17.24,-17.59 8.41,-4.99 17.07,-6.47 24.66,-6.47 9.27,0 17.48,2.18 24.65,6.38 8.16,4.78 13.55,11.09 17.17,17.53 4.73,8.38 6.28,17.2 6.28,25.36 0,8.47 -1.7,17.33 -6.55,25.64 -3.77,6.47 -9.25,12.81 -17.4,17.58 -7.72,4.52 -15.9,6.38 -24.15,6.38 -10.01,0 -18.02,-2.71 -24.4,-6.47 -7.1,-4.18 -13,-9.99 -17.41,-17.67 -4.89,-8.5 -6.45,-17.37 -6.45,-25.46 z m 22.7,-16.06 c -2.48,4.38 -4,9.64 -4,16.06 0,5.73 1.22,11.19 4.01,16.24 2.51,4.53 5.95,8.45 10.68,11.38 4.44,2.76 9.38,4.11 14.87,4.11 5.63,0 10.55,-1.42 14.87,-4.11 4.13,-2.56 7.78,-6.2 10.59,-11.36 2.34,-4.33 3.93,-9.65 3.93,-16.26 0,-6.77 -1.66,-11.99 -3.92,-16.07 -2.48,-4.47 -5.91,-8.31 -10.6,-11.22 -4.15,-2.58 -9.04,-4.11 -14.87,-4.11 -5.65,0 -10.56,1.43 -14.87,4.11 -4.63,2.87 -8.12,6.68 -10.69,11.23 z" fill="#0f172b" id="path179" />
</svg>
